<svg width="32" height="32" viewBox="0 0 32 32" fill="none" xmlns="http://www.w3.org/2000/svg"><path d="M27.0011 11.4375V20.5626C27.0011 21.1403 26.6802 21.6588 26.1639 21.917L16.4447 26.8419C16.233 26.9471 16.0015 27 15.7704 27H15.7609C15.5229 26.9983 15.2854 26.9416 15.0698 26.829L15.0659 26.8269L5.81228 21.9157C5.31141 21.6532 5 21.1395 5 20.5738V11.4263C5 11.1682 5.06441 10.9216 5.18215 10.7043C5.32306 10.4448 5.53954 10.2275 5.81232 10.0848L15.0697 5.17154C15.4984 4.94775 16.0122 4.94302 16.4447 5.15865L16.449 5.16037L26.1639 10.0831C26.4492 10.2257 26.6747 10.4478 26.819 10.7154C26.9367 10.9323 27.0011 11.1789 27.0011 11.4375Z" fill="#FFE16A"/><path d="M27.0003 11.4374V20.562C27.0003 21.1397 26.6794 21.6582 26.1631 21.9163L16.4444 26.841C16.2327 26.9462 16.0012 26.9991 15.7701 26.9991H15.7606V16.1795L26.8182 10.7153C26.9358 10.9322 27.0003 11.1788 27.0003 11.4374Z" fill="#FFC107"/><path d="M26.8195 10.7153L21.895 13.1488L20.6836 13.7476L15.7613 16.1797L5.18262 10.7042C5.32352 10.4447 5.54001 10.2273 5.81279 10.0847L9.78149 7.97816L11.1574 7.24792L15.0702 5.17143C15.2863 5.05846 15.5238 5.00131 15.7614 5.00002C15.9959 4.99873 16.2304 5.05159 16.4452 5.15854L16.4495 5.16026L26.1644 10.083C26.4496 10.2256 26.6751 10.4477 26.8195 10.7153Z" fill="#FFF7CD"/><path d="M21.9208 13.3317C21.9208 13.3317 21.9208 13.3317 21.9208 13.3322V16.7208C21.9208 17.0764 21.6321 17.3651 21.2765 17.3651C20.9208 17.3651 20.6321 17.0764 20.6321 16.7208V13.7205L15.7603 11.1424L9.78076 7.97801L11.1566 7.2478L15.7603 9.68413L21.578 12.7626C21.5788 12.7631 21.5797 12.7635 21.5805 12.7639C21.593 12.7708 21.605 12.7785 21.6171 12.7858C21.6235 12.7897 21.6304 12.7936 21.6368 12.7979L21.6373 12.7983C21.6875 12.8322 21.7317 12.8726 21.7691 12.9173C21.7708 12.9194 21.7726 12.9211 21.7739 12.9229C21.7833 12.934 21.7915 12.9461 21.8001 12.9577C21.8039 12.9632 21.8082 12.9684 21.8121 12.9744C21.8181 12.983 21.8228 12.992 21.8284 13.0011C21.834 13.0105 21.84 13.02 21.8452 13.0299C21.8482 13.0354 21.8508 13.041 21.8533 13.0466C21.8602 13.0604 21.8667 13.0741 21.8727 13.0883C21.8735 13.0904 21.874 13.0922 21.8748 13.0939C21.8821 13.1119 21.8882 13.13 21.8933 13.1484C21.9053 13.1867 21.9135 13.2266 21.9174 13.2679C21.9195 13.2892 21.9208 13.3103 21.9208 13.3317Z" fill="#FFE16A"/><path d="M21.921 13.3322C21.921 13.3322 21.921 13.3322 21.921 13.3327V16.7213C21.921 17.0769 21.6323 17.3656 21.2766 17.3656C20.921 17.3656 20.6323 17.0769 20.6323 16.7213V13.7721L21.8935 13.1488C21.9055 13.187 21.9137 13.227 21.9175 13.2682C21.9197 13.2897 21.921 13.3108 21.921 13.3322Z" fill="#B78103"/></svg>