<svg width="25" height="24" viewBox="0 0 25 24" fill="none" xmlns="http://www.w3.org/2000/svg"><path d="M21.4487 11.9995L22.635 11.5199C23.7637 11.0631 24.318 9.78616 23.881 8.64974L21.104 1.43044C20.6595 0.279121 19.3659 -0.293899 18.2146 0.150531C18.1983 0.156841 18.1821 0.163307 18.1659 0.169979L4.29052 5.92191C3.18012 6.38357 2.63426 7.64123 3.05531 8.76767L3.61395 10.2574L4.55164 12.8271H18.6211L21.4487 11.9995Z" fill="#74CAFF"/><path d="M6.68294 10.2586L5.80566 8.06546L9.31476 6.31091L10.192 8.50409L6.68294 10.2586Z" fill="#0C53B7"/><path d="M17.0431 8.12646L20.9906 6.37109L21.3268 7.12732L17.3794 8.88269L17.0431 8.12646Z" fill="#0C53B7"/><path d="M14.4055 7.25104L20.1074 4.61938L20.4541 5.37045L14.7521 8.0021L14.4055 7.25104Z" fill="#0C53B7"/><path opacity="0.12" d="M22.6357 11.52C22.6725 11.5051 22.7035 11.4823 22.7391 11.4658C22.6283 10.3602 21.6985 9.51797 20.5873 9.51672H3.33484L3.61292 10.2587L4.55226 12.8272H18.6217L21.4493 11.9996L22.6357 11.52Z" fill="black"/><path d="M2.17249 10.3444H19.7593C20.9592 10.3444 21.9318 11.317 21.9318 12.5169V21.8275C21.9318 23.0274 20.9592 24 19.7593 24H2.17249C0.972656 24 0 23.0274 0 21.8275V12.5169C0 11.317 0.972656 10.3444 2.17249 10.3444Z" fill="#FFC107"/><path d="M15.7252 22.7585C14.3539 22.7585 13.2423 21.647 13.2423 20.2757C13.2423 18.9044 14.3539 17.7928 15.7252 17.7928C17.0964 17.7928 18.208 18.9044 18.208 20.2757C18.2067 21.6464 17.0958 22.7572 15.7252 22.7585ZM15.7252 18.6205C14.811 18.6205 14.0699 19.3615 14.0699 20.2757C14.0699 21.1899 14.811 21.9309 15.7252 21.9309C16.6393 21.9309 17.3804 21.1899 17.3804 20.2757C17.3804 19.3615 16.6393 18.6205 15.7252 18.6205Z" fill="#B78103"/><path d="M18.2076 22.7585C16.8363 22.7585 15.7247 21.647 15.7247 20.2757C15.7247 18.9044 16.8363 17.7928 18.2076 17.7928C19.5788 17.7928 20.6904 18.9044 20.6904 20.2757C20.6891 21.6464 19.5783 22.7572 18.2076 22.7585ZM18.2076 18.6205C17.2934 18.6205 16.5523 19.3615 16.5523 20.2757C16.5523 21.1899 17.2934 21.9309 18.2076 21.9309C19.1217 21.9309 19.8628 21.1899 19.8628 20.2757C19.8628 19.3615 19.1217 18.6205 18.2076 18.6205Z" fill="#B78103"/><path d="M0 12.8271H21.9318V16.1376H0V12.8271Z" fill="#B78103"/></svg>