<svg width="18" height="27" viewBox="0 0 18 27" fill="none" xmlns="http://www.w3.org/2000/svg"><path d="M16 3.5H2C0.89543 3.5 0 4.39543 0 5.5V24.5C0 25.6046 0.89543 26.5 2 26.5H16C17.1046 26.5 18 25.6046 18 24.5V5.5C18 4.39543 17.1046 3.5 16 3.5Z" fill="#FFC107"/><path d="M1.65625 5.79688H16.5625V24.8438H1.65625V5.79688Z" fill="#FFE16A"/><path d="M12.8359 22.3594H1.65625V5.79688H16.5625V18.9494L12.8359 22.3594Z" fill="#FFF7CD"/><path d="M11 3V2C11 1.46957 10.7893 0.960859 10.4142 0.585786C10.0391 0.210714 9.53043 0 9 0C8.46957 0 7.96086 0.210714 7.58579 0.585786C7.21071 0.960859 7 1.46957 7 2V3H5L4 4.5V6H14V4.5L13 3H11Z" fill="#FFB431"/><path d="M8.50024 1.5H9.50024V2.5H8.50024V1.5Z" fill="#F99E0C"/><path d="M13.25 22.5469V19.0469H16.75L13.25 22.5469Z" fill="#FFC107"/><path d="M9.00012 18.5C7.68974 18.0632 6.55002 17.2252 5.74238 16.1046C4.93474 14.9841 4.50013 13.6378 4.50012 12.2566V10C5.80882 9.99999 7.09292 9.64432 8.21512 8.971L9.00012 8.5L9.78512 8.971C10.9073 9.64432 12.1914 9.99999 13.5001 10V12.2566C13.5001 13.6378 13.0655 14.9841 12.2579 16.1046C11.4502 17.2252 10.3105 18.0632 9.00012 18.5Z" fill="#54D62C"/><path d="M8.99998 14.5C8.92235 14.5 8.8458 14.4819 8.77637 14.4472C8.70694 14.4125 8.64655 14.362 8.59998 14.2999L7.09998 12.3L7.89997 11.7L8.99998 13.1666L13.1 7.69995L13.9 8.29995L9.39997 14.2999C9.3534 14.362 9.29301 14.4125 9.22358 14.4472C9.15415 14.4819 9.0776 14.5 8.99998 14.5Z" fill="#229A16"/><path d="M3.50012 18H6.00012V19H3.50012V18Z" fill="#FFC107"/><path d="M3.50012 20.0001H7.00012V21.0001H3.50012V20.0001Z" fill="#FFC107"/></svg>