<svg width="32" height="32" viewBox="0 0 32 32" fill="none" xmlns="http://www.w3.org/2000/svg"><path d="M27 18.0086L23.6312 14.3383C23.3836 14.0683 23.0341 13.9146 22.6677 13.9147H18.4855L18.4854 23.9635H20.0851C20.0851 22.6997 21.1097 21.6751 22.3736 21.6751C23.6375 21.6751 24.6621 22.6997 24.6621 23.9635H25.692C26.0389 23.9636 26.3716 23.8258 26.6168 23.5805C26.8621 23.3353 26.9999 23.0026 26.9998 22.6557L27 18.0086Z" fill="#FFC107"/><circle cx="22.3735" cy="23.9635" r="2.28849" fill="#B78103"/><path fill-rule="evenodd" clip-rule="evenodd" d="M18.485 18.0085V23.9635H11.5199C11.5199 22.6995 10.4952 21.6748 9.23118 21.6748C7.96713 21.6748 6.94242 22.6995 6.94242 23.9635H5.30786C4.96098 23.9636 4.62828 23.8258 4.383 23.5805C4.13772 23.3352 3.99994 23.0025 4 22.6556V11.7365C3.99994 11.3896 4.13772 11.0569 4.383 10.8116C4.62828 10.5663 4.96098 10.4285 5.30786 10.4286H6.72659C6.80815 12.7345 8.70112 14.5617 11.0085 14.5617C13.3158 14.5617 15.2088 12.7345 15.2903 10.4286H17.1772C17.8994 10.4286 18.485 11.0142 18.485 11.7365V18.0085Z" fill="#FFE16A"/><path fill-rule="evenodd" clip-rule="evenodd" d="M15.2932 10.2846C15.2932 10.3328 15.2927 10.381 15.2906 10.4286C15.209 12.7345 13.316 14.5617 11.0087 14.5617C8.70133 14.5617 6.80836 12.7345 6.7268 10.4286C6.72466 10.381 6.72412 10.3328 6.72412 10.2846C6.72412 7.91826 8.64238 6 11.0087 6C13.375 6 15.2932 7.91826 15.2932 10.2846Z" fill="#74CAFF" stroke="#74CAFF"/><path fill-rule="evenodd" clip-rule="evenodd" d="M9.23087 21.675C10.4948 21.675 11.5194 22.6996 11.5194 23.9635C11.5194 25.2274 10.4948 26.252 9.23087 26.252C7.96697 26.252 6.94238 25.2274 6.94238 23.9635C6.94241 22.6997 7.96699 21.6751 9.23087 21.675Z" fill="#B78103"/><path fill-rule="evenodd" clip-rule="evenodd" d="M12.4387 11.9984C12.3435 11.9985 12.2519 11.9623 12.1825 11.8971L10.7525 10.5582C10.6768 10.4873 10.6339 10.3882 10.6339 10.2845V7.506C10.6339 7.29895 10.8018 7.1311 11.0088 7.1311C11.2159 7.1311 11.3837 7.29895 11.3837 7.506V10.1223L12.695 11.3501C12.8073 11.4552 12.844 11.6184 12.7874 11.7615C12.7309 11.9046 12.5926 11.9986 12.4387 11.9986L12.4387 11.9984Z" fill="#0C53B7"/></svg>