<svg width="20" height="20" viewBox="0 0 20 20" fill="none" xmlns="http://www.w3.org/2000/svg">
<path d="M13.3 14.7L9.00005 10.4V5.00005H11V9.60005L14.7 13.3L13.3 14.7ZM0.850049 14.075C0.633382 13.5917 0.458382 13.0917 0.325049 12.575C0.191716 12.0584 0.100049 11.5334 0.0500488 11H2.07505C2.12505 11.35 2.19572 11.7 2.28705 12.05C2.37905 12.4 2.49172 12.7417 2.62505 13.075L0.850049 14.075ZM0.0500488 9.00005C0.100049 8.46671 0.191716 7.93738 0.325049 7.41205C0.458382 6.88738 0.641716 6.38338 0.875049 5.90005L2.62505 6.90005C2.49172 7.23338 2.37905 7.57505 2.28705 7.92505C2.19572 8.27505 2.12505 8.63338 2.07505 9.00005H0.0500488ZM4.17505 18.15C3.72505 17.8167 3.30838 17.4541 2.92505 17.062C2.54172 16.6707 2.18338 16.25 1.85005 15.8L3.60005 14.8C3.83338 15.1 4.07938 15.379 4.33805 15.637C4.59605 15.8957 4.87505 16.1417 5.17505 16.375L4.17505 18.15ZM3.62505 5.17505L1.85005 4.17505C2.18338 3.72505 2.54172 3.30838 2.92505 2.92505C3.30838 2.54172 3.72505 2.18338 4.17505 1.85005L5.17505 3.62505C4.89172 3.85838 4.62105 4.10405 4.36305 4.36205C4.10438 4.62072 3.85838 4.89172 3.62505 5.17505ZM9.00005 19.9501C8.46671 19.9001 7.93772 19.8084 7.41305 19.675C6.88772 19.5417 6.38338 19.3584 5.90005 19.125L6.90005 17.375C7.23338 17.5084 7.57505 17.6207 7.92505 17.712C8.27505 17.804 8.63338 17.875 9.00005 17.925V19.9501ZM6.90005 2.62505L5.90005 0.875049C6.38338 0.641716 6.88772 0.458382 7.41305 0.325049C7.93772 0.191716 8.46671 0.100049 9.00005 0.0500488V2.07505C8.63338 2.12505 8.27505 2.19572 7.92505 2.28705C7.57505 2.37905 7.23338 2.49172 6.90005 2.62505ZM11 19.9501V17.925C11.3667 17.875 11.725 17.804 12.075 17.712C12.425 17.6207 12.7667 17.5084 13.1 17.375L14.1 19.125C13.6167 19.3584 13.1127 19.5417 12.588 19.675C12.0627 19.8084 11.5334 19.9001 11 19.9501ZM13.1 2.62505C12.7667 2.49172 12.425 2.37905 12.075 2.28705C11.725 2.19572 11.3667 2.12505 11 2.07505V0.0500488C11.5334 0.100049 12.0627 0.191716 12.588 0.325049C13.1127 0.458382 13.6167 0.641716 14.1 0.875049L13.1 2.62505ZM15.825 18.15L14.825 16.375C15.1084 16.1417 15.3794 15.8957 15.638 15.637C15.896 15.379 16.1417 15.1084 16.375 14.825L18.15 15.825C17.8167 16.275 17.4584 16.6957 17.0751 17.087C16.6917 17.479 16.275 17.8334 15.825 18.15ZM16.375 5.17505C16.1417 4.89172 15.896 4.62072 15.638 4.36205C15.3794 4.10405 15.1084 3.85838 14.825 3.62505L15.825 1.85005C16.275 2.16672 16.6917 2.51672 17.0751 2.90005C17.4584 3.28338 17.8084 3.70005 18.125 4.15005L16.375 5.17505ZM17.925 9.00005C17.875 8.63338 17.8044 8.27505 17.713 7.92505C17.621 7.57505 17.5084 7.23338 17.375 6.90005L19.125 5.87505C19.3417 6.37505 19.521 6.88738 19.663 7.41205C19.8044 7.93738 19.9001 8.46671 19.9501 9.00005H17.925ZM19.125 14.1L17.375 13.1C17.5084 12.7667 17.621 12.425 17.713 12.075C17.8044 11.725 17.875 11.3667 17.925 11H19.9501C19.9001 11.5334 19.8084 12.0624 19.675 12.587C19.5417 13.1124 19.3584 13.6167 19.125 14.1Z" fill="#179B3D"/>
</svg>
