<svg width="38" height="40" viewBox="0 0 38 40" fill="none" xmlns="http://www.w3.org/2000/svg"><path fill-rule="evenodd" clip-rule="evenodd" d="M11.6039 0H4.82008V8.00712C3.39191 9.57296 2.24937 11.3879 1.42817 13.3452C0.499861 15.5872 0 18.0071 0 20.5694C0 23.0961 0.499861 25.5516 1.42817 27.7936C2.39219 30.1068 3.78466 32.2064 5.53417 33.9502C7.28368 35.694 9.35453 37.0819 11.711 38.0427C13.9604 38.968 16.3883 39.4662 18.959 39.4662C21.5297 39.4662 23.9576 38.968 26.207 38.0427C28.5278 37.0819 30.5986 35.694 32.3481 33.9502L28.0993 28.8968C27.9208 29.0747 27.7066 29.2171 27.528 29.395C26.3141 30.3915 24.993 31.21 23.6363 31.7794C22.2081 32.3844 20.6371 32.7046 18.9947 32.7046C17.3523 32.7046 15.7813 32.3844 14.3531 31.7794C12.8536 31.1744 11.5325 30.2847 10.39 29.1459C9.28312 28.0427 8.35481 26.6904 7.74784 25.2313C7.14086 23.8078 6.81953 22.242 6.81953 20.605C6.81953 18.968 7.14086 17.4021 7.74784 15.9787C8.35481 14.484 9.28312 13.1673 10.39 12.0285C11.354 11.0676 13.1749 9.89324 14.3174 9.39502C15.7456 8.82563 17.3166 8.46976 18.959 8.46976C20.6014 8.46976 22.1724 8.79004 23.6006 9.39502C27.2781 10.9253 29.349 13.4164 30.4201 17.1886H10.3185V23.9858H33.9191L37.5967 23.9502C38.6321 18.0071 36.6326 11.5303 32.3481 7.25979C30.5986 5.51602 28.5278 4.12812 26.207 3.16726C23.9576 2.24199 21.5297 1.74377 18.959 1.74377C16.3883 1.74377 13.9604 2.24199 11.711 3.16726L11.6039 3.20285V0Z" fill="url(#paint0_linear_210_20988)"/><defs><linearGradient id="paint0_linear_210_20988" x1="6.41571" y1="-0.930783" x2="28.3286" y2="36.9726" gradientUnits="userSpaceOnUse"><stop stop-color="#179B3D"/><stop offset="0.5479" stop-color="#158337"/><stop offset="1" stop-color="#136C31"/></linearGradient></defs></svg>