<svg width="32" height="32" viewBox="0 0 32 32" fill="none" xmlns="http://www.w3.org/2000/svg">
<path d="M25.4936 8.67419C26.0611 9.40602 26.534 10.2087 26.936 11.0585L16.0119 19.1087L11.4247 16.2286V12.7819L15.9882 15.6384L25.4936 8.67419Z" fill="#21A038"/>
<path d="M6.7665 15.9925C6.7665 15.8272 6.7665 15.6856 6.79015 15.5203L4.02365 15.3787C4.02365 15.5675 4 15.78 4 15.9688C4 19.2739 5.34778 22.272 7.52315 24.4439L9.48571 22.4845C7.8069 20.832 6.7665 18.5421 6.7665 15.9925Z" fill="url(#paint0_linear_180_34640)"/>
<path d="M15.9882 6.78563C16.1537 6.78563 16.2956 6.78563 16.4611 6.80924L16.603 4.04717C16.4138 4.04717 16.201 4.02356 16.0119 4.02356C12.7015 4.02356 9.69856 5.36918 7.52319 7.54107L9.48575 9.50048C11.1409 7.82436 13.4582 6.78563 15.9882 6.78563Z" fill="url(#paint1_linear_180_34640)"/>
<path d="M15.9882 25.1994C15.8227 25.1994 15.6808 25.1994 15.5153 25.1757L15.3734 27.9378C15.5626 27.9378 15.7754 27.9614 15.9645 27.9614C19.2749 27.9614 22.2778 26.6158 24.4532 24.4439L22.4907 22.4845C20.8355 24.1842 18.5419 25.1994 15.9882 25.1994Z" fill="url(#paint2_linear_180_34640)"/>
<path d="M21.1903 8.39098L23.5311 6.66764C21.474 5.01512 18.8494 4 15.9883 4V6.76207C17.9272 6.78568 19.7242 7.37586 21.1903 8.39098Z" fill="url(#paint3_linear_180_34640)"/>
<path d="M28.0001 15.9926C28.0001 15.2608 27.9292 14.5526 27.8109 13.8444L25.2336 15.7566C25.2336 15.8274 25.2336 15.9218 25.2336 15.9926C25.2336 18.7075 24.0513 21.1391 22.1833 22.8152L24.0513 24.869C26.4632 22.6971 28.0001 19.5101 28.0001 15.9926Z" fill="#21A038"/>
<path d="M15.9882 25.1995C13.269 25.1995 10.8335 24.0192 9.15468 22.1542L7.09753 24.0192C9.29655 26.4507 12.465 27.9616 15.9882 27.9616V25.1995Z" fill="url(#paint4_linear_180_34640)"/>
<path d="M9.81675 9.17006L7.94877 7.11621C5.5133 9.3117 4 12.4751 4 15.9926H6.7665C6.7665 13.3014 7.94877 10.8462 9.81675 9.17006Z" fill="url(#paint5_linear_180_34640)"/>
<defs>
<linearGradient id="paint0_linear_180_34640" x1="7.23698" y1="24.1079" x2="4.41348" y2="15.9594" gradientUnits="userSpaceOnUse">
<stop offset="0.1444" stop-color="#F2E913"/>
<stop offset="0.3037" stop-color="#E7E518"/>
<stop offset="0.5823" stop-color="#CADB26"/>
<stop offset="0.891" stop-color="#A3CD39"/>
</linearGradient>
<linearGradient id="paint1_linear_180_34640" x1="8.31179" y1="7.22083" x2="15.4864" y2="4.49109" gradientUnits="userSpaceOnUse">
<stop offset="0.0592" stop-color="#0FA8E0"/>
<stop offset="0.5385" stop-color="#0099F9"/>
<stop offset="0.9234" stop-color="#0291EB"/>
</linearGradient>
<linearGradient id="paint2_linear_180_34640" x1="15.211" y1="25.6053" x2="23.762" y2="23.6758" gradientUnits="userSpaceOnUse">
<stop offset="0.1226" stop-color="#A3CD39"/>
<stop offset="0.2846" stop-color="#86C339"/>
<stop offset="0.8693" stop-color="#21A038"/>
</linearGradient>
<linearGradient id="paint3_linear_180_34640" x1="15.4199" y1="5.76722" x2="22.5311" y2="7.95785" gradientUnits="userSpaceOnUse">
<stop offset="0.0566" stop-color="#0291EB"/>
<stop offset="0.79" stop-color="#0C8ACB"/>
</linearGradient>
<linearGradient id="paint4_linear_180_34640" x1="7.80096" y1="24.4678" x2="15.4371" y2="27.3163" gradientUnits="userSpaceOnUse">
<stop offset="0.1324" stop-color="#F2E913"/>
<stop offset="0.2977" stop-color="#EBE716"/>
<stop offset="0.5306" stop-color="#D9E01F"/>
<stop offset="0.8023" stop-color="#BBD62D"/>
<stop offset="0.9829" stop-color="#A3CD39"/>
</linearGradient>
<linearGradient id="paint5_linear_180_34640" x1="6.10505" y1="16.3262" x2="9.15826" y2="8.39643" gradientUnits="userSpaceOnUse">
<stop offset="0.0698" stop-color="#A3CD39"/>
<stop offset="0.2599" stop-color="#81C55F"/>
<stop offset="0.9216" stop-color="#0FA8E0"/>
</linearGradient>
</defs>
</svg>
