<svg width="691" height="620" viewBox="0 0 691 620" fill="none" xmlns="http://www.w3.org/2000/svg">
<path d="M124.798 511.626L130.996 512.08C130.996 512.08 146.157 514.119 154.811 502.691C163.465 491.263 158.226 467.358 144.095 465.07C129.965 462.781 118.804 504.135 124.798 511.626Z" fill="#2E2E47"/>
<path d="M80.6551 429.301C88.2941 428.955 95.8982 428.059 103.408 426.617C139.279 424.629 210.825 420.379 227.143 428.787C249.015 440.057 360.637 583.159 352.881 592.485C345.126 601.811 341.484 599.881 335.859 597.479C254.255 562.564 207.583 479.639 207.583 479.639C207.583 479.639 98.9355 511.176 67.2513 504.856C35.5671 498.536 22.5402 480.824 19.33 471.898C17.8906 467.893 19.1983 449.196 20.6921 429.033C40.659 430.244 60.6782 430.333 80.6551 429.301Z" fill="#FFD3B5"/>
<path d="M159.724 438.17C146.663 431.553 137.324 426.823 132.935 423.235C127.686 418.926 120.598 394.726 120.598 394.726C120.598 394.726 59.7586 382.73 58.3192 411.398C58.3192 411.398 58.1513 450.291 58.3919 456.084C58.7234 464.134 62.3376 477.197 68.9714 481.773C84.7 492.643 184.388 516.707 184.388 516.707C184.388 516.707 183.301 532.589 182.834 545H238.963C241.86 530.219 243.699 519.986 243.443 518.078C242.878 513.941 243.661 509.293 244.478 504.442C246.53 492.261 248.798 478.792 230.494 468.879C228.141 467.604 222.723 465.535 215.603 462.816C203.124 458.05 185.415 451.288 169.818 443.303C166.248 441.475 162.877 439.768 159.724 438.17Z" fill="#FFD3B5"/>
<path d="M242.059 533.079C242.161 533.083 242.261 533.052 242.343 532.992C242.425 532.932 242.485 532.846 242.513 532.748C242.567 532.539 243.907 527.572 242.513 520.076C240.805 510.877 233.754 484.548 221.726 473.31C216.422 468.357 199.622 471.017 171.779 481.219C151.17 488.779 131.822 497.878 131.641 497.969C131.532 498.02 131.448 498.112 131.407 498.226C131.366 498.339 131.372 498.464 131.423 498.573C131.474 498.682 131.566 498.766 131.679 498.807C131.793 498.847 131.918 498.842 132.027 498.791C132.217 498.7 151.524 489.615 172.097 482.069C199.182 472.139 216.141 469.356 221.086 473.978C232.932 485.029 239.906 511.109 241.596 520.226C242.958 527.49 241.618 532.444 241.596 532.484C241.58 532.542 241.575 532.602 241.583 532.661C241.59 532.72 241.609 532.778 241.639 532.829C241.668 532.881 241.708 532.927 241.755 532.964C241.802 533 241.856 533.027 241.913 533.043L242.059 533.079Z" fill="#2E2E47"/>
<path d="M184.406 517.161H184.443C184.559 517.155 184.669 517.105 184.749 517.02C184.829 516.936 184.874 516.823 184.874 516.707C184.583 510.794 185.109 504.869 186.436 499.099C186.454 499.041 186.46 498.98 186.454 498.919C186.447 498.859 186.429 498.8 186.399 498.747C186.37 498.693 186.33 498.647 186.282 498.609C186.234 498.571 186.179 498.544 186.12 498.528C186.061 498.512 186 498.508 185.939 498.517C185.879 498.525 185.821 498.545 185.769 498.577C185.716 498.608 185.671 498.65 185.635 498.699C185.599 498.748 185.574 498.804 185.56 498.863C184.205 504.723 183.669 510.741 183.966 516.748C183.976 516.859 184.026 516.962 184.107 517.038C184.189 517.114 184.295 517.158 184.406 517.161Z" fill="#2E2E47"/>
<path d="M113.237 311.888L137.534 363.43C137.534 363.43 228.94 420.465 224.4 427.648C219.859 434.831 141.67 426.912 116.788 394.958C91.9055 363.003 78.4518 303.697 88.1823 300.882C97.9127 298.067 106.09 300.614 113.237 311.888Z" fill="#FFD3B5"/>
<path d="M330.909 594.278C330.909 594.278 344.476 601.47 345.125 606.991C345.774 612.512 346.914 614.851 350.22 615.722C353.525 616.594 367.174 614.814 373.486 618.12C379.797 621.425 386.367 616.077 389.264 616.304C392.161 616.531 391.262 613.307 391.262 613.307C391.262 613.307 393.369 613.016 393.274 611.205C393.178 609.393 392.22 609.598 392.22 609.598C392.22 609.598 394.468 607.782 393.959 607.06C393.513 606.554 392.932 606.187 392.284 606.002C392.284 606.002 393.646 605.121 393.437 604.186C393.228 603.25 391.466 602.941 391.466 602.941C391.466 602.941 396.52 599.609 391.807 596.608C391.071 596.154 388.965 598.615 385.732 599.386C382.499 600.158 378.013 599.246 375.261 598.478C369.417 596.857 360.046 594.605 354.097 587.781C347.868 580.635 339.377 570.982 333.869 571.436C328.361 571.89 312.978 575.182 330.909 594.278Z" fill="#FFD3B5"/>
<path d="M44.3614 318.38C37.2645 320.387 27.03 320.65 18.3212 320.414C18.2213 307.22 19.6605 295.084 24.2782 285.785C41.1601 251.819 73.8115 257.24 85.9031 272.023C90.0123 277.05 99.1388 282.988 105.904 288.369C99.2523 290.848 84.8271 296.264 79.6645 298.494C72.8672 301.436 59.0956 314.221 44.3614 318.38Z" fill="#FFD3B5"/>
<path d="M23.1521 375.788C22.8842 373.023 22.5799 370.19 22.2439 367.316C21.581 361.359 20.8546 355.207 20.2053 349.01C19.1928 339.37 18.3891 329.636 18.3029 320.405C27.0117 320.655 38.4858 311.148 45.5827 309.145C60.3169 304.986 72.5038 294.185 79.3056 291.247C84.4637 289.018 100.279 281.685 105.886 288.364C109.301 291.088 112.116 293.649 113.378 295.892C120.643 308.796 115.408 317.786 114.563 327.275C113.655 337.264 113.514 353.277 114.286 358.149C115.841 367.906 117.885 377.579 120.411 387.13C127.563 396.978 134.06 401.205 134.119 401.205C152.037 407.625 166.498 419.648 171.829 423.743C163.751 429.301 148.672 439.871 139.504 459.031C131.259 476.284 130.373 497.701 130.977 512.067C100.655 509.855 62.2738 506.164 49.7009 501.015C27.8744 492.076 19.1473 484.18 16.8589 464.434C14.5704 444.688 23.0158 393.982 23.0476 393.782C23.4427 386.159 23.5425 379.775 23.1521 375.788Z" fill="white"/>
<path d="M27.507 280.055C27.507 280.055 18.3169 287.384 10.2528 316.782C4.50443 337.709 -14.9611 415.112 22.308 416.67C57.4339 418.122 85.7264 304.019 89.7675 302.358C93.8087 300.696 94.9665 298.78 102.322 292.214C109.678 285.649 106.863 283.588 96.7055 282.68C86.5482 281.772 84.2461 284.755 73.0944 293.068C62.0926 301.277 38.8221 338.208 38.8221 338.208C38.8221 338.208 50.1735 302.43 47.8669 292.21C45.5603 281.99 38.5361 275.229 27.507 280.055Z" fill="#FFD3B5"/>
<path d="M18.3165 392.942C18.4215 392.944 18.5242 392.91 18.6069 392.846C18.6897 392.781 18.7475 392.69 18.7706 392.588C25.536 362.867 39.0942 338.676 39.2305 338.435C39.2907 338.33 39.3067 338.206 39.2752 338.089C39.2437 337.973 39.1672 337.873 39.0624 337.813C38.9576 337.753 38.8334 337.737 38.7168 337.768C38.6001 337.8 38.5007 337.876 38.4405 337.981C38.2998 338.222 24.6825 362.499 17.8853 392.379C17.8718 392.437 17.8699 392.497 17.8797 392.556C17.8896 392.615 17.9109 392.671 17.9425 392.722C17.9741 392.772 18.0154 392.816 18.064 392.851C18.1126 392.885 18.1677 392.91 18.2258 392.924C18.2553 392.933 18.2856 392.939 18.3165 392.942Z" fill="#2E2E47"/>
<path d="M64.8576 218.593C64.8576 218.593 70.8466 237.422 70.0611 244.264C69.2755 251.106 67.028 259.751 68.3539 259.992C74.4314 260.877 80.633 259.807 86.0622 256.936C88.169 255.828 86.0622 252.804 86.8568 252.482C87.3108 252.3 89.2997 255.66 89.7492 255.469C93.4927 253.821 97.0285 251.736 100.283 249.258C100.283 249.258 87.8739 219.292 85.2086 211.192C82.4661 202.783 66.8418 210.575 64.8576 218.593Z" fill="#82664B"/>
<path d="M79.5555 273.218C77.8906 270.986 76.3738 268.647 75.015 266.216C67.137 254.92 73.6754 233.894 73.6754 233.894C73.6754 233.894 56.5938 229.294 57.2521 241.667C57.6245 248.627 52.2939 256.577 45.651 263.996C48.3118 272.868 81.6124 281.25 79.5555 273.218Z" fill="#FFD3B5"/>
<path d="M69.5255 253.699C64.7897 251.642 60.5623 245.903 60.5623 245.903L71.2734 247.492C71.1032 249.773 71.1032 252.063 71.2734 254.344C70.6802 254.158 70.0969 253.943 69.5255 253.699Z" fill="#2E2E47"/>
<path d="M49.7644 237.521C48.9599 237.717 48.1234 237.744 47.3081 237.599C46.4929 237.454 45.7166 237.142 45.0285 236.682C43.0897 235.438 42.1316 230.498 43.4666 228.668C44.8015 226.838 46.8676 226.516 47.3125 226.307C47.7575 226.098 44.7879 217.708 46.586 212.037C48.3841 206.366 52.7158 200.572 61.2385 199.637C69.7611 198.702 74.8102 202.556 78.2202 205.639C81.6302 208.722 83.1876 216.037 84.0957 219.501C85.0038 222.965 86.0255 223.846 87.0063 225.612C89.2766 229.698 90.4071 232.659 89.9621 237.821C89.5171 242.984 85.2082 248.782 77.0079 250.139C68.8076 251.497 54.9634 249.921 49.7644 237.521Z" fill="#FFD3B5"/>
<path d="M33.8771 246.198C36.8512 239.842 37.0828 217.421 37.0828 217.421C41.6779 210.329 63.4181 208.25 59.9309 216.173C56.4438 224.096 63.6543 260.932 63.6543 260.932C55.8672 263.928 43.1263 260.841 43.1263 260.841C43.1263 260.841 44.1344 258.57 43.9391 257.926C43.7439 257.281 41.9321 259.801 41.1057 260.487C40.2793 261.172 29.8906 258.216 28.5739 257.59C27.2571 256.963 30.903 252.536 33.8771 246.198Z" fill="#82664B"/>
<path d="M78.5749 231.959H78.684C80.0462 231.673 81.0587 230.933 81.4084 229.921C81.758 228.908 81.372 227.61 80.2459 226.448C77.4716 223.583 76.0685 221.735 75.9368 221.226L75.9142 221.172C75.9142 221.172 75.0062 219.056 75.8053 217.703C76.0286 217.384 76.32 217.119 76.6585 216.926C76.997 216.734 77.3738 216.619 77.7621 216.591C79.7555 216.136 82.8204 215.682 83.4651 215.991C83.5657 216.041 83.6813 216.052 83.7895 216.022C83.8977 215.992 83.9908 215.923 84.0509 215.828C84.0767 215.781 84.0923 215.73 84.0968 215.677C84.1013 215.624 84.0946 215.571 84.0771 215.52C84.0595 215.47 84.0314 215.424 83.9948 215.386C83.9582 215.347 83.914 215.317 83.8649 215.296C82.6979 214.738 78.416 215.632 77.5806 215.819C77.0725 215.863 76.581 216.021 76.1423 216.281C75.7037 216.541 75.3293 216.897 75.0469 217.321C74.0752 218.929 74.9788 221.154 75.1014 221.435C75.4647 222.652 78.9064 226.252 79.5966 226.965C80.5047 227.914 80.8633 228.877 80.5818 229.689C80.323 230.425 79.5604 230.979 78.4842 231.197C78.3814 231.215 78.2897 231.272 78.2293 231.357C78.1689 231.442 78.1448 231.548 78.1619 231.651C78.1913 231.738 78.2466 231.814 78.3204 231.869C78.3942 231.925 78.4829 231.956 78.5749 231.959Z" fill="#2E2E47"/>
<path d="M61.4245 220.087C61.5212 220.091 61.6167 220.064 61.697 220.01C63.619 218.809 65.7618 218.004 67.9993 217.644C68.0523 217.638 68.1037 217.621 68.1502 217.595C68.1968 217.568 68.2376 217.533 68.2702 217.491C68.3028 217.448 68.3265 217.4 68.34 217.348C68.3536 217.297 68.3565 217.243 68.3489 217.19C68.3239 217.082 68.2579 216.988 68.1647 216.927C68.0714 216.867 67.9584 216.846 67.8496 216.868C65.4763 217.239 63.2044 218.093 61.1749 219.378C61.1304 219.407 61.0927 219.444 61.064 219.488C61.0353 219.532 61.0163 219.582 61.0086 219.634C61.0008 219.686 61.0044 219.74 61.019 219.79C61.0336 219.841 61.0588 219.888 61.0931 219.928C61.1342 219.976 61.185 220.015 61.242 220.042C61.2991 220.07 61.3612 220.085 61.4245 220.087Z" fill="#2E2E47"/>
<path d="M83.5511 232.859C83.5511 232.859 84.3686 237.512 79.324 238.834C74.2794 240.155 69.3982 235.356 69.3982 235.356L83.5511 232.859Z" fill="white"/>
<path d="M68.9397 226.67C68.9397 226.67 63.0369 226.361 61.8473 228.486C60.6576 230.611 67.2187 230.947 70.2201 229.848C73.2214 228.75 70.4154 226.679 68.9397 226.67Z" fill="#FFA982"/>
<path d="M85.9576 223.96C85.9576 223.96 81.7122 223.864 81.2536 225.98C80.795 228.096 85.5217 228.187 87.4515 227.015C89.3812 225.844 87.0065 223.914 85.9576 223.96Z" fill="#FFA982"/>
<path d="M63.6637 224.259H63.7227C63.8498 224.259 66.8466 223.846 68.2633 223.242C68.8744 222.976 69.5005 222.745 70.1385 222.552C70.2547 222.52 70.3536 222.443 70.4132 222.339C70.4728 222.234 70.4883 222.11 70.4564 221.994C70.4245 221.877 70.3477 221.779 70.2429 221.719C70.1382 221.659 70.0142 221.644 69.8979 221.676C69.2193 221.879 68.5536 222.123 67.9046 222.407C66.615 222.961 63.6411 223.356 63.6138 223.36C63.4934 223.368 63.3811 223.423 63.3015 223.514C63.2218 223.605 63.1815 223.723 63.1893 223.844C63.1971 223.964 63.2525 224.077 63.3431 224.156C63.4338 224.236 63.5524 224.276 63.6728 224.268L63.6637 224.259Z" fill="#2E2E47"/>
<path d="M66.0064 223.392C66.0064 223.392 65.6477 225.662 68.304 225.662C70.9602 225.662 69.3165 222.03 69.3165 222.03C69.3165 222.03 67.1052 223.428 66.0064 223.392Z" fill="#2E2E47"/>
<path d="M76.5633 220.718H76.6131C76.7267 220.718 79.3647 220.409 80.5952 219.855C81.1157 219.615 81.651 219.409 82.198 219.238C82.2601 219.226 82.3193 219.202 82.3716 219.167C82.4239 219.132 82.4681 219.086 82.5017 219.033C82.5353 218.979 82.5573 218.919 82.5665 218.857C82.5756 218.795 82.5717 218.731 82.5549 218.67C82.5381 218.609 82.509 218.553 82.4691 218.504C82.4292 218.455 82.3795 218.415 82.3232 218.386C82.267 218.358 82.2055 218.341 82.1425 218.337C82.0796 218.334 82.0165 218.344 81.9574 218.366C81.3626 218.543 80.7813 218.763 80.2183 219.024C79.1195 219.524 76.5404 219.814 76.5132 219.814C76.3927 219.821 76.2799 219.875 76.1994 219.965C76.119 220.055 76.0775 220.173 76.0842 220.293C76.0908 220.414 76.1451 220.527 76.2349 220.607C76.3247 220.687 76.4428 220.729 76.5633 220.722V220.718Z" fill="#2E2E47"/>
<path d="M79.1012 219.914C79.1012 219.914 78.8651 222.153 81.199 222.225C83.5328 222.298 81.9617 218.652 81.9617 218.652C81.9617 218.652 80.0547 219.987 79.1012 219.914Z" fill="#2E2E47"/>
<path d="M75.2231 205.88C75.2231 205.88 71.6907 211.033 60.7751 215.092C49.8595 219.151 40.3424 219.047 37.0732 218.025C33.8039 217.004 34.8528 209.262 41.6137 202.134C48.3747 195.006 52.6247 194.089 59.1859 195.269C65.747 196.45 72.8666 201.439 75.2231 205.88Z" fill="#82664B"/>
<path d="M73.6895 206.22C73.6895 206.22 82.0168 210.729 84.1009 209.567C86.1851 208.404 79.8647 197.639 74.6067 195.428C65.8298 191.741 61.4391 193.158 58.1835 195.428C54.9279 197.698 72.3319 205.521 73.6895 206.22Z" fill="#82664B"/>
<path d="M52.0671 197.544C52.0671 197.544 48.3802 185.662 41.9235 187.814C35.4668 189.966 35.367 194.266 37.3149 197.544C39.2628 200.822 48.3801 203.9 50.2236 203.487C52.0671 203.074 53.1977 199.183 52.0671 197.544Z" fill="#82664B"/>
<path d="M32.8788 493.006C32.952 493.006 33.0239 492.988 33.0888 492.954C33.1536 492.92 33.2093 492.871 33.2511 492.811C33.32 492.713 33.3473 492.591 33.3269 492.473C33.3065 492.355 33.2399 492.249 33.142 492.18C19.0662 482.359 18.1991 470.522 17.1003 455.535L16.9777 453.855C15.8198 438.345 20.156 416.974 20.206 416.76C20.2179 416.702 20.2182 416.642 20.2069 416.583C20.1955 416.525 20.1728 416.469 20.1399 416.419C20.107 416.369 20.0645 416.327 20.0151 416.293C19.9657 416.26 19.9101 416.237 19.8517 416.225C19.7343 416.2 19.6122 416.224 19.5118 416.289C19.4114 416.354 19.3411 416.457 19.316 416.574C19.2706 416.792 14.9072 438.286 16.0696 453.923L16.1922 455.603C17.3092 470.831 18.1899 482.845 32.6199 492.924C32.6958 492.977 32.7862 493.006 32.8788 493.006Z" fill="#2E2E47"/>
<path d="M45.6375 421.959C46.8588 421.852 48.0487 421.513 49.1429 420.96C51.4853 419.852 53.5974 418.312 55.368 416.42C58.9665 412.695 63.1168 409.547 67.6731 407.085C67.7283 407.06 67.7779 407.023 67.8189 406.978C67.8599 406.934 67.8914 406.881 67.9116 406.824C67.9319 406.766 67.9404 406.705 67.9367 406.645C67.933 406.584 67.9172 406.525 67.8901 406.47C67.863 406.416 67.8252 406.367 67.779 406.328C67.7329 406.288 67.6793 406.258 67.6214 406.24C67.5635 406.221 67.5024 406.215 67.4418 406.22C67.3813 406.226 67.3225 406.244 67.2689 406.272C62.6087 408.773 58.3705 411.99 54.7096 415.807C51.1997 419.489 47.4719 420.847 45.9962 421.037C47.1307 420.04 48.2001 418.971 49.1975 417.836C54.1376 412.583 63.3367 402.794 74.9061 397.264C90.0943 390 119.131 387.498 119.404 387.475C119.463 387.471 119.522 387.454 119.575 387.427C119.629 387.4 119.676 387.362 119.715 387.317C119.754 387.271 119.783 387.219 119.801 387.162C119.82 387.105 119.827 387.044 119.822 386.985C119.817 386.925 119.801 386.867 119.774 386.814C119.746 386.76 119.709 386.713 119.663 386.674C119.618 386.635 119.565 386.606 119.508 386.587C119.451 386.569 119.391 386.562 119.331 386.567C119.036 386.594 89.8174 389.119 74.4975 396.447C62.7737 402.05 53.4974 411.916 48.5164 417.214C47.0316 418.794 45.8601 420.043 45.338 420.393C45.011 420.601 44.5841 420.937 44.6431 421.378C44.662 421.503 44.7179 421.621 44.8036 421.715C44.8894 421.808 45.001 421.874 45.1245 421.905C45.2913 421.951 45.4646 421.969 45.6375 421.959Z" fill="#2E2E47"/>
<path d="M36.1885 481.596C36.2645 481.597 36.3395 481.578 36.4064 481.542C36.4586 481.513 36.5045 481.474 36.5417 481.427C36.5788 481.381 36.6064 481.327 36.6228 481.27C36.6393 481.212 36.6442 481.152 36.6374 481.093C36.6307 481.034 36.6123 480.977 36.5833 480.924C36.2201 480.271 36.5835 477.696 40.2659 472.202C44.584 465.751 52.2439 457.119 62.4239 447.231C85.767 424.602 130.592 404.86 131.041 404.66C131.099 404.639 131.152 404.605 131.196 404.563C131.24 404.52 131.276 404.469 131.3 404.412C131.324 404.355 131.336 404.294 131.335 404.233C131.335 404.171 131.322 404.11 131.298 404.053C131.273 403.997 131.237 403.946 131.192 403.904C131.147 403.862 131.094 403.829 131.036 403.808C130.978 403.787 130.916 403.778 130.855 403.782C130.793 403.786 130.733 403.802 130.678 403.829C130.224 404.029 85.2493 423.834 61.7927 446.581C38.5449 469.124 34.5083 479.04 35.7887 481.347C35.8261 481.421 35.8832 481.483 35.9537 481.527C36.0241 481.571 36.1054 481.595 36.1885 481.596Z" fill="#2E2E47"/>
<path d="M116.697 315.879C116.807 315.88 116.913 315.841 116.997 315.771C117.08 315.7 117.135 315.601 117.151 315.493C117.201 315.166 118.337 307.447 116.275 301.181C114.214 294.916 107.707 288.237 105.995 287.924C105.936 287.913 105.875 287.913 105.817 287.926C105.758 287.938 105.702 287.962 105.653 287.997C105.603 288.031 105.561 288.075 105.529 288.125C105.496 288.176 105.474 288.232 105.464 288.292C105.453 288.35 105.455 288.411 105.467 288.469C105.48 288.527 105.504 288.582 105.539 288.631C105.573 288.68 105.616 288.722 105.667 288.754C105.717 288.786 105.773 288.808 105.832 288.818C106.926 289.018 113.36 295.216 115.412 301.463C117.406 307.529 116.266 315.279 116.257 315.357C116.248 315.416 116.251 315.476 116.265 315.534C116.279 315.592 116.305 315.646 116.34 315.694C116.376 315.742 116.42 315.783 116.471 315.814C116.522 315.845 116.579 315.865 116.638 315.874L116.697 315.879Z" fill="#2E2E47"/>
<path d="M140.91 215.435L140.887 215.475C140.837 215.583 140.832 215.707 140.873 215.82C140.914 215.932 140.998 216.023 141.106 216.074C141.232 216.147 154.35 222.346 155.958 234.596C157.565 246.846 150.246 254.379 150.184 254.485C150.099 254.57 150.052 254.685 150.052 254.805C150.052 254.925 150.1 255.04 150.185 255.125C150.27 255.21 150.385 255.257 150.505 255.257C150.626 255.257 150.741 255.209 150.826 255.125C150.904 255.044 158.532 247.207 156.864 234.482C155.197 221.756 141.629 215.318 141.493 215.254C141.391 215.207 141.274 215.199 141.166 215.232C141.059 215.266 140.967 215.338 140.91 215.435Z" fill="white"/>
<path d="M185.139 189.161C185.125 189.271 185.151 189.382 185.213 189.473C185.28 189.573 185.384 189.642 185.502 189.665C185.62 189.688 185.743 189.664 185.842 189.597C185.887 189.571 188.345 187.973 192.078 188.837C196.675 189.895 201.308 194.273 205.48 201.467C209.839 208.983 210.537 216.131 207.559 222.711C206.216 225.68 204.224 228.31 201.728 230.406C201.676 230.44 201.631 230.484 201.596 230.536C201.561 230.588 201.538 230.647 201.527 230.709C201.516 230.77 201.518 230.833 201.532 230.894C201.547 230.955 201.574 231.012 201.612 231.062C201.65 231.112 201.697 231.154 201.752 231.184C201.806 231.215 201.867 231.234 201.929 231.24C201.991 231.246 202.054 231.239 202.114 231.22C202.173 231.201 202.228 231.169 202.275 231.128C202.427 231.015 217.063 219.625 206.263 201.011C201.894 193.471 197.18 189.077 192.255 187.944C188.124 187.001 185.448 188.767 185.337 188.844C185.283 188.88 185.238 188.927 185.204 188.981C185.17 189.036 185.148 189.098 185.139 189.161Z" fill="white"/>
<path d="M161.326 195.991C161.422 195.991 161.515 195.962 161.592 195.906C161.669 195.851 161.727 195.772 161.758 195.682C163.186 190.952 163.851 186.024 163.728 181.085C163.315 170.86 158.57 163.886 149.998 160.917C139.291 157.203 131.136 158.383 126.178 160.009C123.353 160.9 120.707 162.283 118.364 164.095C117.614 162.206 114.767 156.799 106.045 153.879C100.596 152.063 94.2711 153.702 89.9439 155.414C87.1093 156.536 84.3905 157.93 81.8254 159.577C81.7254 159.645 81.6564 159.749 81.6334 159.868C81.6104 159.986 81.6354 160.109 81.7028 160.209C81.7702 160.308 81.8746 160.378 81.993 160.401C82.1114 160.424 82.234 160.399 82.334 160.331C84.851 158.716 87.5181 157.347 90.2982 156.245C94.4755 154.597 100.551 152.999 105.759 154.738C115.748 158.079 117.7 164.917 117.719 164.985C117.738 165.061 117.778 165.131 117.833 165.188C117.888 165.244 117.956 165.285 118.032 165.307C118.111 165.332 118.194 165.335 118.274 165.316C118.354 165.297 118.427 165.256 118.486 165.198C118.595 165.094 129.747 154.824 149.721 161.748C158.025 164.626 162.434 171.137 162.838 181.094C162.96 185.924 162.311 190.743 160.913 195.369C160.876 195.483 160.885 195.607 160.938 195.714C160.992 195.821 161.086 195.903 161.199 195.941C161.239 195.965 161.281 195.982 161.326 195.991Z" fill="white"/>
<path d="M165.445 297.574C165.393 297.629 165.355 297.696 165.334 297.769C165.318 297.826 165.313 297.887 165.321 297.946C165.328 298.005 165.348 298.063 165.377 298.115C165.407 298.166 165.447 298.212 165.494 298.248C165.542 298.285 165.596 298.312 165.653 298.327C167.646 298.965 169.503 299.967 171.13 301.282C174.57 304.116 175.981 307.822 175.307 312.315C174.884 315.432 173.704 318.398 171.87 320.954C170.036 323.509 167.603 325.576 164.786 326.974C164.73 326.997 164.68 327.03 164.638 327.072C164.596 327.114 164.562 327.164 164.539 327.219C164.516 327.274 164.504 327.333 164.504 327.393C164.504 327.453 164.515 327.512 164.538 327.567C164.561 327.622 164.594 327.672 164.636 327.715C164.678 327.757 164.728 327.791 164.783 327.814C164.838 327.837 164.897 327.849 164.957 327.849C165.016 327.849 165.075 327.837 165.131 327.815C168.093 326.356 170.652 324.193 172.583 321.514C174.514 318.835 175.757 315.722 176.203 312.451C177.924 300.928 166.018 297.488 165.895 297.452C165.816 297.43 165.733 297.429 165.653 297.451C165.574 297.472 165.502 297.515 165.445 297.574Z" fill="white"/>
<path d="M215.41 418.367C215.41 418.367 232.446 425.991 238.776 432.969C245.105 439.948 239.397 437.668 235.365 435.725C230.988 433.618 223.714 429.16 219.632 429.577C215.55 429.995 228.141 436.493 228.75 438.626C229.358 440.76 227.256 441.727 225.635 440.265C224.014 438.803 217.843 435.076 214.601 433.618C211.359 432.161 200.648 427.289 201.134 423.071C201.62 418.853 210.547 417.732 215.41 418.367Z" fill="#FFD3B5"/>
<path d="M199.549 425.687C199.664 425.687 199.774 425.644 199.858 425.567C199.942 425.489 199.994 425.383 200.003 425.269C200.013 425.149 199.975 425.03 199.898 424.938C199.821 424.846 199.71 424.789 199.59 424.779C192.198 424.134 172.051 424.025 171.847 424.025C171.727 424.025 171.611 424.073 171.526 424.158C171.441 424.243 171.393 424.358 171.393 424.479C171.393 424.599 171.441 424.715 171.526 424.8C171.611 424.885 171.727 424.933 171.847 424.933C172.051 424.933 192.162 425.042 199.513 425.682L199.549 425.687Z" fill="#2E2E47"/>
<path d="M125.37 371.952C125.459 371.952 125.546 371.925 125.62 371.876C125.695 371.827 125.753 371.757 125.788 371.675C128.258 365.963 137.539 363.884 137.63 363.861C137.691 363.852 137.751 363.831 137.804 363.798C137.857 363.766 137.903 363.722 137.939 363.671C137.975 363.62 137.999 363.562 138.012 363.501C138.024 363.44 138.024 363.377 138.01 363.316C137.997 363.255 137.972 363.197 137.935 363.146C137.899 363.096 137.852 363.053 137.799 363.021C137.745 362.989 137.685 362.969 137.624 362.961C137.562 362.953 137.499 362.958 137.439 362.975C137.039 363.062 127.613 365.168 124.952 371.316C124.928 371.371 124.915 371.43 124.914 371.49C124.913 371.55 124.924 371.609 124.946 371.665C124.968 371.721 125 371.771 125.042 371.814C125.084 371.857 125.133 371.892 125.188 371.915C125.246 371.938 125.308 371.951 125.37 371.952Z" fill="#2E2E47"/>
<path d="M517.109 145.454C517.109 145.454 522.889 137.909 527.555 136.573C532.222 135.236 537.045 137.072 537.673 137.685C538.3 138.298 540.422 141.58 538.184 144.079C535.945 146.578 531.517 147.788 529.555 149.577C527.594 151.366 520.689 154.034 519.278 151.772C517.867 149.509 517.109 145.454 517.109 145.454Z" fill="#FFD3B5"/>
<path d="M547.464 148.964C547.464 148.964 456.732 182.6 451.682 200.987C446.632 219.375 466.435 228.142 482.825 222.769C494.783 218.842 539.496 183.235 547.464 148.964Z" fill="#FFD3B5"/>
<path d="M452.757 197.834C452.757 197.834 463.478 186.566 477.167 174.766C495.845 158.66 519.8 140.94 527.233 143.744C532.049 145.562 526.608 155.308 519.863 167.782C508.567 188.653 490.286 218.127 474.436 221.632C449.122 227.215 448.768 204.105 452.757 197.834Z" fill="#FFD3B5"/>
<path d="M546.419 144.635C546.419 144.635 539.7 145.615 535.22 146.703C530.741 147.791 524.127 150.461 522.179 147.861C520.232 145.26 520.463 143.111 522.044 142.293C523.624 141.475 543.437 140.221 545.271 139.797C547.104 139.373 546.419 144.635 546.419 144.635Z" fill="#686634"/>
<path d="M546.544 146.543C546.544 146.543 539.949 148.345 535.623 149.995C531.297 151.645 525.029 155.181 522.711 152.708C520.393 150.236 520.292 148.012 521.762 146.984C523.232 145.957 542.92 142.324 544.682 141.665C546.443 141.007 546.544 146.543 546.544 146.543Z" fill="#515032"/>
<path d="M654.712 100.087C654.712 100.087 670.405 93.7111 670.721 86.9166C671.037 80.122 654.152 86.9166 654.152 86.9166C654.152 86.9166 658.538 80.7739 655.079 76.3331C651.62 71.8923 638.228 85.3418 638.228 85.3418C638.228 85.3418 643.106 79.7749 638.346 77.1291C633.586 74.4832 622.169 87.2383 622.169 87.2383C622.169 87.2383 625.742 79.6183 621.782 77.5609C617.822 75.5035 596.661 93.0254 596.661 93.0254C596.661 93.0254 601.59 81.1973 595.819 79.94C590.047 78.6827 541.475 137.116 545.911 140.477C550.347 143.838 646.35 106.72 654.712 100.087Z" fill="#686634"/>
<path d="M574.107 117.992C574.107 117.992 598.807 88.1028 606.919 91.8379C613.582 94.9086 606.027 103.158 603.116 106.012C607.62 101.812 625.238 85.7775 627.985 89.2443C631.137 93.2221 621.322 102.647 621.322 102.647C621.322 102.647 646.782 82.6599 647.492 89.8703C648.202 97.0807 639.494 101.944 639.494 101.944C639.494 101.944 671.431 90.4453 676.606 100.305C681.782 110.164 649.224 114.683 649.224 114.683C649.224 114.683 663.344 116.915 665.199 123.141C667.054 129.368 647.576 124.534 647.576 124.534C647.576 124.534 665.427 134.129 655.021 138.371C649.765 140.501 644.002 138.337 639.587 135.65C639.891 136.536 639.696 137.422 638.653 138.231C636.012 140.284 629.78 139.257 625.188 138.086C627.478 139.112 630.004 140.726 631.775 143.231C635.835 148.985 624.338 150.918 610.147 151.706C604.893 151.953 599.632 151.459 594.514 150.241C598.401 152.008 602.068 154.44 602.879 157.541C604.743 164.662 598.232 161.263 588.278 159.07C578.323 156.876 565.547 153.273 565.547 153.273C554.959 154.291 537.848 145.335 540.353 142.962C542.859 140.59 572.231 103.082 576.515 105.168C580.799 107.255 574.107 117.992 574.107 117.992Z" fill="#515032"/>
<path d="M499.992 259.074C499.992 259.074 478.956 432.789 475.618 475.168C474.262 492.383 472.762 518.394 471.377 545.108H510.507C514.388 528.645 518.377 511.651 522.232 495.229C535.385 439.204 546.975 389.833 547.344 390.889C553.782 409.173 580.114 481.728 603.466 545.108H645.267C634.254 468.105 620.849 373.768 620.2 366.275L620.193 366.198C619.935 363.17 617.672 336.655 614.39 262.498C612.66 223.399 607.04 181.27 598.851 166.044C593.337 155.784 566.786 141.896 549.673 147.49C539.26 150.893 528.501 165.133 525.624 170.693C509.523 201.841 499.992 259.074 499.992 259.074Z" fill="#FFD3B5"/>
<path d="M549.628 99.3424L544.718 100.896C544.718 100.896 544.154 106.714 550.496 111.35C556.838 115.986 583.338 136.254 586.25 131.779C589.162 127.304 583.951 112.269 567.939 105.528C551.928 98.7877 549.628 99.3424 549.628 99.3424Z" fill="#2E2E47"/>
<path d="M576.9 129.089C576.9 129.089 574.498 146.358 576.042 153.939C576.042 153.939 568.712 159.201 562.745 157.968C556.779 156.736 557.624 150.029 557.624 150.029C557.624 150.029 563.539 139.289 565.538 132.815C567.537 126.342 575.853 127.445 576.9 129.089Z" fill="#FFD3B5"/>
<path d="M563.658 136.096C562.683 138.513 561.483 141.113 560.342 143.449C565.604 143.172 574.14 136.44 574.14 136.44L563.658 136.096Z" fill="#2E2E47"/>
<path d="M585.616 112.199C586.132 112.922 587.252 113.269 588.595 114.291C590.945 116.068 589.355 120.052 587.612 122.303C585.87 124.554 580.579 124.113 580.579 124.113C580.579 124.113 582.299 120.235 582.553 119.21C584.128 112.775 585.062 113.76 585.616 112.199Z" fill="#FFA982"/>
<path d="M548.48 105.818C550.476 101.674 551.405 93.3771 557.694 88.0274C563.983 82.6777 580.573 86.5988 584.991 93.8276C589.409 101.056 585.228 109.74 585.228 109.74C584.954 110.542 585.016 112.288 585.203 112.541C584.373 114.746 582.714 119.645 582.411 120.812C581.938 122.64 577.404 133.116 575.458 135.167C570.708 140.182 555.794 142.113 547.899 135.729C534.62 124.995 547.568 107.71 548.48 105.818Z" fill="#FFD3B5"/>
<path d="M544.776 110.21C544.354 111.774 545.838 113.725 548.087 114.57C550.336 115.415 552.494 114.827 552.913 113.263C553.331 111.699 551.851 109.748 549.602 108.908C547.353 108.067 545.195 108.646 544.776 110.21Z" fill="#F2836D"/>
<path d="M562.26 115.662C561.776 117.203 563.613 119.169 566.362 120.048C569.112 120.927 571.735 120.392 572.222 118.851C572.71 117.309 570.869 115.339 568.115 114.46C565.362 113.581 562.743 114.116 562.26 115.662Z" fill="#F2836D"/>
<path d="M556.828 117.714H556.958C557.074 117.708 557.183 117.659 557.26 117.577C557.338 117.496 557.378 117.388 557.373 117.278C557.367 117.168 557.315 117.064 557.229 116.991C557.144 116.917 557.03 116.878 556.915 116.884C555.942 116.934 554.163 116.112 553.426 114.216C553.32 113.944 553.282 113.653 553.315 113.365C553.347 113.077 553.449 112.8 553.613 112.556C554.048 112.35 554.504 112.187 554.974 112.071C556.963 111.465 559.963 110.552 560.229 108.062C560.665 103.863 559.863 101.838 557.421 101.087C555.531 100.481 553.543 100.2 551.55 100.258C551.435 100.265 551.327 100.316 551.251 100.4C551.175 100.483 551.137 100.592 551.145 100.702C551.153 100.812 551.207 100.914 551.294 100.986C551.382 101.059 551.496 101.095 551.611 101.087C553.492 101.045 555.366 101.313 557.15 101.88C558.812 102.39 559.824 103.623 559.361 107.975C559.152 109.929 556.479 110.743 554.708 111.295C553.613 111.627 553.077 111.801 552.863 112.149C552.632 112.501 552.489 112.898 552.444 113.31C552.399 113.722 552.455 114.138 552.606 114.527C553.404 116.539 555.349 117.714 556.828 117.714Z" fill="#2E2E47"/>
<path d="M573.734 108.523C573.788 108.522 573.841 108.511 573.89 108.488C573.94 108.466 573.985 108.434 574.022 108.393C574.098 108.312 574.14 108.202 574.14 108.088C574.14 107.973 574.098 107.864 574.022 107.783C573.876 107.627 570.373 103.954 567.3 103.024C567.196 102.993 567.085 103.007 566.99 103.063C566.896 103.119 566.826 103.212 566.797 103.323C566.767 103.434 566.78 103.552 566.833 103.653C566.885 103.754 566.973 103.828 567.077 103.859C569.939 104.724 573.418 108.358 573.455 108.393C573.528 108.473 573.629 108.52 573.734 108.523Z" fill="#2E2E47"/>
<path d="M570.941 112.199C570.991 112.198 571.041 112.189 571.088 112.172C571.196 112.133 571.285 112.053 571.336 111.95C571.386 111.846 571.395 111.727 571.359 111.618C571.297 111.436 570.653 109.812 566.65 108.743L565.473 108.53C565.415 108.519 565.355 108.52 565.297 108.533C565.239 108.545 565.184 108.569 565.136 108.603C565.087 108.637 565.045 108.68 565.013 108.73C564.981 108.779 564.96 108.835 564.949 108.893C564.939 108.952 564.94 109.011 564.952 109.069C564.965 109.127 564.989 109.182 565.023 109.231C565.056 109.279 565.1 109.321 565.149 109.353C565.199 109.385 565.255 109.406 565.313 109.417L566.455 109.625C569.951 110.562 570.515 111.915 570.519 111.928C570.554 112.01 570.613 112.08 570.689 112.129C570.764 112.177 570.852 112.201 570.941 112.199Z" fill="#2E2E47"/>
<path d="M556.217 106.678C556.262 106.686 556.307 106.686 556.352 106.678C556.462 106.635 556.554 106.542 556.609 106.418C556.664 106.294 556.678 106.149 556.647 106.013C556.593 105.795 556.025 103.865 552.621 103.102H552.577L551.628 103.01C551.57 103.004 551.511 103.012 551.455 103.034C551.398 103.057 551.347 103.092 551.302 103.138C551.257 103.185 551.22 103.242 551.193 103.306C551.166 103.37 551.15 103.44 551.145 103.511C551.141 103.583 551.148 103.655 551.166 103.723C551.184 103.791 551.213 103.855 551.251 103.909C551.289 103.964 551.336 104.009 551.388 104.042C551.441 104.074 551.498 104.094 551.557 104.1L552.478 104.192C555.314 104.841 555.779 106.335 555.784 106.373C555.823 106.471 555.885 106.552 555.962 106.606C556.039 106.661 556.128 106.686 556.217 106.678Z" fill="#2E2E47"/>
<path d="M548.108 118.633C548.108 118.633 556.548 123.666 560.342 124.002C560.342 124.002 556.685 127.894 552.951 126.665C549.217 125.436 547.196 122.63 547.493 121.523C547.791 120.415 548.108 118.633 548.108 118.633Z" fill="white"/>
<path d="M567.817 109.501C568.062 109.579 568.276 109.759 568.423 110.011C568.569 110.263 568.638 110.57 568.618 110.878C568.589 112.023 567.416 113.815 566.44 112.836C565.464 111.857 565.597 108.994 567.817 109.501Z" fill="#2E2E47"/>
<path d="M553.751 103.985C554.077 104.062 554.363 104.243 554.559 104.495C554.754 104.747 554.846 105.054 554.818 105.363C554.78 106.505 553.217 108.298 551.916 107.323C550.614 106.347 550.791 103.486 553.751 103.985Z" fill="#2E2E47"/>
<path d="M560.775 220.652H560.8C561.843 220.584 562.978 220.533 564.184 220.478C570.385 220.194 578.097 219.837 582.057 216.771C586.714 213.157 589.631 204.145 589.752 203.763C589.772 203.71 589.78 203.653 589.777 203.596C589.775 203.539 589.761 203.483 589.736 203.432C589.712 203.38 589.677 203.335 589.635 203.297C589.593 203.26 589.543 203.231 589.49 203.213C589.437 203.196 589.38 203.189 589.324 203.194C589.269 203.199 589.214 203.215 589.165 203.242C589.115 203.269 589.071 203.306 589.036 203.35C589.001 203.394 588.975 203.445 588.959 203.5C588.93 203.594 586.001 212.644 581.548 216.097C577.792 219.002 570.231 219.35 564.146 219.629C562.936 219.685 561.797 219.735 560.745 219.808C560.691 219.809 560.637 219.822 560.587 219.846C560.537 219.869 560.492 219.902 560.455 219.942C560.417 219.983 560.388 220.031 560.369 220.083C560.35 220.135 560.341 220.191 560.343 220.247C560.345 220.302 560.357 220.357 560.38 220.408C560.403 220.458 560.435 220.504 560.475 220.542C560.515 220.58 560.562 220.61 560.614 220.629C560.665 220.649 560.72 220.658 560.775 220.656V220.652Z" fill="#2E2E47"/>
<path d="M610.015 210.545C605.736 208.883 596.464 200.328 593.709 196.385C589 189.633 589.835 179.295 589.835 179.295C589.835 179.295 600.596 188.021 607.122 193.709C608.194 198.928 609.154 204.587 610.015 210.545Z" fill="#2E2E47"/>
<path d="M573.353 112.044C564.383 103.92 547.057 101.533 544.99 100.89C542.923 100.248 552.673 88.6044 555.409 86.566C558.144 84.5275 568.525 70.8201 579.778 72.8884C591.031 74.9566 596.485 86.1999 596.207 95.5665C595.929 104.933 589.781 118.206 589.565 123.496C589.35 128.786 588.387 132.858 586.502 132.382C584.618 131.905 582.322 120.172 573.353 112.044Z" fill="white"/>
<path d="M583.339 74.2887C583.339 74.2887 585.371 68.8107 587.769 69.0051C590.166 69.1994 590.038 71.5166 589.323 73.0018C588.608 74.4869 586.553 76.353 586.553 76.353C586.231 76.1952 585.928 76.0008 585.651 75.7737C585.394 75.5132 588.134 72.2281 587.761 71.4544C587.388 70.6807 586.358 71.9637 585.713 72.6751C585.068 73.3866 584.749 74.934 584.361 74.934C583.972 74.934 583.339 74.2887 583.339 74.2887Z" fill="white"/>
<path d="M556.465 117.783C556.465 117.783 558.781 118.33 559.886 119.264C560.992 120.198 566.342 124.551 564.594 125.018C562.845 125.485 556.079 122.429 555.131 121.983C554.182 121.536 554.391 121.428 554.391 121.428C554.391 121.428 547.195 119.155 546.645 117.783C546.094 116.411 547.895 115.631 550.295 115.944C552.695 116.257 556.465 117.783 556.465 117.783Z" fill="#2E2E47"/>
<path d="M536.552 136.678C540.446 138.538 543.994 145.309 542.527 146.808C541.06 148.307 538.962 144.036 538.962 144.036C538.962 144.036 540.109 149.4 538.551 149.635C536.994 149.869 535.791 148.203 535.791 148.203C535.791 148.203 535.401 149.677 534.06 149.459C532.719 149.241 530.707 144.371 530.707 144.371C530.707 144.371 531.771 148.839 529.76 149.815C527.748 150.791 524.468 140.958 524.468 140.958C524.618 140.421 524.876 139.919 525.227 139.479C525.578 139.039 526.016 138.671 526.515 138.395C530.608 136.067 534.16 135.531 536.552 136.678Z" fill="#FFD3B5"/>
<path d="M556.035 146.493C556.035 146.493 579.04 226.531 582.515 233.687C585.99 240.843 615.325 276.043 616.159 278.712C616.993 281.381 619.357 330.047 619.357 331.73C619.357 333.413 622.107 362.028 622.107 362.028C622.107 362.028 643.406 471.143 642.157 478.303C640.907 485.463 598.771 474.92 581.886 473.253C565.002 471.587 555.406 469.045 537.872 468.203C520.338 467.362 491.162 463.154 479.899 458.527C468.635 453.9 476.545 436.645 476.965 430.335C477.384 424.025 492.395 310.41 492.395 309.146C492.395 307.881 502.405 235.929 504.073 227.944C505.741 219.959 520.132 179.341 522.84 173.873C525.548 168.405 538.844 157.912 538.572 155.095C538.3 152.279 543.602 145.22 544.83 146.501C546.059 147.783 554.325 143.224 556.035 146.493Z" fill="white"/>
<path d="M604.08 308.892C604.168 308.892 604.254 308.863 604.325 308.81C604.396 308.757 604.449 308.683 604.476 308.598C604.503 308.513 604.502 308.422 604.475 308.337C604.447 308.252 604.394 308.178 604.323 308.126C603.85 307.791 557.089 274.585 534.258 267.624C522.45 264.025 514.623 258.991 510.135 255.405C505.275 251.518 503.175 248.444 503.154 248.415C503.092 248.323 502.996 248.259 502.888 248.238C502.78 248.216 502.668 248.239 502.577 248.3C502.531 248.332 502.492 248.371 502.461 248.418C502.431 248.464 502.41 248.516 502.399 248.571C502.389 248.626 502.389 248.682 502.4 248.736C502.411 248.791 502.433 248.843 502.464 248.889C502.551 249.02 504.63 252.077 509.575 256.04C514.122 259.681 522.057 264.787 534.016 268.437C556.716 275.355 603.369 308.481 603.837 308.816C603.909 308.866 603.993 308.893 604.08 308.892Z" fill="#2E2E47"/>
<path d="M584.344 153.56C592.288 154.113 702.221 182.966 690.017 253.434C686.911 271.365 677.608 283.271 667.773 293.792C644.972 318.17 617.467 327.752 612.574 321.955C605.485 313.548 648.376 248.322 649.001 240.544C649.625 232.766 604.026 194.491 593.387 184.351C582.747 174.211 584.344 153.56 584.344 153.56Z" fill="#FFD3B5"/>
<path d="M620.596 310.296C620.596 310.296 604.256 304.534 599.376 305.283C594.496 306.032 586.031 307.991 585.77 309.736C585.508 311.481 596.424 309.736 596.424 309.736C596.424 309.736 583.222 313.851 582.99 315.201C582.758 316.551 584.184 316.572 584.184 316.572C584.184 316.572 582.164 317.74 582.446 318.81C582.729 319.88 592.83 319.362 592.83 319.362C592.83 319.362 584.504 321.658 585.314 323.111C586.124 324.564 602.337 323.494 602.337 323.494C602.337 323.494 615.413 327.865 619.251 323.494C623.089 319.123 624.443 311.592 620.596 310.296Z" fill="#FFD3B5"/>
<path d="M564.078 261.991C564.206 261.993 564.333 261.962 564.447 261.901C564.561 261.84 564.658 261.751 564.73 261.642C566.14 259.595 560.332 244.683 552.592 225.4C552.06 224.076 551.548 222.799 551.066 221.59C545.246 206.989 539.705 157.197 539.651 156.699C539.639 156.586 539.583 156.482 539.497 156.411C539.41 156.34 539.3 156.307 539.189 156.32C539.079 156.332 538.978 156.389 538.909 156.478C538.839 156.566 538.807 156.679 538.819 156.792C538.819 156.916 540.225 169.512 542.32 183.751C545.138 202.907 547.819 215.732 550.289 221.913L551.818 225.744C554.62 232.721 558.104 241.397 560.619 248.365C564.593 259.373 564.248 260.953 564.044 261.174C563.117 261.114 560.839 258.675 557.306 251.975C554.088 245.871 550.588 237.698 547.454 228.988C540.96 210.905 539.115 168.541 539.098 168.115C539.095 168.06 539.082 168.005 539.059 167.954C539.036 167.903 539.003 167.858 538.963 167.82C538.923 167.782 538.875 167.753 538.824 167.734C538.773 167.715 538.718 167.706 538.663 167.709C538.609 167.711 538.555 167.725 538.506 167.749C538.456 167.772 538.412 167.806 538.375 167.847C538.338 167.888 538.31 167.937 538.291 167.989C538.272 168.042 538.264 168.098 538.267 168.154C538.267 168.579 540.137 211.063 546.672 229.269C552.405 245.232 560.461 261.842 564.028 262.017L564.078 261.991Z" fill="#2E2E47"/>
<path d="M585.84 268.451C588.225 268.451 590.754 267.31 592.915 265.237C593.089 265.075 593.228 264.878 593.321 264.659C593.415 264.439 593.461 264.203 593.457 263.965C593.486 261.972 590.623 259.063 586.289 254.637C580.642 248.9 572.906 241.04 568.416 231.53C560.108 213.93 552.068 160.889 551.987 160.355C551.979 160.3 551.96 160.247 551.931 160.199C551.903 160.151 551.865 160.109 551.82 160.076C551.775 160.043 551.724 160.019 551.67 160.006C551.616 159.993 551.56 159.99 551.504 159.999C551.449 160.007 551.396 160.026 551.349 160.055C551.301 160.083 551.259 160.121 551.226 160.166C551.193 160.211 551.169 160.262 551.156 160.316C551.143 160.37 551.14 160.427 551.149 160.482C551.229 161.016 559.291 214.18 567.649 231.89C572.203 241.536 579.994 249.452 585.683 255.231C589.568 259.178 592.635 262.294 592.61 263.931C592.611 264.054 592.586 264.177 592.538 264.29C592.489 264.403 592.416 264.505 592.326 264.588C591.258 265.614 588.407 267.955 585.005 267.509C582.548 267.187 580.345 265.474 578.511 262.422C573.334 253.887 559.159 227.603 557.922 218.988C556.652 210.233 554.563 194.397 554.533 194.244C554.519 194.133 554.46 194.032 554.372 193.964C554.283 193.895 554.17 193.865 554.059 193.879C554.004 193.887 553.95 193.905 553.902 193.933C553.853 193.961 553.811 193.999 553.777 194.043C553.743 194.088 553.719 194.138 553.704 194.193C553.69 194.247 553.687 194.303 553.695 194.359C553.716 194.515 555.813 210.351 557.084 219.111C558.355 227.871 572.584 254.302 577.787 262.858C579.778 266.144 582.171 267.989 584.899 268.345C585.21 268.401 585.524 268.437 585.84 268.451Z" fill="#2E2E47"/>
<path d="M537.784 257.421H537.857C537.982 257.404 538.095 257.345 538.171 257.257C538.247 257.168 538.279 257.057 538.261 256.948C538.261 256.814 536.016 243.278 535.067 236.039C534.118 228.8 535.067 176.564 535.067 176.037C535.067 175.926 535.016 175.82 534.926 175.741C534.836 175.663 534.713 175.619 534.586 175.619C534.458 175.619 534.335 175.663 534.245 175.741C534.155 175.82 534.104 175.926 534.104 176.037C534.065 178.191 533.14 228.85 534.104 236.143C535.067 243.436 537.278 256.965 537.298 257.099C537.323 257.193 537.386 257.277 537.475 257.335C537.563 257.394 537.673 257.424 537.784 257.421Z" fill="#2E2E47"/>
<path d="M517.552 249.149C517.663 249.149 517.77 249.109 517.852 249.037C517.934 248.964 517.984 248.865 517.993 248.758C517.993 248.5 520.169 222.73 521.873 210.638C523.577 198.547 532.634 170.031 532.723 169.747C532.742 169.693 532.75 169.636 532.745 169.58C532.741 169.523 532.726 169.468 532.699 169.417C532.672 169.366 532.635 169.321 532.59 169.285C532.544 169.248 532.492 169.221 532.435 169.204C532.379 169.187 532.32 169.181 532.261 169.187C532.202 169.193 532.145 169.21 532.093 169.237C532.041 169.264 531.996 169.301 531.959 169.346C531.922 169.39 531.895 169.442 531.88 169.497C531.787 169.785 522.707 198.386 520.999 210.524C519.291 222.662 517.133 248.432 517.111 248.69C517.106 248.746 517.112 248.802 517.13 248.856C517.148 248.909 517.177 248.958 517.214 249.001C517.252 249.044 517.298 249.079 517.35 249.104C517.402 249.129 517.459 249.145 517.517 249.149H517.552Z" fill="#2E2E47"/>
<path d="M617.868 394.366C617.93 394.367 617.991 394.354 618.048 394.328C618.104 394.303 618.154 394.265 618.194 394.218C618.23 394.175 618.257 394.126 618.274 394.072C618.29 394.019 618.297 393.963 618.292 393.908C618.287 393.852 618.272 393.798 618.246 393.748C618.221 393.699 618.186 393.655 618.143 393.619C616.563 392.285 615.43 391.363 614.433 390.551C611.391 388.074 610.005 386.94 602.282 379.268C592.09 369.148 558.382 329.455 553.692 322.479C548.904 315.372 504.523 255.439 504.075 254.836C504.042 254.791 504 254.753 503.953 254.724C503.905 254.696 503.852 254.677 503.797 254.668C503.742 254.66 503.686 254.663 503.633 254.676C503.579 254.69 503.528 254.714 503.483 254.747C503.438 254.78 503.401 254.822 503.372 254.87C503.344 254.917 503.325 254.971 503.316 255.026C503.308 255.081 503.311 255.137 503.324 255.192C503.338 255.246 503.361 255.297 503.394 255.342C503.847 255.962 548.211 315.877 552.99 322.993C558.631 331.375 593.172 371.45 601.686 379.922C609.439 387.624 610.838 388.763 613.901 391.261C614.898 392.068 616.014 392.986 617.598 394.315C617.68 394.362 617.775 394.38 617.868 394.366Z" fill="#2E2E47"/>
<path d="M582.928 432.055C583.035 432.055 583.139 432.014 583.217 431.94C583.295 431.86 583.339 431.753 583.339 431.641C583.339 431.528 583.295 431.421 583.217 431.341L581.696 429.694C573.913 421.271 572.061 419.272 563.365 408.345C558.015 401.62 557.391 400.342 556.147 397.791C555.259 395.969 554.052 393.478 550.546 387.899C542.331 374.781 503.602 266.161 503.208 265.065C503.191 265.012 503.163 264.962 503.126 264.919C503.089 264.876 503.044 264.842 502.994 264.817C502.943 264.792 502.889 264.778 502.833 264.775C502.777 264.772 502.721 264.78 502.668 264.799C502.615 264.819 502.567 264.848 502.526 264.887C502.485 264.926 502.452 264.972 502.429 265.024C502.406 265.076 502.393 265.131 502.392 265.188C502.39 265.245 502.4 265.301 502.421 265.354C502.81 266.449 541.573 375.159 549.838 388.353C553.311 393.872 554.513 396.364 555.393 398.169C556.649 400.771 557.303 402.078 562.711 408.875C571.429 419.828 573.28 421.836 581.081 430.271L582.601 431.919C582.643 431.964 582.693 432 582.75 432.023C582.806 432.047 582.867 432.057 582.928 432.055Z" fill="#2E2E47"/>
<path d="M557.166 412.754C557.256 412.754 557.344 412.724 557.416 412.668C557.46 412.635 557.497 412.592 557.525 412.544C557.553 412.496 557.571 412.442 557.579 412.387C557.587 412.331 557.584 412.275 557.57 412.221C557.556 412.166 557.532 412.115 557.5 412.07C557.362 411.883 543.871 393.344 541.429 385.432C539.104 377.901 535.882 368.081 534.459 365.195C534.434 365.144 534.4 365.1 534.358 365.063C534.317 365.026 534.268 364.998 534.216 364.981C534.164 364.963 534.109 364.956 534.054 364.96C534 364.964 533.946 364.979 533.897 365.005C533.848 365.03 533.804 365.065 533.768 365.107C533.733 365.15 533.705 365.199 533.688 365.252C533.671 365.306 533.664 365.362 533.668 365.418C533.672 365.474 533.687 365.529 533.711 365.579C535.114 368.418 538.303 378.191 540.632 385.693C543.136 393.741 556.272 411.814 556.832 412.591C556.871 412.643 556.922 412.684 556.98 412.712C557.038 412.74 557.101 412.755 557.166 412.754Z" fill="#2E2E47"/>
<path d="M622.475 466.982C622.575 466.981 622.671 466.944 622.747 466.878C622.823 466.813 622.872 466.722 622.888 466.623C622.903 466.524 622.883 466.422 622.83 466.337C622.778 466.251 622.697 466.187 622.602 466.156C617.585 464.592 610.498 464.037 602.992 463.452C594.155 462.761 584.139 461.977 575.39 459.404C558.621 454.475 523.703 428.262 520.179 412.141C516.578 395.692 501.553 291.015 501.401 289.959C501.386 289.847 501.326 289.745 501.236 289.677C501.191 289.643 501.14 289.618 501.086 289.604C501.032 289.59 500.975 289.587 500.92 289.595C500.864 289.602 500.811 289.621 500.762 289.65C500.714 289.678 500.672 289.716 500.638 289.761C500.604 289.806 500.58 289.857 500.566 289.911C500.552 289.966 500.548 290.022 500.556 290.078C500.708 291.133 515.737 395.845 519.346 412.323C520.99 419.841 529.434 430.22 542.514 440.807C553.925 450.034 567.027 457.832 575.141 460.218C583.978 462.816 594.041 463.609 602.92 464.295C610.375 464.88 617.416 465.427 622.361 466.965C622.398 466.976 622.436 466.982 622.475 466.982Z" fill="#2E2E47"/>
<path d="M472.965 223.413C477.493 223.413 481.144 220.728 485.275 217.688C487.06 216.375 488.909 215.015 490.958 213.779C498.484 209.247 508.712 193.141 513.583 183.153C518.25 173.595 525.291 158 525.35 157.843C525.396 157.74 525.401 157.622 525.362 157.516C525.324 157.41 525.246 157.323 525.145 157.276C525.044 157.228 524.928 157.223 524.824 157.263C524.72 157.302 524.635 157.382 524.589 157.485C524.517 157.642 517.48 173.224 512.835 182.773C508.009 192.668 497.899 208.599 490.531 213.041C488.44 214.295 486.588 215.667 484.786 216.993C480.103 220.438 476.055 223.413 470.699 222.322C470.645 222.311 470.589 222.311 470.535 222.321C470.482 222.332 470.43 222.353 470.384 222.384C470.339 222.415 470.299 222.455 470.268 222.501C470.238 222.548 470.216 222.6 470.205 222.655C470.194 222.71 470.194 222.767 470.205 222.822C470.216 222.877 470.237 222.929 470.268 222.976C470.298 223.023 470.338 223.063 470.384 223.094C470.43 223.125 470.481 223.147 470.536 223.158C471.335 223.324 472.149 223.41 472.965 223.413Z" fill="#FFD3B5"/>
<path d="M672.589 251.905C672.895 251.913 673.2 251.867 673.491 251.77C673.68 251.708 673.853 251.604 673.999 251.464C674.145 251.325 674.259 251.154 674.333 250.964C674.391 250.802 674.414 250.63 674.401 250.458C674.388 250.286 674.339 250.12 674.257 249.969C672.496 246.385 651.559 240.617 649.178 239.972C649.125 239.957 649.069 239.954 649.014 239.962C648.959 239.969 648.906 239.988 648.858 240.017C648.81 240.046 648.768 240.085 648.734 240.13C648.701 240.176 648.676 240.228 648.662 240.284C648.648 240.339 648.645 240.397 648.652 240.454C648.66 240.511 648.678 240.566 648.706 240.615C648.734 240.665 648.771 240.708 648.815 240.743C648.859 240.778 648.91 240.803 648.963 240.818C658.169 243.312 672.303 247.916 673.507 250.366C673.534 250.406 673.552 250.452 673.56 250.501C673.567 250.549 673.564 250.599 673.55 250.645C673.52 250.721 673.473 250.788 673.413 250.841C673.352 250.894 673.281 250.932 673.204 250.95C670.643 251.879 659.807 245.984 655.847 243.63C655.799 243.601 655.746 243.583 655.691 243.575C655.636 243.568 655.58 243.572 655.526 243.587C655.473 243.602 655.423 243.628 655.379 243.663C655.335 243.698 655.298 243.741 655.27 243.791C655.242 243.841 655.225 243.896 655.217 243.953C655.21 244.01 655.214 244.068 655.229 244.123C655.243 244.179 655.268 244.231 655.302 244.276C655.336 244.322 655.378 244.36 655.426 244.389C656.812 245.208 668.225 251.905 672.589 251.905Z" fill="#2E2E47"/>
</svg>
