<svg width="21" height="20" viewBox="0 0 21 20" fill="none" xmlns="http://www.w3.org/2000/svg"><path d="M6.5 20C5.95 20 5.47933 19.8043 5.088 19.413C4.696 19.021 4.5 18.55 4.5 18C4.5 17.45 4.696 16.979 5.088 16.587C5.47933 16.1957 5.95 16 6.5 16C7.05 16 7.52067 16.1957 7.912 16.587C8.304 16.979 8.5 17.45 8.5 18C8.5 18.55 8.304 19.021 7.912 19.413C7.52067 19.8043 7.05 20 6.5 20ZM16.5 20C15.95 20 15.4793 19.8043 15.088 19.413C14.696 19.021 14.5 18.55 14.5 18C14.5 17.45 14.696 16.979 15.088 16.587C15.4793 16.1957 15.95 16 16.5 16C17.05 16 17.521 16.1957 17.913 16.587C18.3043 16.979 18.5 17.45 18.5 18C18.5 18.55 18.3043 19.021 17.913 19.413C17.521 19.8043 17.05 20 16.5 20ZM6.5 15C5.75 15 5.18333 14.6707 4.8 14.012C4.41667 13.354 4.4 12.7 4.75 12.05L6.1 9.6L2.5 2H1.475C1.19167 2 0.958333 1.904 0.775 1.712C0.591667 1.52067 0.5 1.28333 0.5 1C0.5 0.716667 0.596 0.479 0.788 0.287C0.979333 0.0956666 1.21667 0 1.5 0H3.125C3.30833 0 3.48333 0.0500001 3.65 0.15C3.81667 0.25 3.94167 0.391667 4.025 0.575L4.7 2H19.45C19.9 2 20.2083 2.16667 20.375 2.5C20.5417 2.83333 20.5333 3.18333 20.35 3.55L16.8 9.95C16.6167 10.2833 16.375 10.5417 16.075 10.725C15.775 10.9083 15.4333 11 15.05 11H7.6L6.5 13H17.525C17.8083 13 18.0417 13.0957 18.225 13.287C18.4083 13.479 18.5 13.7167 18.5 14C18.5 14.2833 18.404 14.5207 18.212 14.712C18.0207 14.904 17.7833 15 17.5 15H6.5Z" fill="#676966"/></svg>