<svg width="29" height="24" viewBox="0 0 29 24" fill="none" xmlns="http://www.w3.org/2000/svg">
<path d="M7.74444 9.62827C7.23529 11.4207 6.723 13.2227 6.20442 15.0566C5.80527 14.9035 5.41241 14.7695 5.03527 14.6037C4.10497 14.2018 3.28153 13.6373 2.57438 12.9038C1.72895 12.0267 1.14123 10.9965 0.804938 9.81325C0.540936 8.88515 0.459221 7.94109 0.522078 6.98428C0.650937 5.10256 1.37066 3.48874 2.7441 2.19704C3.84097 1.16369 5.14841 0.532191 6.60357 0.219633C7.053 0.123952 7.51186 0.0793009 7.96758 0.0314604C8.27244 -0.000433332 8.58045 0.00275604 8.88845 0.00275604C15.3502 0.00275604 21.8152 0.00275604 28.2769 0.00275604C28.3209 0.00275604 28.3681 -0.0100014 28.4026 0.00594541C28.4404 0.0218922 28.4812 0.0601647 28.4906 0.0984371C28.5064 0.159035 28.4969 0.226012 28.4969 0.292989C28.4969 2.06628 28.4969 3.83957 28.4969 5.61286C28.4969 5.79146 28.4969 5.79146 28.3209 5.79146C24.5903 5.79146 20.8629 5.79146 17.1322 5.79146C17.082 5.79146 17.0285 5.79465 16.9782 5.79146C16.8777 5.78189 16.8462 5.82654 16.8462 5.9286C16.8494 7.36063 16.8494 8.78947 16.8462 10.2215C16.8462 10.3618 16.9122 10.3618 17.0128 10.3618C18.8074 10.3618 20.602 10.3618 22.3934 10.3618C23.4903 10.3618 24.5903 10.3618 25.6872 10.3618C25.8758 10.3618 25.8569 10.3459 25.8569 10.534C25.8506 11.1241 25.8538 11.7141 25.8538 12.3042C25.8538 13.4715 25.8506 14.6356 25.8569 15.8029C25.8569 15.9337 25.8192 15.9719 25.6903 15.9719C22.8272 15.9687 19.9671 15.9687 17.104 15.9687C16.7991 15.9687 16.8494 15.9528 16.8494 16.2239C16.8494 18.7562 16.8494 21.2854 16.8494 23.8178C16.8494 24.0091 16.8494 24.0091 16.664 24.0091C14.7342 24.0091 12.8013 24.0091 10.8716 24.0091C10.6893 24.0091 10.6893 24.0091 10.6893 23.8273C10.6893 17.8313 10.6893 11.8385 10.6893 5.84249C10.6893 5.59053 10.7113 5.61604 10.4725 5.61604C9.81874 5.61286 9.16502 5.60648 8.5113 5.61604C7.80415 5.6288 7.17243 5.85206 6.701 6.41339C6.36471 6.81206 6.25156 7.28408 6.30499 7.80714C6.37099 8.45139 6.69157 8.93299 7.20072 9.29977C7.36729 9.4082 7.54958 9.50707 7.74444 9.62827Z" fill="#0193E9"/>
</svg>
