<svg width="290" height="356" viewBox="0 0 290 356" fill="none" xmlns="http://www.w3.org/2000/svg"><path d="M295.991 147.043H295.966C295.891 147.037 295.822 147 295.773 146.942C295.725 146.884 295.701 146.808 295.708 146.732C295.708 146.64 296.47 137.467 290.36 132.681C284.25 127.895 277.891 129.512 277.814 129.512C277.778 129.521 277.74 129.524 277.703 129.518C277.666 129.513 277.631 129.5 277.599 129.481C277.567 129.462 277.538 129.436 277.516 129.406C277.494 129.376 277.477 129.341 277.468 129.304C277.459 129.268 277.457 129.229 277.462 129.192C277.467 129.154 277.48 129.118 277.499 129.086C277.517 129.053 277.543 129.024 277.572 129.002C277.602 128.979 277.636 128.962 277.672 128.953C277.738 128.936 284.361 127.247 290.709 132.22C297.057 137.193 296.286 146.683 296.277 146.778C296.272 146.851 296.239 146.919 296.186 146.968C296.132 147.018 296.063 147.044 295.991 147.043Z" fill="white"/><path d="M289.124 127.212C289.068 127.212 289.014 127.196 288.967 127.166C288.92 127.136 288.883 127.093 288.86 127.043C288.838 126.993 288.83 126.937 288.838 126.883C288.846 126.828 288.87 126.777 288.907 126.736C288.927 126.713 290.14 125.302 289.9 122.893C289.61 119.928 287.228 116.668 283.025 113.465C278.634 110.118 274.171 109.094 269.768 110.419C267.781 111.017 265.954 112.049 264.422 113.439C264.368 113.493 264.295 113.524 264.218 113.525C264.141 113.526 264.068 113.496 264.013 113.443C263.958 113.39 263.926 113.317 263.926 113.241C263.925 113.165 263.954 113.092 264.008 113.037C264.092 112.954 272.501 104.721 283.378 113.012C287.784 116.367 290.172 119.679 290.479 122.859C290.736 125.52 289.396 127.051 289.341 127.114C289.314 127.145 289.28 127.169 289.243 127.186C289.206 127.203 289.165 127.212 289.124 127.212Z" fill="white"/><path d="M82.0115 114.152C81.9413 114.153 81.8733 114.127 81.8206 114.081C81.7678 114.034 81.7341 113.969 81.7257 113.899C81.7257 113.83 80.9567 106.95 86.705 101.239C92.4532 95.5287 101.68 97.575 101.772 97.598C101.808 97.6065 101.843 97.6221 101.873 97.644C101.904 97.666 101.93 97.6938 101.95 97.7258C101.97 97.7578 101.983 97.7934 101.989 97.8307C101.996 97.8679 101.994 97.9061 101.986 97.9429C101.978 97.9797 101.962 98.0145 101.94 98.0453C101.918 98.076 101.891 98.1021 101.859 98.1222C101.827 98.1422 101.792 98.1556 101.755 98.1619C101.718 98.1681 101.68 98.1669 101.643 98.1584C101.554 98.1354 92.6391 96.1466 87.1053 101.647C81.5714 107.148 82.286 113.764 82.2946 113.83C82.3034 113.906 82.2822 113.982 82.2357 114.041C82.1891 114.101 82.1208 114.14 82.0458 114.149L82.0115 114.152Z" fill="white"/><path d="M64.6256 125.276C64.5821 125.276 64.5391 125.266 64.5 125.246C64.461 125.226 64.4269 125.198 64.4004 125.163C64.3262 125.067 57.3327 115.56 66.9377 105.864C70.8265 101.932 74.4016 100.003 77.5776 100.131C80.2347 100.239 81.5689 101.781 81.6231 101.848C81.6474 101.877 81.6659 101.911 81.6775 101.947C81.6891 101.983 81.6937 102.022 81.6908 102.06C81.6878 102.098 81.6775 102.135 81.6605 102.169C81.6436 102.203 81.6202 102.233 81.5918 102.258C81.5633 102.283 81.5303 102.302 81.4947 102.314C81.4591 102.326 81.4217 102.33 81.3844 102.327C81.347 102.324 81.3105 102.314 81.2772 102.296C81.2438 102.279 81.2141 102.255 81.1897 102.226C81.1726 102.206 79.941 100.803 77.5376 100.713C74.5726 100.602 71.0488 102.526 67.3396 106.277C63.4623 110.197 61.86 114.5 62.5813 119.081C62.9109 121.143 63.6904 123.103 64.8621 124.816C64.8853 124.847 64.9025 124.881 64.9125 124.918C64.9225 124.956 64.9251 124.994 64.9203 125.032C64.9155 125.071 64.9035 125.107 64.8847 125.141C64.8659 125.174 64.8408 125.203 64.8109 125.227C64.7566 125.264 64.6911 125.282 64.6256 125.276Z" fill="white"/><path d="M311.81 129.63C311.768 129.631 311.726 129.621 311.687 129.603C311.649 129.586 311.615 129.56 311.588 129.527C311.564 129.498 311.546 129.465 311.534 129.429C311.523 129.393 311.519 129.355 311.522 129.317C311.526 129.28 311.537 129.243 311.555 129.21C311.572 129.177 311.596 129.147 311.626 129.123C311.758 129.014 324.727 118.164 319.724 110.706C314.673 103.175 308.74 102.902 308.679 102.899C308.63 102.898 308.581 102.884 308.539 102.859C308.497 102.834 308.461 102.799 308.437 102.756C308.411 102.713 308.398 102.663 308.398 102.613C308.398 102.563 308.411 102.513 308.437 102.47C308.486 102.375 313.422 93.0118 310.504 84.047C308.875 79.0487 305.13 75.0965 299.369 72.2964C288.99 67.2408 278.582 69.4304 271.691 72.1589C267.162 73.951 262.916 76.3803 259.083 79.3725C259.054 79.3968 259.02 79.4152 258.984 79.4266C258.948 79.438 258.91 79.4422 258.872 79.439C258.835 79.4358 258.798 79.4253 258.764 79.408C258.731 79.3907 258.701 79.367 258.676 79.3382C258.652 79.3094 258.633 79.276 258.622 79.2401C258.61 79.2042 258.606 79.1665 258.609 79.1289C258.613 79.0914 258.623 79.0549 258.641 79.0215C258.658 78.988 258.682 78.9583 258.711 78.934C262.593 75.9031 266.892 73.4419 271.478 71.6257C278.478 68.8543 289.042 66.6332 299.623 71.7805C305.531 74.6465 309.377 78.7248 311.055 83.875C313.707 92.0258 310.037 100.483 309.135 102.361C310.642 102.553 315.72 103.69 320.206 110.385C322.409 113.667 321.671 118.035 318.075 123.019C316.303 125.42 314.264 127.614 311.997 129.562C311.945 129.606 311.879 129.63 311.81 129.63Z" fill="white"/><path d="M152.352 53.2065C152.291 53.2066 152.232 53.1879 152.183 53.1529C152.134 53.1179 152.097 53.0685 152.078 53.0116C151.168 50.0266 150.745 46.9163 150.825 43.7987C151.085 37.3405 154.104 32.9377 159.551 31.063C166.358 28.7182 171.545 29.4635 174.697 30.4897C176.492 31.0533 178.173 31.9266 179.663 33.0695C180.142 31.8799 181.952 28.4631 187.494 26.62C190.972 25.4734 194.979 26.5111 197.73 27.5889C199.532 28.3 201.262 29.1811 202.894 30.2203C202.957 30.2628 203 30.3281 203.015 30.4022C203.03 30.4762 203.014 30.553 202.972 30.6158C202.951 30.6471 202.924 30.6739 202.892 30.6948C202.86 30.7156 202.825 30.73 202.788 30.7372C202.75 30.7444 202.712 30.7442 202.675 30.7367C202.638 30.7291 202.602 30.7143 202.571 30.6932C200.971 29.6728 199.275 28.8088 197.508 28.1134C194.849 27.07 190.987 26.0611 187.676 27.1589C181.325 29.2686 180.087 33.5855 180.075 33.6313C180.062 33.6793 180.036 33.7231 180.001 33.7583C179.966 33.7935 179.922 33.8189 179.873 33.8321C179.823 33.8476 179.77 33.8494 179.719 33.8373C179.668 33.8252 179.622 33.7995 179.585 33.7632C179.515 33.6973 172.426 27.2134 159.73 31.5847C154.453 33.3992 151.648 37.5069 151.391 43.7873C151.314 46.8404 151.726 49.8863 152.612 52.8109C152.636 52.8828 152.63 52.9611 152.596 53.0287C152.562 53.0964 152.502 53.1479 152.43 53.1721C152.406 53.188 152.38 53.1997 152.352 53.2065Z" fill="white"/><path d="M217.22 18.3802C217.143 18.3802 217.07 18.35 217.015 18.2963C216.961 18.2425 216.931 18.1695 216.931 18.0935C216.931 18.0333 216.812 16.3731 212.772 8.56261C210.82 4.78352 206.815 2.11696 201.494 1.05607C196.337 0.0295777 190.504 0.674698 185.492 2.82803C180.171 5.12186 177.091 8.13257 175.446 10.263C173.661 12.5568 173.132 14.3574 173.132 14.3775C173.111 14.4498 173.061 14.5109 172.995 14.5474C172.928 14.5839 172.85 14.5929 172.777 14.5724C172.703 14.5517 172.641 14.503 172.603 14.4369C172.566 14.3708 172.557 14.2928 172.577 14.2198C172.664 13.933 174.824 6.79067 185.27 2.3005C190.389 0.101285 196.346 -0.566807 201.615 0.49409C207.11 1.58939 211.265 4.36206 213.298 8.30171C217.472 16.3789 217.521 18.0275 217.521 18.0935C217.521 18.1321 217.513 18.1704 217.498 18.206C217.482 18.2415 217.46 18.2736 217.432 18.3004C217.404 18.3272 217.371 18.3481 217.334 18.3618C217.298 18.3755 217.259 18.3818 217.22 18.3802Z" fill="white"/><path d="M252.879 55.1413C252.829 55.1412 252.78 55.1281 252.738 55.1034C252.695 55.0786 252.659 55.043 252.633 55C252.608 54.957 252.594 54.9081 252.593 54.858C252.591 54.808 252.603 54.7584 252.626 54.7142C253.207 53.5106 253.562 52.2079 253.673 50.8727C253.888 48.0279 252.813 45.7352 250.47 44.0556C248.864 42.8693 246.996 42.1003 245.029 41.8161C243.062 41.5318 241.057 41.7411 239.188 42.4254C239.119 42.4556 239.04 42.4567 238.97 42.4284C238.899 42.4001 238.843 42.3447 238.813 42.2744C238.783 42.2042 238.781 42.1248 238.809 42.0536C238.836 41.9823 238.89 41.9249 238.959 41.8937C240.918 41.17 243.023 40.9455 245.088 41.2399C247.154 41.5343 249.116 42.3386 250.802 43.582C256.807 47.8942 253.168 54.9147 253.131 54.9874C253.106 55.0338 253.07 55.0725 253.026 55.0997C252.981 55.1268 252.93 55.1412 252.879 55.1413Z" fill="white"/><path d="M68.9307 56.1087C68.8759 56.1089 68.8221 56.0938 68.7756 56.0653C68.7292 56.0368 68.692 55.996 68.6683 55.9476C68.6447 55.8993 68.6355 55.8454 68.6419 55.7921C68.6483 55.7389 68.6702 55.6885 68.7047 55.6468C69.6514 54.5883 70.7313 53.6514 71.9188 52.8583C74.8358 50.8595 78.1509 49.4845 81.648 48.8229C89.2848 47.3465 92.8062 49.69 93.6293 50.3617C94.8378 49.5115 101.234 45.1871 107.564 45.4818C114.548 45.8105 115.986 50.4354 116 50.4836C116.021 50.5557 116.011 50.6329 115.974 50.6982C115.937 50.7635 115.874 50.8116 115.801 50.8321C115.727 50.8523 115.648 50.8434 115.582 50.8073C115.515 50.7712 115.466 50.7109 115.444 50.6394C115.392 50.4637 114.088 46.3574 107.538 46.0486C100.872 45.734 93.8582 50.9029 93.7886 50.954C93.7323 50.9956 93.6624 51.0158 93.5919 51.0106C93.5215 51.0053 93.4554 50.9751 93.4061 50.9256C93.3742 50.8944 90.0905 47.7687 81.7611 49.3812C78.352 50.0227 75.1197 51.3601 72.2753 53.3061C71.1264 54.0757 70.079 54.9808 69.1567 56.0011C69.1297 56.0345 69.0955 56.0614 69.0564 56.0801C69.0172 56.0987 68.9742 56.1085 68.9307 56.1087Z" fill="white"/><path d="M137.282 334.03C137.282 334.03 335.207 332.223 348.487 339.715C361.767 347.208 112.886 348.129 112.886 348.129C112.886 348.129 118.786 350.755 104.391 353.524C89.9967 356.293 13.4612 358.629 2.03662 349.535C-9.38794 340.441 26.1215 330.392 137.282 334.03Z" fill="#414340"/><path d="M237.901 171.153C235.076 167.655 236.546 162.96 237.196 158.63C237.846 154.3 236.764 145.727 232.438 143.845C228.111 141.964 223.942 138.324 224.828 133.091C225.962 126.422 218.565 119.227 218.565 119.227C214.915 112.504 175.7 103.332 169.417 108.326C163.134 113.321 167.708 123.983 168.002 129.498C168.295 135.013 164.469 135.686 159.852 139.855C155.234 144.024 159.705 166.85 171.618 186.298C183.531 205.746 176.195 201.695 200.217 212.035C212.3 217.234 230.838 224.259 241.807 219.432C249.561 216.017 252.164 213.756 247.668 201.425C245.294 194.92 252.38 192.736 251.229 187.728C248.525 175.846 240.726 174.649 237.901 171.153Z" fill="#774237"/><path d="M196.852 139.545C193.171 135.26 190.176 133.456 190.703 127.097C191.193 121.222 195.11 114.636 195.11 114.636C195.11 114.636 183.338 114.719 180.049 122.721C175.173 134.586 148.188 146.725 143.758 157.78C141.348 163.808 138.154 170.697 136.999 185.357C135.772 200.957 130.996 224.065 130.996 224.065C130.996 224.065 146.549 226.064 161.189 227.776C180.158 229.995 180.363 227.874 180.363 227.874C180.363 227.874 189.718 220.221 198.716 193.497C206.858 169.352 210.375 153.219 196.852 139.545Z" fill="#CC8B70"/><path d="M180.72 127.602C185.656 127.1 189.968 122.874 189.968 122.874L180.523 121.891C180.401 122.124 180.29 122.366 180.184 122.616C179.498 124.264 178.364 125.915 176.917 127.571C178.179 127.726 179.455 127.736 180.72 127.602Z" fill="#2E2E47"/><path d="M171.349 133.016C171.349 133.016 127.757 145.858 112.017 151.49C98.4926 156.328 91.9525 158.304 91.8429 166.833C91.7333 175.362 116.172 178.225 127.431 176.597C138.691 174.968 154.766 168.872 164.217 160.059C173.668 151.246 171.349 133.016 171.349 133.016Z" fill="#CC8B70"/><path d="M195.533 137.853C195.533 137.853 241.417 158.31 242.138 165.574C242.868 172.922 232.042 173.369 225.696 173.111C219.351 172.854 201.732 173.558 196.889 168.339C192.046 163.119 195.533 137.853 195.533 137.853Z" fill="#CC8B70"/><path d="M338.366 170.745H34.3203V340.522H338.366V170.745Z" fill="#FFA982"/><path d="M58.0046 170.745H57.5212V340.522H58.0046V170.745Z" fill="#2E2E47"/><path d="M81.2077 170.745H80.7244V340.522H81.2077V170.745Z" fill="#2E2E47"/><path d="M104.893 170.745H104.41V340.522H104.893V170.745Z" fill="#2E2E47"/><path d="M128.095 170.745H127.612V340.522H128.095V170.745Z" fill="#2E2E47"/><path d="M151.781 170.745H151.298V340.522H151.781V170.745Z" fill="#2E2E47"/><path d="M174.983 170.745H174.5V340.522H174.983V170.745Z" fill="#2E2E47"/><path d="M198.668 170.745H198.185V340.522H198.668V170.745Z" fill="#2E2E47"/><path d="M221.871 170.745H221.388V340.522H221.871V170.745Z" fill="#2E2E47"/><path d="M245.557 170.745H244.59V340.522H245.557V170.745Z" fill="#2E2E47"/><path d="M268.759 170.745H268.275V340.522H268.759V170.745Z" fill="#2E2E47"/><path d="M231.297 268.935C231.233 268.935 231.172 268.904 231.126 268.848C231.081 268.793 231.056 268.718 231.056 268.639V256.171C231.056 256.092 231.081 256.017 231.126 255.962C231.172 255.906 231.233 255.875 231.297 255.875C231.361 255.875 231.423 255.906 231.468 255.962C231.514 256.017 231.539 256.092 231.539 256.171V268.639C231.539 268.718 231.514 268.793 231.468 268.848C231.423 268.904 231.361 268.935 231.297 268.935Z" fill="#2E2E47"/><path d="M229.364 294.087C229.3 294.087 229.238 294.057 229.193 294.003C229.148 293.95 229.122 293.878 229.122 293.802V285.665C229.122 285.59 229.148 285.517 229.193 285.464C229.238 285.41 229.3 285.38 229.364 285.38C229.428 285.38 229.489 285.41 229.535 285.464C229.58 285.517 229.606 285.59 229.606 285.665V293.802C229.606 293.878 229.58 293.95 229.535 294.003C229.489 294.057 229.428 294.087 229.364 294.087Z" fill="#2E2E47"/><path d="M236.615 304.728C236.551 304.728 236.489 304.698 236.444 304.645C236.399 304.592 236.373 304.52 236.373 304.444V293.887C236.373 293.812 236.399 293.74 236.444 293.687C236.489 293.633 236.551 293.603 236.615 293.603C236.679 293.603 236.74 293.633 236.786 293.687C236.831 293.74 236.856 293.812 236.856 293.887V304.444C236.856 304.52 236.831 304.592 236.786 304.645C236.74 304.698 236.679 304.728 236.615 304.728Z" fill="#2E2E47"/><path d="M273.109 235.076C272.981 235.076 272.858 235.046 272.768 234.992C272.677 234.938 272.626 234.866 272.626 234.79V225.688C272.626 225.612 272.677 225.54 272.768 225.486C272.858 225.432 272.981 225.402 273.109 225.402C273.238 225.402 273.36 225.432 273.451 225.486C273.542 225.54 273.593 225.612 273.593 225.688V234.79C273.593 234.866 273.542 234.938 273.451 234.992C273.36 235.046 273.238 235.076 273.109 235.076Z" fill="#2E2E47"/><path d="M283.26 237.978C283.132 237.978 283.009 237.947 282.918 237.892C282.827 237.837 282.776 237.763 282.776 237.685V229.082C282.776 229.004 282.827 228.929 282.918 228.874C283.009 228.819 283.132 228.788 283.26 228.788C283.388 228.788 283.511 228.819 283.602 228.874C283.692 228.929 283.743 229.004 283.743 229.082V237.685C283.743 237.763 283.692 237.837 283.602 237.892C283.511 237.947 283.388 237.978 283.26 237.978Z" fill="#2E2E47"/><path d="M279.635 261.196C279.571 261.196 279.509 261.165 279.464 261.11C279.419 261.056 279.393 260.981 279.393 260.904V252.781C279.393 252.703 279.419 252.629 279.464 252.575C279.509 252.52 279.571 252.489 279.635 252.489C279.699 252.489 279.761 252.52 279.806 252.575C279.851 252.629 279.877 252.703 279.877 252.781V260.904C279.877 260.981 279.851 261.056 279.806 261.11C279.761 261.165 279.699 261.196 279.635 261.196Z" fill="#2E2E47"/><path d="M276.251 283.446C276.187 283.446 276.126 283.416 276.081 283.362C276.035 283.308 276.01 283.235 276.01 283.16V272.123C276.01 272.047 276.035 271.974 276.081 271.921C276.126 271.867 276.187 271.837 276.251 271.837C276.316 271.837 276.377 271.867 276.422 271.921C276.468 271.974 276.493 272.047 276.493 272.123V283.16C276.493 283.235 276.468 283.308 276.422 283.362C276.377 283.416 276.316 283.446 276.251 283.446Z" fill="#2E2E47"/><path d="M250.149 255.875C250.085 255.875 250.023 255.845 249.978 255.791C249.933 255.737 249.907 255.664 249.907 255.587V244.07C249.907 243.994 249.933 243.921 249.978 243.867C250.023 243.813 250.085 243.783 250.149 243.783C250.213 243.783 250.274 243.813 250.32 243.867C250.365 243.921 250.391 243.994 250.391 244.07V255.587C250.391 255.664 250.365 255.737 250.32 255.791C250.274 255.845 250.213 255.875 250.149 255.875Z" fill="#2E2E47"/><path d="M259.575 248.136C259.447 248.136 259.324 248.106 259.233 248.052C259.143 247.998 259.092 247.926 259.092 247.85V233.428C259.092 233.352 259.143 233.279 259.233 233.225C259.324 233.172 259.447 233.141 259.575 233.141C259.703 233.141 259.826 233.172 259.917 233.225C260.008 233.279 260.059 233.352 260.059 233.428V247.85C260.059 247.926 260.008 247.998 259.917 248.052C259.826 248.106 259.703 248.136 259.575 248.136Z" fill="#2E2E47"/><path d="M259.575 287.799C259.447 287.799 259.324 287.768 259.233 287.714C259.143 287.659 259.092 287.585 259.092 287.508V273.579C259.092 273.502 259.143 273.428 259.233 273.373C259.324 273.319 259.447 273.288 259.575 273.288C259.703 273.288 259.826 273.319 259.917 273.373C260.008 273.428 260.059 273.502 260.059 273.579V287.508C260.059 287.585 260.008 287.659 259.917 287.714C259.826 287.768 259.703 287.799 259.575 287.799Z" fill="#2E2E47"/><path d="M210.27 238.462C210.141 238.462 210.018 238.432 209.928 238.379C209.837 238.325 209.786 238.253 209.786 238.177V226.171C209.786 226.095 209.837 226.023 209.928 225.969C210.018 225.916 210.141 225.886 210.27 225.886C210.398 225.886 210.521 225.916 210.611 225.969C210.702 226.023 210.753 226.095 210.753 226.171V238.177C210.753 238.253 210.702 238.325 210.611 238.379C210.521 238.432 210.398 238.462 210.27 238.462Z" fill="#2E2E47"/><path d="M208.095 263.614C208.031 263.614 207.97 263.584 207.924 263.531C207.879 263.477 207.853 263.405 207.853 263.329V255.192C207.853 255.117 207.879 255.044 207.924 254.991C207.97 254.938 208.031 254.908 208.095 254.908C208.159 254.908 208.221 254.938 208.266 254.991C208.311 255.044 208.337 255.117 208.337 255.192V263.329C208.337 263.405 208.311 263.477 208.266 263.531C208.221 263.584 208.159 263.614 208.095 263.614Z" fill="#2E2E47"/><path d="M215.587 274.739C215.459 274.739 215.336 274.708 215.245 274.652C215.155 274.597 215.104 274.521 215.104 274.443V263.427C215.104 263.348 215.155 263.273 215.245 263.217C215.336 263.162 215.459 263.13 215.587 263.13C215.715 263.13 215.838 263.162 215.929 263.217C216.019 263.273 216.07 263.348 216.07 263.427V274.443C216.07 274.521 216.019 274.597 215.929 274.652C215.838 274.708 215.715 274.739 215.587 274.739Z" fill="#2E2E47"/><path d="M180.541 266.516C180.477 266.516 180.416 266.486 180.371 266.433C180.325 266.379 180.3 266.307 180.3 266.231V252.774C180.3 252.699 180.325 252.626 180.371 252.573C180.416 252.519 180.477 252.489 180.541 252.489C180.606 252.489 180.667 252.519 180.712 252.573C180.758 252.626 180.783 252.699 180.783 252.774V266.231C180.783 266.307 180.758 266.379 180.712 266.433C180.667 266.486 180.606 266.516 180.541 266.516Z" fill="#2E2E47"/><path d="M190.21 270.87C190.146 270.87 190.085 270.839 190.039 270.785C189.994 270.732 189.969 270.659 189.969 270.582V261.967C189.969 261.89 189.994 261.817 190.039 261.763C190.085 261.71 190.146 261.679 190.21 261.679C190.274 261.679 190.336 261.71 190.381 261.763C190.427 261.817 190.452 261.89 190.452 261.967V270.582C190.452 270.659 190.427 270.732 190.381 270.785C190.336 270.839 190.274 270.87 190.21 270.87Z" fill="#2E2E47"/><path d="M185.859 280.543C185.795 280.543 185.733 280.511 185.688 280.453C185.643 280.396 185.617 280.317 185.617 280.236V274.08C185.617 273.998 185.643 273.92 185.688 273.862C185.733 273.804 185.795 273.772 185.859 273.772C185.923 273.772 185.984 273.804 186.03 273.862C186.075 273.92 186.101 273.998 186.101 274.08V280.236C186.101 280.317 186.075 280.396 186.03 280.453C185.984 280.511 185.923 280.543 185.859 280.543Z" fill="#2E2E47"/><path d="M158.791 241.364C158.726 241.364 158.665 241.334 158.62 241.28C158.574 241.227 158.549 241.154 158.549 241.078V231.976C158.549 231.9 158.574 231.828 158.62 231.774C158.665 231.72 158.726 231.69 158.791 231.69C158.855 231.69 158.916 231.72 158.961 231.774C159.007 231.828 159.032 231.9 159.032 231.976V241.078C159.032 241.154 159.007 241.227 158.961 241.28C158.916 241.334 158.855 241.364 158.791 241.364Z" fill="#2E2E47"/><path d="M168.942 244.266C168.878 244.266 168.816 244.235 168.771 244.18C168.726 244.125 168.7 244.051 168.7 243.973V235.369C168.7 235.292 168.726 235.217 168.771 235.162C168.816 235.107 168.878 235.076 168.942 235.076C169.006 235.076 169.067 235.107 169.113 235.162C169.158 235.217 169.184 235.292 169.184 235.369V243.967C169.184 244.006 169.178 244.045 169.167 244.081C169.155 244.117 169.137 244.15 169.114 244.178C169.092 244.206 169.065 244.228 169.035 244.243C169.006 244.258 168.974 244.266 168.942 244.266Z" fill="#2E2E47"/><path d="M165.074 267.967C165.01 267.967 164.948 267.937 164.903 267.882C164.857 267.827 164.832 267.753 164.832 267.676V259.552C164.832 259.475 164.857 259.401 164.903 259.346C164.948 259.292 165.01 259.261 165.074 259.261C165.138 259.261 165.199 259.292 165.245 259.346C165.29 259.401 165.315 259.475 165.315 259.552V267.676C165.315 267.753 165.29 267.827 165.245 267.882C165.199 267.937 165.138 267.967 165.074 267.967Z" fill="#2E2E47"/><path d="M161.691 290.217C161.627 290.217 161.565 290.186 161.52 290.13C161.475 290.074 161.449 289.998 161.449 289.919V278.423C161.449 278.344 161.475 278.268 161.52 278.212C161.565 278.156 161.627 278.125 161.691 278.125C161.755 278.125 161.816 278.156 161.862 278.212C161.907 278.268 161.933 278.344 161.933 278.423V289.919C161.933 289.998 161.907 290.074 161.862 290.13C161.816 290.186 161.755 290.217 161.691 290.217Z" fill="#2E2E47"/><path d="M145.256 254.424C145.192 254.424 145.13 254.394 145.085 254.34C145.039 254.286 145.014 254.214 145.014 254.138V239.716C145.014 239.64 145.039 239.567 145.085 239.513C145.13 239.46 145.192 239.429 145.256 239.429C145.32 239.429 145.381 239.46 145.426 239.513C145.472 239.567 145.497 239.64 145.497 239.716V254.138C145.497 254.214 145.472 254.286 145.426 254.34C145.381 254.394 145.32 254.424 145.256 254.424Z" fill="#2E2E47"/><path d="M145.256 294.087C145.192 294.087 145.13 294.056 145.085 294.002C145.039 293.947 145.014 293.873 145.014 293.796V279.867C145.014 279.79 145.039 279.716 145.085 279.661C145.13 279.607 145.192 279.576 145.256 279.576C145.32 279.576 145.381 279.607 145.426 279.661C145.472 279.716 145.497 279.79 145.497 279.867V293.796C145.497 293.873 145.472 293.947 145.426 294.002C145.381 294.056 145.32 294.087 145.256 294.087Z" fill="#2E2E47"/><path d="M51.9634 230.723C51.8993 230.723 51.8378 230.693 51.7925 230.639C51.7472 230.586 51.7217 230.514 51.7217 230.438V218.432C51.7217 218.356 51.7472 218.284 51.7925 218.23C51.8378 218.177 51.8993 218.147 51.9634 218.147C52.0275 218.147 52.0889 218.177 52.1343 218.23C52.1796 218.284 52.2051 218.356 52.2051 218.432V230.438C52.2051 230.514 52.1796 230.586 52.1343 230.639C52.0889 230.693 52.0275 230.723 51.9634 230.723Z" fill="#2E2E47"/><path d="M64.0483 248.62C63.9842 248.62 63.9228 248.59 63.8774 248.536C63.8321 248.483 63.8066 248.41 63.8066 248.335V240.198C63.8066 240.122 63.8321 240.05 63.8774 239.996C63.9228 239.943 63.9842 239.913 64.0483 239.913C64.1124 239.913 64.1739 239.943 64.2192 239.996C64.2645 240.05 64.29 240.122 64.29 240.198V248.335C64.29 248.41 64.2645 248.483 64.2192 248.536C64.1739 248.59 64.1124 248.62 64.0483 248.62Z" fill="#2E2E47"/><path d="M120.119 189.609C120.055 189.609 119.994 189.577 119.948 189.521C119.903 189.464 119.878 189.388 119.878 189.308V180.719C119.878 180.639 119.903 180.563 119.948 180.507C119.994 180.45 120.055 180.418 120.119 180.418C120.183 180.418 120.245 180.45 120.29 180.507C120.336 180.563 120.361 180.639 120.361 180.719V189.308C120.361 189.388 120.336 189.464 120.29 189.521C120.245 189.577 120.183 189.609 120.119 189.609Z" fill="#2E2E47"/><path d="M50.9966 268.451C50.9325 268.451 50.871 268.421 50.8257 268.368C50.7804 268.315 50.7549 268.242 50.7549 268.167V257.61C50.7549 257.535 50.7804 257.463 50.8257 257.409C50.871 257.356 50.9325 257.326 50.9966 257.326C51.0607 257.326 51.1221 257.356 51.1675 257.409C51.2128 257.463 51.2383 257.535 51.2383 257.61V268.167C51.2383 268.242 51.2128 268.315 51.1675 268.368C51.1221 268.421 51.0607 268.451 50.9966 268.451Z" fill="#2E2E47"/><path d="M88.2163 257.81C88.1522 257.81 88.0907 257.78 88.0454 257.726C88.0001 257.673 87.9746 257.6 87.9746 257.525V244.068C87.9746 243.992 88.0001 243.92 88.0454 243.866C88.0907 243.813 88.1522 243.783 88.2163 243.783C88.2804 243.783 88.3419 243.813 88.3872 243.866C88.4325 243.92 88.458 243.992 88.458 244.068V257.525C88.458 257.6 88.4325 257.673 88.3872 257.726C88.3419 257.78 88.2804 257.81 88.2163 257.81Z" fill="#2E2E47"/><path d="M69.3655 193.962C69.3014 193.962 69.2399 193.932 69.1946 193.878C69.1493 193.825 69.1238 193.752 69.1238 193.677V180.22C69.1238 180.144 69.1493 180.072 69.1946 180.018C69.2399 179.965 69.3014 179.935 69.3655 179.935C69.4296 179.935 69.491 179.965 69.5364 180.018C69.5817 180.072 69.6072 180.144 69.6072 180.22V193.677C69.6072 193.752 69.5817 193.825 69.5364 193.878C69.491 193.932 69.4296 193.962 69.3655 193.962Z" fill="#2E2E47"/><path d="M72.2661 263.13C72.202 263.13 72.1405 263.1 72.0952 263.046C72.0499 262.992 72.0244 262.919 72.0244 262.843V254.227C72.0244 254.151 72.0499 254.078 72.0952 254.024C72.1405 253.97 72.202 253.94 72.2661 253.94C72.3302 253.94 72.3917 253.97 72.437 254.024C72.4823 254.078 72.5078 254.151 72.5078 254.227V262.843C72.5078 262.919 72.4823 262.992 72.437 263.046C72.3917 263.1 72.3302 263.13 72.2661 263.13Z" fill="#2E2E47"/><path d="M73.2319 282.962C73.1678 282.962 73.1064 282.932 73.061 282.878C73.0157 282.825 72.9902 282.752 72.9902 282.676V276.96C72.9902 276.884 73.0157 276.811 73.061 276.758C73.1064 276.704 73.1678 276.674 73.2319 276.674C73.296 276.674 73.3575 276.704 73.4028 276.758C73.4481 276.811 73.4736 276.884 73.4736 276.96V282.676C73.4736 282.752 73.4481 282.825 73.4028 282.878C73.3575 282.932 73.296 282.962 73.2319 282.962Z" fill="#2E2E47"/><path d="M72.2661 328.913C72.202 328.913 72.1405 328.883 72.0952 328.829C72.0499 328.776 72.0244 328.703 72.0244 328.627V322.911C72.0244 322.835 72.0499 322.762 72.0952 322.709C72.1405 322.655 72.202 322.625 72.2661 322.625C72.3302 322.625 72.3917 322.655 72.437 322.709C72.4823 322.762 72.5078 322.835 72.5078 322.911V328.627C72.5078 328.703 72.4823 328.776 72.437 328.829C72.3917 328.883 72.3302 328.913 72.2661 328.913Z" fill="#2E2E47"/><path d="M108.035 235.56C107.971 235.56 107.909 235.53 107.864 235.476C107.819 235.422 107.793 235.349 107.793 235.274V226.172C107.793 226.096 107.819 226.023 107.864 225.97C107.909 225.916 107.971 225.886 108.035 225.886C108.099 225.886 108.16 225.916 108.206 225.97C108.251 226.023 108.277 226.096 108.277 226.172V235.274C108.277 235.349 108.251 235.422 108.206 235.476C108.16 235.53 108.099 235.56 108.035 235.56Z" fill="#2E2E47"/><path d="M88.2163 195.897C88.1522 195.897 88.0907 195.867 88.0454 195.813C88.0001 195.759 87.9746 195.686 87.9746 195.611V186.509C87.9746 186.433 88.0001 186.36 88.0454 186.307C88.0907 186.253 88.1522 186.223 88.2163 186.223C88.2804 186.223 88.3419 186.253 88.3872 186.307C88.4325 186.36 88.458 186.433 88.458 186.509V195.611C88.458 195.686 88.4325 195.759 88.3872 195.813C88.3419 195.867 88.2804 195.897 88.2163 195.897Z" fill="#2E2E47"/><path d="M97.8833 237.978C97.8192 237.978 97.7577 237.949 97.7124 237.897C97.6671 237.845 97.6416 237.774 97.6416 237.7V229.55C97.6416 229.476 97.6671 229.405 97.7124 229.353C97.7577 229.301 97.8192 229.272 97.8833 229.272C97.9474 229.272 98.0088 229.301 98.0542 229.353C98.0995 229.405 98.125 229.476 98.125 229.55V237.7C98.125 237.774 98.0995 237.845 98.0542 237.897C98.0088 237.949 97.9474 237.978 97.8833 237.978Z" fill="#2E2E47"/><path d="M134.863 193.478C134.735 193.478 134.612 193.449 134.521 193.397C134.431 193.345 134.38 193.274 134.38 193.2V185.05C134.38 184.976 134.431 184.905 134.521 184.853C134.612 184.801 134.735 184.772 134.863 184.772C134.991 184.772 135.114 184.801 135.205 184.853C135.296 184.905 135.347 184.976 135.347 185.05V193.2C135.347 193.274 135.296 193.345 135.205 193.397C135.114 193.449 134.991 193.478 134.863 193.478Z" fill="#2E2E47"/><path d="M141.872 183.804C141.808 183.804 141.747 183.774 141.701 183.72C141.656 183.666 141.631 183.593 141.631 183.516V178.772C141.631 178.695 141.656 178.622 141.701 178.568C141.747 178.514 141.808 178.484 141.872 178.484C141.936 178.484 141.998 178.514 142.043 178.568C142.089 178.622 142.114 178.695 142.114 178.772V183.516C142.114 183.593 142.089 183.666 142.043 183.72C141.998 183.774 141.936 183.804 141.872 183.804Z" fill="#2E2E47"/><path d="M158.791 198.315C158.726 198.315 158.665 198.285 158.62 198.231C158.574 198.177 158.549 198.103 158.549 198.027V193.283C158.549 193.207 158.574 193.133 158.62 193.079C158.665 193.025 158.726 192.995 158.791 192.995C158.855 192.995 158.916 193.025 158.961 193.079C159.007 193.133 159.032 193.207 159.032 193.283V198.027C159.032 198.103 159.007 198.177 158.961 198.231C158.916 198.285 158.855 198.315 158.791 198.315Z" fill="#2E2E47"/><path d="M184.41 186.707C184.346 186.707 184.284 186.676 184.239 186.623C184.193 186.569 184.168 186.496 184.168 186.419V177.804C184.168 177.727 184.193 177.654 184.239 177.6C184.284 177.547 184.346 177.516 184.41 177.516C184.474 177.516 184.535 177.547 184.581 177.6C184.626 177.654 184.651 177.727 184.651 177.804V186.419C184.651 186.496 184.626 186.569 184.581 186.623C184.535 186.676 184.474 186.707 184.41 186.707Z" fill="#2E2E47"/><path d="M212.445 183.804C212.381 183.804 212.319 183.774 212.274 183.72C212.229 183.666 212.203 183.593 212.203 183.516V178.772C212.203 178.695 212.229 178.622 212.274 178.568C212.319 178.514 212.381 178.484 212.445 178.484C212.509 178.484 212.57 178.514 212.616 178.568C212.661 178.622 212.687 178.695 212.687 178.772V183.516C212.687 183.593 212.661 183.666 212.616 183.72C212.57 183.774 212.509 183.804 212.445 183.804Z" fill="#2E2E47"/><path d="M252.566 191.06C252.502 191.06 252.44 191.029 252.395 190.975C252.35 190.921 252.324 190.848 252.324 190.772V186.027C252.324 185.951 252.35 185.878 252.395 185.824C252.44 185.77 252.502 185.739 252.566 185.739C252.63 185.739 252.691 185.77 252.737 185.824C252.782 185.878 252.807 185.951 252.807 186.027V190.772C252.807 190.848 252.782 190.921 252.737 190.975C252.691 191.029 252.63 191.06 252.566 191.06Z" fill="#2E2E47"/><path d="M279.152 181.87C279.088 181.87 279.026 181.839 278.981 181.785C278.935 181.731 278.91 181.658 278.91 181.581V176.837C278.91 176.761 278.935 176.687 278.981 176.633C279.026 176.579 279.088 176.549 279.152 176.549C279.216 176.549 279.277 176.579 279.322 176.633C279.368 176.687 279.393 176.761 279.393 176.837V181.581C279.393 181.658 279.368 181.731 279.322 181.785C279.277 181.839 279.216 181.87 279.152 181.87Z" fill="#2E2E47"/><path d="M226.947 183.321C226.883 183.321 226.821 183.29 226.776 183.234C226.731 183.178 226.705 183.103 226.705 183.024V175.395C226.705 175.316 226.731 175.24 226.776 175.185C226.821 175.129 226.883 175.098 226.947 175.098C227.011 175.098 227.072 175.129 227.118 175.185C227.163 175.24 227.188 175.316 227.188 175.395V183.024C227.188 183.063 227.182 183.102 227.17 183.138C227.158 183.174 227.14 183.206 227.118 183.234C227.095 183.261 227.069 183.283 227.039 183.298C227.01 183.313 226.979 183.321 226.947 183.321Z" fill="#2E2E47"/><path d="M234.681 194.929C234.617 194.929 234.556 194.899 234.51 194.845C234.465 194.791 234.439 194.718 234.439 194.641V183.125C234.439 183.048 234.465 182.975 234.51 182.921C234.556 182.867 234.617 182.837 234.681 182.837C234.745 182.837 234.807 182.867 234.852 182.921C234.897 182.975 234.923 183.048 234.923 183.125V194.641C234.923 194.718 234.897 194.791 234.852 194.845C234.807 194.899 234.745 194.929 234.681 194.929Z" fill="#2E2E47"/><path d="M283.26 195.413C283.132 195.413 283.009 195.382 282.918 195.327C282.827 195.273 282.776 195.198 282.776 195.121V180.711C282.776 180.633 282.827 180.559 282.918 180.504C283.009 180.449 283.132 180.418 283.26 180.418C283.388 180.418 283.511 180.449 283.602 180.504C283.692 180.559 283.743 180.633 283.743 180.711V195.121C283.743 195.198 283.692 195.273 283.602 195.327C283.511 195.382 283.388 195.413 283.26 195.413Z" fill="#2E2E47"/><path d="M189.243 197.832C189.179 197.832 189.117 197.801 189.072 197.748C189.026 197.694 189.001 197.622 189.001 197.546V186.024C189.001 185.949 189.026 185.876 189.072 185.823C189.117 185.769 189.179 185.739 189.243 185.739C189.307 185.739 189.368 185.769 189.414 185.823C189.459 185.876 189.484 185.949 189.484 186.024V197.546C189.484 197.622 189.459 197.694 189.414 197.748C189.368 197.801 189.307 197.832 189.243 197.832Z" fill="#2E2E47"/><path d="M162.657 187.19C162.593 187.19 162.531 187.16 162.486 187.106C162.441 187.053 162.415 186.98 162.415 186.904V177.803C162.415 177.727 162.441 177.654 162.486 177.6C162.531 177.547 162.593 177.516 162.657 177.516C162.721 177.516 162.782 177.547 162.828 177.6C162.873 177.654 162.898 177.727 162.898 177.803V186.904C162.898 186.98 162.873 187.053 162.828 187.106C162.782 187.16 162.721 187.19 162.657 187.19Z" fill="#2E2E47"/><path d="M205.678 193.962C205.614 193.962 205.552 193.932 205.507 193.878C205.462 193.825 205.436 193.752 205.436 193.676V184.574C205.436 184.498 205.462 184.425 205.507 184.372C205.552 184.318 205.614 184.288 205.678 184.288C205.742 184.288 205.804 184.318 205.849 184.372C205.894 184.425 205.92 184.498 205.92 184.574V193.676C205.92 193.752 205.894 193.825 205.849 193.878C205.804 193.932 205.742 193.962 205.678 193.962Z" fill="#2E2E47"/><path d="M92.0842 189.609C92.0201 189.609 91.9587 189.578 91.9133 189.523C91.868 189.468 91.8425 189.393 91.8425 189.315V180.712C91.8425 180.634 91.868 180.56 91.9133 180.504C91.9587 180.449 92.0201 180.418 92.0842 180.418C92.1483 180.418 92.2098 180.449 92.2551 180.504C92.3004 180.56 92.3259 180.634 92.3259 180.712V189.315C92.3259 189.393 92.3004 189.468 92.2551 189.523C92.2098 189.578 92.1483 189.609 92.0842 189.609Z" fill="#2E2E47"/><path d="M93.292 321.658C93.1638 321.658 93.0409 321.628 92.9502 321.576C92.8596 321.524 92.8086 321.453 92.8086 321.379V313.229C92.8086 313.155 92.8596 313.085 92.9502 313.032C93.0409 312.98 93.1638 312.951 93.292 312.951C93.4202 312.951 93.5433 312.98 93.634 313.032C93.7246 313.085 93.7754 313.155 93.7754 313.229V321.379C93.7754 321.453 93.7246 321.524 93.634 321.576C93.5433 321.628 93.4202 321.658 93.292 321.658Z" fill="#2E2E47"/><path d="M64.0483 311.016C63.9842 311.016 63.9228 310.986 63.8774 310.931C63.8321 310.877 63.8066 310.803 63.8066 310.726V306.47C63.8066 306.393 63.8321 306.319 63.8774 306.264C63.9228 306.21 63.9842 306.179 64.0483 306.179C64.1124 306.179 64.1739 306.21 64.2192 306.264C64.2645 306.319 64.29 306.393 64.29 306.47V310.726C64.29 310.803 64.2645 310.877 64.2192 310.931C64.1739 310.986 64.1124 311.016 64.0483 311.016Z" fill="#2E2E47"/><path d="M50.9966 311.984C50.9325 311.984 50.871 311.953 50.8257 311.899C50.7804 311.844 50.7549 311.77 50.7549 311.693V307.437C50.7549 307.36 50.7804 307.286 50.8257 307.232C50.871 307.177 50.9325 307.147 50.9966 307.147C51.0607 307.147 51.1221 307.177 51.1675 307.232C51.2128 307.286 51.2383 307.36 51.2383 307.437V311.693C51.2383 311.77 51.2128 311.844 51.1675 311.899C51.1221 311.953 51.0607 311.984 50.9966 311.984Z" fill="#2E2E47"/><path d="M43.5041 191.543C43.3759 191.543 43.253 191.513 43.1624 191.458C43.0717 191.404 43.0208 191.33 43.0208 191.253V186.997C43.0208 186.92 43.0717 186.846 43.1624 186.792C43.253 186.737 43.3759 186.707 43.5041 186.707C43.6323 186.707 43.7552 186.737 43.8459 186.792C43.9365 186.846 43.9875 186.92 43.9875 186.997V191.253C43.9875 191.33 43.9365 191.404 43.8459 191.458C43.7552 191.513 43.6323 191.543 43.5041 191.543Z" fill="#2E2E47"/><path d="M49.063 190.576C48.9989 190.576 48.9373 190.545 48.892 190.49C48.8467 190.434 48.8213 190.359 48.8213 190.281V179.746C48.8213 179.668 48.8467 179.593 48.892 179.537C48.9373 179.482 48.9989 179.451 49.063 179.451C49.1271 179.451 49.1885 179.482 49.2339 179.537C49.2792 179.593 49.3047 179.668 49.3047 179.746V190.281C49.3047 190.359 49.2792 190.434 49.2339 190.49C49.1885 190.545 49.1271 190.576 49.063 190.576Z" fill="#2E2E47"/><path d="M45.4375 318.755C45.3093 318.755 45.1864 318.726 45.0957 318.674C45.0051 318.623 44.9541 318.552 44.9541 318.479V309.842C44.9541 309.768 45.0051 309.698 45.0957 309.646C45.1864 309.594 45.3093 309.565 45.4375 309.565C45.5657 309.565 45.6886 309.594 45.7792 309.646C45.8699 309.698 45.9209 309.768 45.9209 309.842V318.479C45.9209 318.552 45.8699 318.623 45.7792 318.674C45.6886 318.726 45.5657 318.755 45.4375 318.755Z" fill="#2E2E47"/><path d="M97.8833 273.288C97.8192 273.288 97.7577 273.257 97.7124 273.203C97.6671 273.148 97.6416 273.074 97.6416 272.996V264.873C97.6416 264.796 97.6671 264.722 97.7124 264.667C97.7577 264.612 97.8192 264.582 97.8833 264.582C97.9474 264.582 98.0088 264.612 98.0542 264.667C98.0995 264.722 98.125 264.796 98.125 264.873V272.996C98.125 273.074 98.0995 273.148 98.0542 273.203C98.0088 273.257 97.9474 273.288 97.8833 273.288Z" fill="#2E2E47"/><path d="M111.419 323.109C111.355 323.109 111.294 323.079 111.248 323.025C111.203 322.971 111.178 322.899 111.178 322.823V311.786C111.178 311.71 111.203 311.637 111.248 311.584C111.294 311.53 111.355 311.5 111.419 311.5C111.484 311.5 111.545 311.53 111.59 311.584C111.636 311.637 111.661 311.71 111.661 311.786V322.823C111.661 322.899 111.636 322.971 111.59 323.025C111.545 323.079 111.484 323.109 111.419 323.109Z" fill="#2E2E47"/><path d="M121.571 248.62C121.506 248.62 121.445 248.588 121.4 248.533C121.354 248.478 121.329 248.402 121.329 248.324V233.437C121.329 233.358 121.354 233.283 121.4 233.228C121.445 233.173 121.506 233.141 121.571 233.141C121.635 233.141 121.696 233.173 121.741 233.228C121.787 233.283 121.812 233.358 121.812 233.437V248.324C121.812 248.402 121.787 248.478 121.741 248.533C121.696 248.588 121.635 248.62 121.571 248.62Z" fill="#2E2E47"/><path d="M121.571 287.799C121.506 287.799 121.445 287.769 121.4 287.717C121.354 287.664 121.329 287.592 121.329 287.518V274.053C121.329 273.978 121.354 273.907 121.4 273.854C121.445 273.801 121.506 273.772 121.571 273.772C121.635 273.772 121.696 273.801 121.741 273.854C121.787 273.907 121.812 273.978 121.812 274.053V287.518C121.812 287.592 121.787 287.664 121.741 287.717C121.696 287.769 121.635 287.799 121.571 287.799Z" fill="#2E2E47"/><path d="M338.366 201.701H34.3203V211.375H338.366V201.701Z" fill="white"/><path d="M338.366 213.794L34.3203 212.341V210.891H338.366V213.794Z" fill="#2E2E47"/><path d="M338.366 291.185H34.3203V300.859H338.366V291.185Z" fill="white"/><path d="M338.366 303.277L34.3203 301.826V300.375H338.366V303.277Z" fill="#2E2E47"/><path d="M196.796 138.603C196.796 138.603 204.574 169.429 205.896 171.622C207.218 173.816 153.493 172.086 148.037 170.994C142.581 169.901 145.851 161.891 147.51 159.51C149.169 157.129 165.548 134.801 165.548 134.801L170.989 133.016C170.989 133.016 161.751 155.275 162.768 157.025C163.785 158.775 171.156 165.053 173.801 164.851C176.445 164.649 186.221 162.176 188.382 159.395C190.542 156.613 193.348 135.394 193.348 135.394C193.348 135.394 194.918 135.939 196.796 138.603Z" fill="#2E2E47"/><path d="M123.345 155.946C123.345 155.946 163.707 158.339 169.063 170.414C172.246 177.582 111.38 184.055 96.2495 173.14C81.1191 162.225 108.628 154.394 123.345 155.946Z" fill="#CC8B70"/><path d="M164.698 166.204C164.698 166.204 171.771 170.856 176.021 174.76C177.264 175.912 181.382 185.618 180.71 186.162C180.038 186.706 177.636 183.473 177.636 183.473C177.636 183.473 179.634 188.451 179.268 188.762C178.902 189.073 177.601 187.93 177.601 187.93C177.601 187.93 177.968 189.559 177.313 189.608C176.659 189.657 171.258 182.148 170.849 181.935C170.439 181.722 171.809 183.87 172.08 184.469C172.351 185.068 173.596 186.649 172.945 187.23C172.293 187.812 168.043 181.4 166.858 180.245C165.673 179.091 163.314 179.744 159.903 176.214C157.611 173.833 155.915 168.441 158.136 165.979C160.356 163.517 164.698 166.204 164.698 166.204Z" fill="#CC8B70"/><path d="M200.703 91.1602C200.703 91.1602 200.57 86.2576 195.027 85.3024C189.485 84.3471 181.202 87.5629 180.088 90.2107C178.974 92.8585 176.944 93.5843 175.876 94.1121C174.809 94.64 170.811 97.8414 170.212 100.334C169.613 102.827 169.671 105.38 168.166 106.359C166.662 107.337 164.944 112.652 165.386 115.742C165.829 118.832 170.735 123.628 175.101 125.209C179.466 126.789 208.595 100.541 200.703 91.1602Z" fill="#774237"/><path d="M194.882 119.598C195.373 119.894 195.919 120.083 196.484 120.152C197.05 120.22 197.623 120.168 198.168 119.997C199.692 119.554 201.296 116.418 200.792 114.908C200.289 113.398 198.981 112.763 198.731 112.532C198.481 112.302 202.106 107.242 202.052 103.047C201.998 98.8526 200.303 94.0605 194.879 91.679C189.455 89.2975 185.364 90.8745 182.507 92.262C179.65 93.6495 177.176 98.2696 175.886 100.409C174.595 102.549 173.754 102.948 172.758 103.939C170.456 106.23 169.117 108 168.38 111.576C167.644 115.153 169.327 119.945 174.453 122.536C179.579 125.128 188.992 126.909 194.882 119.598Z" fill="#CC8B70"/><path d="M180.366 111.25C179.7 111.25 178.942 110.859 178.088 110.368C177.518 110.04 176.926 109.626 176.917 109.047C176.909 108.468 177.401 107.966 178.626 107.207C180.446 106.065 181.845 103.819 182.229 103.152L182.255 103.118C182.255 103.118 183.326 101.765 183.078 100.609C183.008 100.339 182.877 100.089 182.695 99.8789C182.513 99.6685 182.284 99.5034 182.027 99.3965C180.805 98.6745 178.894 97.7129 178.387 97.807C178.35 97.814 178.311 97.8135 178.274 97.8055C178.237 97.7976 178.202 97.7824 178.17 97.7608C178.139 97.7392 178.112 97.7117 178.091 97.6797C178.071 97.6477 178.056 97.612 178.049 97.5745C178.043 97.537 178.043 97.4986 178.051 97.4613C178.059 97.424 178.074 97.3887 178.096 97.3573C178.117 97.3259 178.145 97.299 178.177 97.2783C178.208 97.2575 178.244 97.2433 178.282 97.2363C179.17 97.0651 181.785 98.5804 182.3 98.8857C182.631 99.0299 182.923 99.2487 183.155 99.525C183.386 99.8012 183.551 100.127 183.636 100.478C183.921 101.836 182.856 103.26 182.711 103.446C182.189 104.347 180.794 106.522 178.928 107.68C178.569 107.903 177.481 108.579 177.49 109.024C177.49 109.25 177.775 109.524 178.373 109.863C180.01 110.802 180.606 110.893 181.133 110.286C181.182 110.228 181.253 110.193 181.329 110.188C181.404 110.183 181.479 110.208 181.536 110.258C181.593 110.308 181.628 110.379 181.633 110.455C181.638 110.53 181.613 110.605 181.563 110.662C181.421 110.845 181.24 110.993 181.032 111.095C180.825 111.197 180.597 111.25 180.366 111.25Z" fill="#2E2E47"/><path d="M191.617 104.962C191.572 104.962 191.527 104.951 191.487 104.929C191.447 104.908 191.412 104.877 191.385 104.838C190.388 103.519 189.136 102.437 187.711 101.666C187.677 101.649 187.647 101.624 187.622 101.594C187.597 101.564 187.577 101.529 187.565 101.491C187.553 101.453 187.549 101.413 187.552 101.373C187.554 101.333 187.565 101.294 187.582 101.259C187.599 101.223 187.623 101.191 187.651 101.165C187.68 101.139 187.713 101.12 187.749 101.107C187.786 101.095 187.824 101.09 187.861 101.093C187.899 101.097 187.936 101.108 187.97 101.126C189.478 101.935 190.801 103.081 191.847 104.482C191.891 104.546 191.909 104.627 191.898 104.705C191.886 104.784 191.845 104.854 191.784 104.901C191.736 104.939 191.678 104.961 191.617 104.962Z" fill="#2E2E47"/><path d="M187.031 106.072C186.806 105.949 186.543 105.904 186.287 105.943C186.031 105.983 185.797 106.105 185.625 106.289C185.336 106.636 185.052 107.105 185.157 107.538C185.353 108.355 186.468 108.42 186.893 108.303C187.317 108.185 187.562 106.928 187.551 106.714C187.54 106.5 187.405 106.258 187.031 106.072Z" fill="#2E2E47"/><path d="M189.175 108.346C189.103 108.348 189.033 108.327 188.976 108.286C188.919 108.246 188.878 108.189 188.861 108.124C188.732 107.769 188.529 107.442 188.264 107.161C187.999 106.88 187.676 106.651 187.315 106.487C186.01 105.826 185.668 106.066 185.662 106.069C185.603 106.123 185.523 106.154 185.44 106.154C185.357 106.154 185.277 106.123 185.219 106.069C185.165 106.015 185.135 105.944 185.135 105.87C185.135 105.796 185.165 105.725 185.219 105.671C185.448 105.446 186.067 105.192 187.623 105.981C188.062 106.184 188.452 106.466 188.771 106.812C189.089 107.158 189.329 107.561 189.477 107.995C189.496 108.07 189.482 108.149 189.438 108.215C189.395 108.281 189.325 108.328 189.244 108.346C189.221 108.348 189.198 108.348 189.175 108.346Z" fill="#2E2E47"/><path d="M177.874 101.238C177.644 101.102 177.377 101.06 177.121 101.118C176.865 101.176 176.636 101.331 176.473 101.556C176.183 101.982 175.876 102.555 175.966 103.07C176.131 104.043 177.236 104.081 177.656 103.925C178.077 103.77 178.37 102.253 178.367 101.998C178.365 101.831 178.317 101.669 178.228 101.534C178.14 101.398 178.017 101.295 177.874 101.238Z" fill="#2E2E47"/><path d="M179.492 103.511H179.452C179.368 103.502 179.292 103.465 179.239 103.408C179.186 103.352 179.161 103.28 179.169 103.208C179.169 103.172 179.205 102.571 178.081 102.049C176.842 101.471 176.513 101.704 176.51 101.707C176.449 101.759 176.366 101.788 176.28 101.788C176.194 101.788 176.111 101.759 176.05 101.707C175.99 101.658 175.954 101.59 175.95 101.519C175.947 101.447 175.976 101.377 176.031 101.324C176.262 101.107 176.881 100.848 178.393 101.551C179.905 102.255 179.821 103.219 179.814 103.261C179.806 103.329 179.769 103.392 179.709 103.439C179.65 103.485 179.572 103.511 179.492 103.511Z" fill="#2E2E47"/><path d="M185.033 109.484C185.033 109.484 188.894 111.16 189 112.945C189.105 114.73 184.813 112.854 183.236 111.175C181.66 109.496 184.092 109.018 185.033 109.484Z" fill="#C96B59"/><path d="M172.702 104.059C172.702 104.059 176.545 105.135 176.896 106.951C177.248 108.766 172.976 107.555 171.265 106.098C169.554 104.641 171.755 103.738 172.702 104.059Z" fill="#C96B59"/><path d="M192.949 93.9505C192.949 93.9505 189.284 98.272 193.298 101.082C195.649 102.725 196.194 106.932 194.399 108.92C192.603 110.907 193.246 113.654 192.773 115.415C190.353 124.56 203.401 145.84 210.499 133.742C213.129 129.26 208.919 124.852 209.187 123.567C210.144 118.979 215.092 118.067 213.245 111.457C212.006 107.027 210.006 108.065 210.349 105.04C210.692 102.014 213.573 99.1925 208.908 92.9783C205.862 88.9321 195.675 88.6855 192.949 93.9505Z" fill="#774237"/><path d="M193.336 93.805C193.336 93.805 188.731 95.396 184.785 94.8715C180.839 94.3471 176.66 98.8812 176.929 96.5538C177.199 94.2263 182.87 88.5432 186.556 88.0719C190.241 87.6005 197.867 91.5071 195.947 92.6619C194.027 93.8168 193.336 93.805 193.336 93.805Z" fill="#774237"/><path d="M180.952 115.109H180.901C177.547 114.441 174.242 111.434 174.104 111.305C174.052 111.25 174.021 111.176 174.017 111.096C174.013 111.017 174.037 110.94 174.084 110.879C174.13 110.818 174.196 110.779 174.269 110.769C174.341 110.759 174.414 110.779 174.473 110.826C174.507 110.857 177.803 113.855 181.004 114.491C181.081 114.499 181.151 114.539 181.2 114.603C181.249 114.667 181.273 114.75 181.266 114.833C181.259 114.916 181.222 114.993 181.164 115.046C181.105 115.1 181.029 115.126 180.952 115.118V115.109Z" fill="#2E2E47"/><path d="M240.623 150.238C240.623 150.238 212.62 109.754 206.147 111.293C199.674 112.831 220.894 169.704 236.815 171.144C252.737 172.585 243.918 155.053 240.623 150.238Z" fill="#CC8B70"/><path d="M215.99 105.947C215.533 103.894 212.952 98.579 212.041 99.253C211.707 98.5562 211.35 98.1106 210.999 98.202C209.708 98.5476 209.813 99.3044 209.813 99.3044C209.813 99.3044 208.657 98.2449 208.197 98.6704C207.737 99.0959 207.932 104.813 207.932 104.813C207.932 104.813 205.97 100.315 204.979 100.815C203.988 101.315 205.313 106.241 205.313 106.241C205.313 106.241 202.857 110.616 203.028 113.326C203.199 116.036 204.482 118.466 205.747 118.912C207.012 119.357 209.905 117.77 209.939 116.807C209.939 116.807 211.712 113.095 213.295 110.956C214.877 108.817 216.447 108.006 215.99 105.947Z" fill="#CC8B70"/><path d="M96.4774 160.587C96.425 160.587 96.3738 160.572 96.3292 160.544C96.2845 160.516 96.2483 160.476 96.2242 160.429C96.1897 160.361 96.1829 160.281 96.2055 160.208C96.2281 160.134 96.2783 160.073 96.345 160.037C96.4141 159.999 103.339 156.388 116.964 155.398C130.589 154.409 147.06 159.296 147.224 159.346C147.26 159.357 147.294 159.375 147.323 159.399C147.352 159.423 147.377 159.453 147.395 159.486C147.413 159.52 147.425 159.557 147.429 159.595C147.433 159.634 147.43 159.672 147.419 159.709C147.409 159.746 147.391 159.78 147.367 159.81C147.344 159.84 147.314 159.865 147.281 159.884C147.248 159.902 147.212 159.914 147.174 159.918C147.137 159.922 147.099 159.919 147.062 159.908C146.898 159.858 130.517 155 117.007 155.981C103.497 156.961 96.6788 160.52 96.6126 160.555C96.5708 160.577 96.5243 160.588 96.4774 160.587Z" fill="#2E2E47"/><path d="M127.807 156.234C127.777 156.234 127.747 156.229 127.718 156.219C118.755 153.166 109.673 154.902 109.584 154.92C109.547 154.927 109.509 154.927 109.472 154.919C109.435 154.911 109.4 154.895 109.369 154.873C109.337 154.851 109.311 154.822 109.29 154.789C109.27 154.756 109.255 154.719 109.248 154.68C109.241 154.642 109.242 154.602 109.25 154.563C109.257 154.525 109.272 154.488 109.294 154.456C109.315 154.423 109.342 154.395 109.374 154.374C109.406 154.352 109.441 154.337 109.478 154.33C109.57 154.312 118.795 152.55 127.897 155.65C127.933 155.662 127.966 155.682 127.995 155.707C128.024 155.733 128.047 155.765 128.064 155.8C128.082 155.835 128.092 155.874 128.094 155.913C128.097 155.953 128.092 155.993 128.08 156.03C128.061 156.09 128.024 156.141 127.975 156.178C127.926 156.214 127.868 156.234 127.807 156.234Z" fill="#2E2E47"/><path d="M171.411 167.358C171.363 167.358 171.315 167.346 171.272 167.324C171.23 167.301 171.194 167.269 171.167 167.23C171.14 167.19 171.123 167.145 171.119 167.098C171.114 167.051 171.121 167.003 171.139 166.959C171.931 165.039 173.886 156.55 173.903 156.466C173.912 156.428 173.928 156.392 173.951 156.36C173.973 156.328 174.002 156.301 174.036 156.28C174.069 156.259 174.106 156.245 174.145 156.238C174.185 156.231 174.225 156.232 174.263 156.241C174.302 156.249 174.339 156.265 174.372 156.287C174.404 156.309 174.432 156.337 174.453 156.37C174.475 156.403 174.489 156.44 174.496 156.478C174.503 156.516 174.502 156.555 174.494 156.593C174.411 156.943 172.506 165.213 171.697 167.176C171.675 167.232 171.635 167.279 171.584 167.312C171.532 167.345 171.472 167.361 171.411 167.358Z" fill="#2E2E47"/><path d="M230.772 169.293C230.711 169.293 230.652 169.272 230.603 169.234C222.886 163.265 216.162 148.081 216.094 147.928C216.064 147.858 216.062 147.78 216.089 147.709C216.116 147.639 216.169 147.582 216.238 147.551C216.306 147.521 216.383 147.519 216.453 147.546C216.522 147.574 216.578 147.628 216.608 147.697C216.675 147.848 223.346 162.9 230.943 168.781C230.973 168.803 230.998 168.832 231.017 168.864C231.035 168.897 231.048 168.933 231.053 168.97C231.058 169.008 231.055 169.046 231.045 169.082C231.036 169.118 231.019 169.152 230.997 169.182C230.97 169.217 230.936 169.245 230.897 169.265C230.858 169.284 230.815 169.294 230.772 169.293Z" fill="#2E2E47"/><path d="M101.994 278.609H11.6016V349.712H101.994V278.609Z" fill="#CC8B70"/><path d="M25.6191 278.609H25.1357V349.712H25.6191V278.609Z" fill="#2E2E47"/><path d="M39.6367 278.609H38.6699V349.712H39.6367V278.609Z" fill="#2E2E47"/><path d="M53.6543 278.609H52.6875V349.712H53.6543V278.609Z" fill="#2E2E47"/><path d="M67.1902 278.609H66.7068V349.712H67.1902V278.609Z" fill="#2E2E47"/><path d="M81.2077 278.609H80.7244V349.712H81.2077V278.609Z" fill="#2E2E47"/><path d="M95.2265 278.609H94.7432V349.712H95.2265V278.609Z" fill="#2E2E47"/><path d="M101.994 291.668H11.6016V295.538H101.994V291.668Z" fill="#EAE6E4"/><path d="M101.994 296.506L11.6016 296.022V295.538H101.994V296.506Z" fill="#2E2E47"/><path d="M101.994 328.913H11.6016V333.266H101.994V328.913Z" fill="#EAE6E4"/><path d="M101.994 333.75L11.6016 333.268V332.783H101.994V333.75Z" fill="#2E2E47"/><path d="M71.1233 318.272C53.6926 318.272 41.2168 285.98 40.6739 284.546C40.5436 284.063 40.5954 283.548 40.8193 283.102C41.0432 282.656 41.4232 282.309 41.8857 282.129C42.3482 281.95 42.8602 281.95 43.3226 282.13C43.785 282.309 44.1649 282.656 44.3886 283.103C44.4229 283.189 47.7232 291.813 53.0353 299.951C57.7044 307.112 64.9196 315.377 72.7519 314.116C74.2322 313.91 75.6537 313.395 76.9256 312.603C78.1974 311.81 79.2918 310.759 80.1386 309.516C86.0821 301.117 83.3676 284.748 83.339 284.583C83.3017 284.083 83.4503 283.586 83.7559 283.19C84.0615 282.794 84.5022 282.527 84.992 282.441C85.4818 282.356 85.9856 282.457 86.4054 282.726C86.8251 282.995 87.1306 283.412 87.2623 283.897C87.3909 284.635 90.2912 302.078 83.3818 311.848C82.2284 313.525 80.745 314.945 79.0243 316.018C77.3036 317.091 75.3825 317.794 73.3806 318.084C72.6343 318.207 71.8795 318.27 71.1233 318.272Z" fill="#FFC97D"/><path d="M44.722 286.446C46.0481 285.119 46.0481 282.968 44.722 281.641C43.3959 280.314 41.2458 280.314 39.9197 281.641C38.5936 282.968 38.5936 285.119 39.9197 286.446C41.2458 287.773 43.3959 287.773 44.722 286.446Z" fill="#FFC97D"/><path d="M87.8411 286.446C89.1672 285.119 89.1672 282.967 87.8411 281.64C86.515 280.313 84.365 280.313 83.0388 281.64C81.7127 282.967 81.7127 285.119 83.0388 286.446C84.365 287.773 86.515 287.773 87.8411 286.446Z" fill="#FFC97D"/><path d="M320.15 175.582C320.15 175.582 323.069 219.368 320.15 230.148C317.232 240.929 296.314 237.693 295.018 238.616C293.722 239.538 268.759 247.652 268.759 247.652C268.759 247.652 300.686 211.561 304.734 203.22C308.783 194.878 320.15 175.582 320.15 175.582Z" fill="#2E2E47"/><path d="M259.72 170.817C259.72 170.817 263.007 185.768 264.393 191.752C265.779 197.736 263.228 247.743 265.935 249.906C268.641 252.069 291.367 232.214 301.85 232.156C312.333 232.098 312.641 234.371 316.495 229.057C320.348 223.743 320.964 170.817 320.964 170.817C320.964 170.817 305.856 167.092 297.225 168.175C288.595 169.258 280.116 169.723 274.876 169.723C269.636 169.723 258.155 163.736 259.72 170.817Z" fill="#FFE2BD"/><path d="M282.014 235.076H281.95C281.464 234.955 280.454 234.707 277.609 202.995C276.221 187.411 275.055 171.705 275.044 171.538C275.038 171.462 275.062 171.386 275.11 171.329C275.158 171.271 275.226 171.235 275.299 171.229C275.372 171.223 275.445 171.248 275.5 171.298C275.556 171.348 275.59 171.418 275.596 171.495C278.885 216.242 281.289 233.665 282.114 234.513C282.177 234.538 282.23 234.586 282.261 234.648C282.293 234.71 282.302 234.783 282.286 234.851C282.272 234.915 282.238 234.972 282.188 235.013C282.139 235.054 282.077 235.076 282.014 235.076Z" fill="#2E2E47"/><path d="M288.767 230.711C288.706 230.712 288.645 230.692 288.595 230.657C285.633 228.545 282.841 218.87 282.776 217.467C282.776 217.391 282.807 217.318 282.862 217.264C282.917 217.21 282.991 217.179 283.068 217.179C283.143 217.179 283.215 217.208 283.27 217.259C283.324 217.31 283.356 217.379 283.36 217.453C283.433 219.072 286.278 228.303 288.94 230.202C288.99 230.237 289.027 230.288 289.046 230.346C289.065 230.404 289.065 230.466 289.046 230.524C289.027 230.582 288.99 230.633 288.94 230.668C288.889 230.704 288.829 230.723 288.767 230.723V230.711Z" fill="#2E2E47"/></svg>