<svg width="19" height="19" viewBox="0 0 19 19" fill="none" xmlns="http://www.w3.org/2000/svg">
<path d="M9.8 8.99961V2.99961H11.8V5.59961L16.8 0.599609L18.2 1.99961L13.2 6.99961H15.8V8.99961H9.8ZM16.95 18.9996C14.8 18.9996 12.7043 18.5203 10.663 17.5616C8.621 16.6036 6.81267 15.3369 5.238 13.7616C3.66267 12.1869 2.396 10.3786 1.438 8.33661C0.479334 6.29528 0 4.19961 0 2.04961C0 1.74961 0.0999999 1.49961 0.3 1.29961C0.5 1.09961 0.75 0.999609 1.05 0.999609H5.1C5.33333 0.999609 5.54167 1.07461 5.725 1.22461C5.90833 1.37461 6.01667 1.56628 6.05 1.79961L6.7 5.29961C6.73333 5.53294 6.72933 5.74528 6.688 5.93661C6.646 6.12861 6.55 6.29961 6.4 6.44961L4 8.89961C4.7 10.0996 5.575 11.2246 6.625 12.2746C7.675 13.3246 8.83333 14.2329 10.1 14.9996L12.45 12.6496C12.6 12.4996 12.796 12.3869 13.038 12.3116C13.2793 12.2369 13.5167 12.2163 13.75 12.2496L17.2 12.9496C17.4333 12.9996 17.625 13.1119 17.775 13.2866C17.925 13.4619 18 13.6663 18 13.8996V17.9496C18 18.2496 17.9 18.4996 17.7 18.6996C17.5 18.8996 17.25 18.9996 16.95 18.9996Z" fill="#676966"/>
</svg>
