<svg width="24" height="24" viewBox="0 0 24 24" fill="none" xmlns="http://www.w3.org/2000/svg">
<rect width="24" height="24" fill="white"/>
<g clip-path="url(#clip0_652_1470)">
<path d="M2.809 16.3527L2.55963 11.1624C1.6303 10.883 0.963814 10.597 0.532471 10.3835L0.975796 16.2988C1.19596 16.4695 1.49251 16.677 1.87592 16.8956C2.15525 17.0536 2.48175 17.2199 2.85768 17.3846L2.809 16.3527Z" fill="#676966"/>
<path d="M2.8929 18.0998H1.11061L1.03198 17.0657C1.15105 17.1466 1.28285 17.2304 1.42588 17.3165C1.81754 17.5517 2.30055 17.7996 2.8899 18.0407L2.8929 18.0998Z" fill="#676966"/>
<path d="M6.45288 18.0999H4.97763C4.26921 17.9194 3.65963 17.7127 3.13768 17.5023L3.07777 16.2337L2.83813 11.2463C3.74425 11.5039 4.87803 11.7511 6.25818 11.9226L6.36676 15.3404L6.45288 18.0999Z" fill="#676966"/>
<path d="M10.9879 18.1H6.72618L6.63707 15.2947L6.53223 11.9556C7.64803 12.0844 8.92184 12.1637 10.3582 12.1637C10.5544 12.1637 10.7558 12.1623 10.9595 12.1593L10.9737 14.9607L10.9879 18.1Z" fill="#676966"/>
<path d="M19.3587 11.2073L19.0621 16.1767L18.9873 17.4273C18.3605 17.6684 17.6281 17.8998 16.7781 18.0998H15.7417L15.8083 15.3208L15.893 11.8288C17.2881 11.6543 18.4368 11.4304 19.3587 11.2073Z" fill="#676966"/>
<path d="M18.9485 18.0737L18.947 18.0999H18.8713C18.8983 18.0917 18.9238 18.0835 18.9485 18.0737Z" fill="#676966"/>
<path d="M21.2489 16.9939L21.1657 18.1H19.2209L19.2284 17.9697C19.2359 17.9659 19.2427 17.9637 19.2502 17.9614C19.859 17.7263 20.3712 17.4844 20.7965 17.2538C20.9598 17.1654 21.1103 17.0793 21.2489 16.9939Z" fill="#676966"/>
<path d="M21.7385 10.4653L21.3035 16.263C21.0443 16.4375 20.7193 16.6329 20.3202 16.8381C20.0192 16.9939 19.6754 17.1526 19.289 17.3107C19.2815 17.3129 19.2755 17.3152 19.2688 17.3189L19.3302 16.29L19.6372 11.1386V11.1371C20.6055 10.8884 21.2982 10.6436 21.7385 10.4653Z" fill="#676966"/>
<path d="M22 6.98389L21.994 7.05952C21.9955 7.06102 21.9955 7.06177 21.994 7.06327L21.7881 9.81682C21.4384 9.96734 20.7442 10.2384 19.6733 10.5215L19.7961 8.47187C19.7804 8.47636 19.7647 8.48161 19.749 8.4861C19.6853 8.50557 19.6187 8.52429 19.5528 8.54301C19.5408 8.54676 19.5288 8.549 19.5168 8.55275L19.3948 10.5941C18.4834 10.8255 17.3257 11.0592 15.9073 11.2412L15.9567 9.19527C15.9448 9.19677 15.9328 9.19752 15.9208 9.19901C15.8571 9.2065 15.7927 9.21324 15.7283 9.22073C15.7126 9.22223 15.6984 9.22447 15.6827 9.22522L15.6332 11.2749C14.3692 11.4306 12.9036 11.5422 11.2299 11.5774L11.2195 9.45063H10.9469L10.9574 11.5826C9.25969 11.6103 7.78219 11.5212 6.51287 11.367L6.44547 9.21025C6.35261 9.19976 6.26125 9.19003 6.17064 9.17879L6.23954 11.3325C4.83692 11.1505 3.6994 10.8892 2.80751 10.6248L2.71091 8.62314L2.70717 8.53852L2.68695 8.11691L2.67946 7.96489L2.64127 7.17335C2.62554 7.1696 2.61131 7.16586 2.59559 7.16137C2.53043 7.14339 2.46453 7.11643 2.40013 7.08274C2.38815 7.07525 2.37467 7.06926 2.36269 7.06102L2.40088 7.87802L2.40912 8.04203L2.42934 8.45764L2.43308 8.55275L2.52969 10.5387C1.47529 10.207 0.805062 9.87973 0.480057 9.70225L0.337025 7.75971C0.337025 7.75971 0.337025 7.75521 0.335527 7.74398C0.334029 7.73424 0.333281 7.71852 0.331783 7.6968C0.328038 7.65337 0.323545 7.58597 0.316057 7.4991C0.31381 7.46091 0.310066 7.41748 0.306322 7.3703C0.304824 7.35233 0.304075 7.33286 0.301828 7.31264L0.2876 7.12018C0.286102 7.10595 0.285353 7.09022 0.283856 7.0745V7.06701C0.283856 7.06476 0.283856 7.06252 0.282358 7.05952C0.28086 7.03556 0.278614 7.0086 0.276367 6.98389H22Z" fill="#676966"/>
<path d="M20.6543 5.829L20.6798 1.51781C20.6835 0.905244 20.232 0.384038 19.6246 0.301663L17.7076 0.0403114C16.8898 -0.0712687 16.0578 0.0470511 15.3037 0.38254L19.2128 1.05502L19.9496 5.57214L20.6543 5.829Z" fill="#B3B4B3"/>
<path d="M18.0872 0.262641L16.1342 0.166038C16.0473 0.161545 15.9627 0.163791 15.8811 0.173527C15.8796 0.173527 15.8796 0.173527 15.8789 0.173527C15.1667 0.252906 14.6425 0.842258 14.6223 1.56641L14.5369 4.63898L14.5354 4.67492L19.9497 5.5728V5.5406L19.9714 2.11832C19.9766 1.11185 19.0922 0.312066 18.0872 0.262641ZM18.1187 4.10654C17.4619 4.10654 16.9295 3.40261 16.9295 2.53393C16.9295 1.8989 17.2141 1.35148 17.6215 1.10361C17.6229 1.10361 17.6229 1.10361 17.6229 1.10361C17.6372 1.1081 17.6507 1.11409 17.6649 1.11934C18.1082 1.30505 18.5021 1.82926 18.6459 2.49649C18.7829 3.13527 18.6541 3.7366 18.3508 4.07733C18.2745 4.0968 18.1981 4.10654 18.1187 4.10654Z" fill="#676966"/>
<path d="M2.85846 17.3855C2.48254 17.2207 2.15603 17.0537 1.87671 16.8965C2.13132 16.7047 2.44434 16.5228 2.80904 16.3528L2.85846 17.3855Z" fill="#676966"/>
<path d="M2.98123 19.9272C1.80402 19.4127 1.11133 18.7822 1.11133 18.1007C1.11133 17.8296 1.22066 17.5683 1.42735 17.3174C1.819 17.5525 2.30201 17.8004 2.89137 18.0415L2.89361 18.1007L2.98123 19.9272Z" fill="#676966"/>
<path d="M6.46198 18.4122C5.9243 18.3216 5.4308 18.216 4.97774 18.0999C4.26932 17.9194 3.65975 17.7127 3.13779 17.5023L3.07788 16.2337C3.9488 15.866 5.07135 15.5605 6.36612 15.3396L6.45299 18.1006L6.46198 18.4122Z" fill="#676966"/>
<path d="M6.54056 20.8924C5.26075 20.6865 4.14495 20.3937 3.26055 20.0432L3.16919 18.1516C4.0461 18.4834 5.13794 18.7911 6.48214 19.0083L6.54056 20.8924Z" fill="#676966"/>
<path d="M10.9918 18.7409C10.899 18.7432 10.8076 18.7432 10.717 18.7432C9.19608 18.7432 7.88183 18.6346 6.7488 18.4586C6.74506 18.4586 6.74131 18.4571 6.73757 18.4564L6.72559 18.0999L6.63647 15.2947C6.64022 15.2947 6.64471 15.2932 6.64846 15.2932C7.95372 15.0873 9.41999 14.9689 10.9731 14.9607L10.9873 18.0999L10.9918 18.7409Z" fill="#676966"/>
<path d="M11.0036 21.2405C9.50966 21.2345 8.09506 21.1259 6.82724 20.9357H6.82575C6.822 20.9357 6.81826 20.9342 6.81601 20.9342L6.7561 19.0493C6.75985 19.0493 6.76359 19.0508 6.76659 19.0508C7.90186 19.2186 9.20937 19.3204 10.7086 19.3204C10.8029 19.3204 10.898 19.3204 10.9939 19.3182L11.0036 21.2405Z" fill="#676966"/>
<path d="M11.2314 12.1546L11.2457 14.9613L11.2599 18.1006L11.2636 18.7393H11.2696C12.8677 18.7131 14.2583 18.5731 15.461 18.3672L15.4685 18.1006L15.5359 15.2796L15.6175 11.8618C14.3542 12.0108 12.8962 12.1209 11.2314 12.1546Z" fill="#676966"/>
<path d="M19.0623 16.1767L18.9874 17.4273C18.3606 17.6685 17.6282 17.8999 16.7783 18.0998C16.454 18.177 16.1118 18.2496 15.7516 18.3155C15.7471 18.317 15.7418 18.3177 15.7358 18.3177L15.7418 18.0998L15.8085 15.3208C15.8145 15.3223 15.822 15.323 15.8279 15.3245C17.0905 15.5335 18.1921 15.8263 19.0623 16.1767Z" fill="#676966"/>
<path d="M20.3202 16.8372C20.0192 16.993 19.6754 17.1517 19.289 17.3098C19.2815 17.312 19.2755 17.3143 19.2688 17.318L19.3302 16.2891C19.3362 16.2928 19.3422 16.2951 19.3482 16.2973C19.7256 16.4658 20.0521 16.6455 20.3202 16.8372Z" fill="#676966"/>
<path d="M15.4467 18.9602L15.3996 20.9424C14.146 21.1282 12.7508 21.2337 11.2786 21.239C11.2771 21.239 11.2771 21.239 11.2763 21.239L11.2666 19.3159H11.2726C12.8564 19.2882 14.2433 19.1564 15.4467 18.9602Z" fill="#676966"/>
<path d="M18.9483 18.0737L18.9468 18.0999L18.8263 20.1159V20.1174C17.9621 20.4394 16.8972 20.7067 15.6885 20.8984C15.6841 20.8999 15.6788 20.8999 15.6743 20.9007L15.7215 18.914C15.726 18.914 15.732 18.9125 15.7372 18.9117C16.9698 18.6945 18.0078 18.4092 18.8712 18.1007C18.8982 18.0917 18.9236 18.0835 18.9483 18.0737Z" fill="#676966"/>
<path d="M21.1658 18.0999C21.1658 18.812 20.4079 19.4703 19.1304 19.9967L19.1072 20.0065L19.2203 18.0999L19.2277 17.9696C19.2352 17.9658 19.242 17.9636 19.2495 17.9613C19.8583 17.7262 20.3705 17.4843 20.7959 17.2537C21.0385 17.5225 21.1658 17.8071 21.1658 18.0999Z" fill="#676966"/>
<path d="M22 6.98367L21.994 7.05931C21.9955 7.0608 21.9955 7.06155 21.994 7.06305C21.9206 7.59175 21.1134 8.07925 19.7961 8.47166C19.7804 8.47615 19.7647 8.48139 19.7489 8.48588C19.6853 8.50535 19.6186 8.52408 19.5527 8.5428C19.5408 8.54654 19.5288 8.54879 19.5168 8.55253C18.5478 8.81988 17.3354 9.03929 15.9575 9.19505C15.9455 9.19655 15.9335 9.1973 15.9215 9.1988C15.8579 9.20629 15.7935 9.21303 15.7291 9.22052C15.7133 9.22201 15.6991 9.22426 15.6834 9.22501C14.3242 9.36729 12.813 9.44817 11.2202 9.45042H10.9476C9.33755 9.44293 7.81362 9.35906 6.44695 9.20928C6.3541 9.1988 6.26274 9.18906 6.17212 9.17783C6.17063 9.17783 6.16988 9.17633 6.16838 9.17633C6.14292 9.17409 6.11746 9.17034 6.09349 9.1681C4.78449 9.01158 3.63274 8.79666 2.70865 8.53756L2.68843 8.11595L2.68094 7.96393L2.64275 7.17238C2.62702 7.16864 2.61279 7.1649 2.59707 7.1604C2.53192 7.14243 2.46602 7.11547 2.40161 7.08177C2.38963 7.07428 2.37615 7.06829 2.36417 7.06006L2.40236 7.87706L2.4106 8.04106L2.43082 8.45668C1.15327 8.06727 0.366963 7.59175 0.284588 7.07353V7.06605C0.284588 7.0638 0.284588 7.06155 0.28309 7.05856C0.281593 7.03459 0.279346 7.00764 0.2771 6.98292V6.97693C0.279346 6.7036 0.478543 6.44075 0.843238 6.19587C1.01697 6.07755 1.2289 5.96447 1.47602 5.85514C1.71566 5.7488 1.98824 5.6492 2.29078 5.5511C2.30127 5.54736 2.314 5.54361 2.32598 5.54062C2.37091 5.52639 2.41509 5.51291 2.46077 5.49943C2.47875 5.57881 2.50196 5.65744 2.52742 5.73308C2.5394 5.77277 2.55363 5.81246 2.56861 5.8499C2.57235 5.85963 2.5761 5.86937 2.57909 5.8791H2.58059V5.88135C2.59782 5.92703 2.61579 5.97196 2.63451 6.0154C2.81798 6.43626 3.07933 6.77474 3.37289 6.98292H3.40209C3.47473 6.92002 3.54063 6.84438 3.59754 6.75752C3.60803 6.74029 3.61926 6.72382 3.629 6.70659C3.70388 6.58228 3.76379 6.43775 3.80648 6.27974C3.81471 6.25054 3.8222 6.22058 3.82819 6.19063C3.84167 6.12922 3.85365 6.06632 3.86039 6.00267C3.86863 5.93901 3.87462 5.87236 3.87837 5.80497C3.88061 5.77127 3.88211 5.73757 3.88211 5.70387C3.88361 5.6507 3.88211 5.59678 3.87986 5.54212C3.87986 5.53238 3.87986 5.5219 3.87837 5.51216C3.87687 5.48296 3.87462 5.4545 3.87238 5.42529C3.86414 5.33768 3.85216 5.24781 3.83643 5.1587V5.15496C4.51639 5.01492 5.27424 4.8936 6.09349 4.7955H6.09724C6.26199 4.77528 6.43123 4.75731 6.60197 4.73859C7.98287 4.59406 9.51953 4.51318 11.1401 4.51318C12.327 4.51318 13.4683 4.55662 14.5369 4.63749C16.731 4.8 18.6174 5.11976 19.9437 5.53613C19.9459 5.53613 19.9474 5.53762 19.9496 5.53837C20.2065 5.61775 20.4424 5.70312 20.6543 5.78999C21.5118 6.14645 22 6.55233 22 6.98367Z" fill="#B3B4B3"/>
<path d="M21.4556 6.98383C21.4556 7.10814 20.9883 7.67652 18.6983 8.19623C16.6846 8.65379 14.0014 8.90615 11.1393 8.90615C9.59665 8.90615 8.10642 8.83276 6.74425 8.69423C6.63716 8.68374 6.53232 8.67101 6.42748 8.66053C6.41924 8.65903 6.41175 8.65828 6.40426 8.65828H6.40202C6.32039 8.64855 6.23952 8.63881 6.15864 8.62907C6.13542 8.62533 6.11371 8.62308 6.09199 8.62084C5.17763 8.51001 4.33142 8.36772 3.57957 8.19698C3.24108 8.12135 2.94229 8.04272 2.67944 7.96558L2.64125 7.17404C2.62552 7.1703 2.61129 7.16655 2.59557 7.16206C2.53041 7.14409 2.46451 7.11713 2.40011 7.08343C2.38813 7.07594 2.37465 7.06995 2.36267 7.06171L2.40086 7.87872C1.65724 7.63908 1.24387 7.40993 1.0297 7.23919C0.873937 7.11713 0.822266 7.02577 0.822266 6.98458C0.822266 6.95238 0.855964 6.88573 0.950321 6.79811C1.07313 6.68279 1.30228 6.52703 1.69469 6.35329C1.86842 6.27765 2.07286 6.19903 2.31624 6.1174C2.32822 6.11366 2.3402 6.10916 2.35219 6.10542C2.41209 6.08595 2.475 6.06573 2.54015 6.04551C2.55438 6.04176 2.5701 6.03727 2.58583 6.03203C2.60156 6.02754 2.61728 6.02229 2.63301 6.0178C2.81648 6.43866 3.07783 6.77714 3.37138 6.98533H3.40059C3.47323 6.92242 3.53913 6.84679 3.59604 6.75992C3.60653 6.7427 3.61776 6.72622 3.62749 6.709C3.70238 6.58469 3.76229 6.44016 3.80497 6.28215C3.81321 6.25294 3.8207 6.22299 3.82669 6.19303C3.84017 6.13163 3.85215 6.06872 3.85889 6.00507C3.86713 5.94142 3.87312 5.87477 3.87686 5.80737C3.87911 5.77367 3.88061 5.73997 3.88061 5.70628C4.55533 5.56399 5.29745 5.44343 6.09199 5.34832C6.09574 5.34832 6.10023 5.34682 6.10397 5.34682C6.27396 5.32511 6.4447 5.30564 6.61994 5.28766C8.01506 5.13939 9.54948 5.06226 11.1386 5.06226C14.0007 5.06226 16.6839 5.31387 18.6975 5.77068C20.9876 6.29113 21.4556 6.85952 21.4556 6.98383Z" fill="#676966"/>
<path d="M2.5782 5.88002C2.5782 5.88152 2.5782 5.88152 2.57969 5.88152V5.88002H2.5782ZM2.5782 5.88002C2.5782 5.88152 2.5782 5.88152 2.57969 5.88152V5.88002H2.5782ZM2.5782 5.88002C2.5782 5.88152 2.5782 5.88152 2.57969 5.88152V5.88002H2.5782ZM2.5782 5.88002C2.5782 5.88152 2.5782 5.88152 2.57969 5.88152V5.88002H2.5782ZM2.5782 5.88002C2.5782 5.88152 2.5782 5.88152 2.57969 5.88152V5.88002H2.5782ZM2.5782 5.88002C2.5782 5.88152 2.5782 5.88152 2.57969 5.88152V5.88002H2.5782ZM2.5782 5.88002C2.5782 5.88152 2.5782 5.88152 2.57969 5.88152V5.88002H2.5782ZM2.5782 5.88002C2.5782 5.88152 2.5782 5.88152 2.57969 5.88152V5.88002H2.5782ZM2.5782 5.88002C2.5782 5.88152 2.5782 5.88152 2.57969 5.88152V5.88002H2.5782ZM2.5782 5.88002C2.5782 5.88152 2.5782 5.88152 2.57969 5.88152V5.88002H2.5782ZM2.5782 5.88002C2.5782 5.88152 2.5782 5.88152 2.57969 5.88152V5.88002H2.5782ZM2.5782 5.88002C2.5782 5.88152 2.5782 5.88152 2.57969 5.88152V5.88002H2.5782ZM2.5782 5.88002C2.5782 5.88152 2.5782 5.88152 2.57969 5.88152V5.88002H2.5782ZM2.5782 5.88002C2.5782 5.88152 2.5782 5.88152 2.57969 5.88152V5.88002H2.5782ZM2.5782 5.88002C2.5782 5.88152 2.5782 5.88152 2.57969 5.88152V5.88002H2.5782ZM2.5782 5.88002C2.5782 5.88152 2.5782 5.88152 2.57969 5.88152V5.88002H2.5782ZM2.5782 5.88002C2.5782 5.88152 2.5782 5.88152 2.57969 5.88152V5.88002H2.5782ZM2.5782 5.88002C2.5782 5.88152 2.5782 5.88152 2.57969 5.88152V5.88002H2.5782ZM2.5782 5.88002C2.5782 5.88152 2.5782 5.88152 2.57969 5.88152V5.88002H2.5782ZM2.5782 5.88002C2.5782 5.88152 2.5782 5.88152 2.57969 5.88152V5.88002H2.5782ZM2.5782 5.88002C2.5782 5.88152 2.5782 5.88152 2.57969 5.88152V5.88002H2.5782ZM2.5782 5.88002C2.5782 5.88152 2.5782 5.88152 2.57969 5.88152V5.88002H2.5782ZM2.5782 5.88002C2.5782 5.88152 2.5782 5.88152 2.57969 5.88152V5.88002H2.5782ZM2.5782 5.88002C2.5782 5.88152 2.5782 5.88152 2.57969 5.88152V5.88002H2.5782ZM2.5782 5.88002C2.5782 5.88152 2.5782 5.88152 2.57969 5.88152V5.88002H2.5782ZM2.5782 5.88002C2.5782 5.88152 2.5782 5.88152 2.57969 5.88152V5.88002H2.5782ZM2.5782 5.88002C2.5782 5.88152 2.5782 5.88152 2.57969 5.88152V5.88002H2.5782ZM2.5782 5.88002C2.5782 5.88152 2.5782 5.88152 2.57969 5.88152V5.88002H2.5782ZM2.5782 5.88002C2.5782 5.88152 2.5782 5.88152 2.57969 5.88152V5.88002H2.5782ZM2.5782 5.88002C2.5782 5.88152 2.5782 5.88152 2.57969 5.88152V5.88002H2.5782ZM2.5782 5.88002C2.5782 5.88152 2.5782 5.88152 2.57969 5.88152V5.88002H2.5782ZM2.5782 5.88002C2.5782 5.88152 2.5782 5.88152 2.57969 5.88152V5.88002H2.5782ZM2.5782 5.88002C2.5782 5.88152 2.5782 5.88152 2.57969 5.88152V5.88002H2.5782ZM2.5782 5.88002C2.5782 5.88152 2.5782 5.88152 2.57969 5.88152V5.88002H2.5782ZM2.5782 5.88002C2.5782 5.88152 2.5782 5.88152 2.57969 5.88152V5.88002H2.5782ZM2.5782 5.88002C2.5782 5.88152 2.5782 5.88152 2.57969 5.88152V5.88002H2.5782ZM2.5782 5.88002C2.5782 5.88152 2.5782 5.88152 2.57969 5.88152V5.88002H2.5782ZM6.7441 8.69349L6.6827 6.98384L6.61979 5.28692L6.60032 4.741L6.58834 4.42049C6.52469 3.66714 5.73988 2.7056 5.22691 2.59402L2.39173 1.99119L2.26368 1.96199H2.25769L1.93268 1.89309C1.72075 1.8519 0.94119 1.94626 0.757719 2.0174C0.54055 2.10053 0.402011 2.20761 0.321134 2.34241L0.319636 2.3439C0.246248 2.46822 0.220787 2.61349 0.229024 2.78648L0.84234 6.19679L0.949427 6.79662L0.983126 6.98309L1.02881 7.2377L1.10968 7.68852L2.40895 8.04123L2.40072 7.87723L2.36253 7.06022C2.37451 7.06846 2.38799 7.07445 2.39997 7.08194C2.46362 7.11564 2.53027 7.14185 2.59542 7.16057C2.61115 7.16506 2.62538 7.16881 2.6411 7.17255L2.67929 7.9641L2.68678 8.11612L6.09185 9.03946L6.16449 9.05968H6.16673L6.18845 9.06567L6.43632 8.95259L6.7486 8.80956L6.7441 8.69349ZM3.37274 6.98384C3.07844 6.77566 2.81708 6.43642 2.63436 6.01631C2.61489 5.97288 2.59692 5.9287 2.58044 5.88227V5.88002H2.57895C2.5752 5.87028 2.57146 5.86055 2.56846 5.85081C2.55423 5.81337 2.53926 5.77368 2.52727 5.73399C2.50181 5.65836 2.47935 5.57973 2.46063 5.50035C2.45314 5.47863 2.44864 5.45691 2.4434 5.4352C2.33407 4.94469 2.34231 4.46842 2.44565 4.07377V4.07227C2.45763 4.02659 2.47111 3.98166 2.48534 3.93972C2.48684 3.93748 2.48684 3.93523 2.48759 3.93224C2.49957 3.89629 2.51155 3.86109 2.52578 3.8274C2.57745 3.69934 2.6411 3.58252 2.71524 3.48142C3.19975 3.68287 3.63858 4.27222 3.80932 5.03231C3.81906 5.07425 3.8273 5.11543 3.83478 5.15662V5.16037C3.85051 5.24948 3.86249 5.33859 3.87073 5.42696C3.87298 5.45617 3.87522 5.48462 3.87672 5.51383C3.87822 5.52356 3.87822 5.53405 3.87822 5.54378C3.88046 5.5977 3.88196 5.65237 3.88046 5.70554C3.88046 5.73923 3.87897 5.77293 3.87672 5.80663C3.87298 5.87403 3.86698 5.94068 3.85875 6.00433C3.85126 6.06798 3.83928 6.13089 3.82655 6.1923C3.82056 6.22225 3.81307 6.2522 3.80483 6.28141C3.76289 6.43942 3.70224 6.58395 3.62735 6.70826C3.61761 6.72548 3.60713 6.74196 3.5959 6.75918C3.53898 6.84605 3.47308 6.92168 3.40044 6.98459H3.37274V6.98384ZM2.36178 2.31095L2.40746 2.31919L2.46063 3.41477C2.4449 3.41253 2.43067 3.41103 2.41495 3.41028C2.35129 3.40579 2.28689 3.40878 2.22324 3.42002C2.21126 3.42226 2.20002 3.42376 2.18804 3.4275L2.13263 2.26677L2.16782 2.27426L2.36178 2.31095ZM2.5782 5.88002C2.5782 5.88152 2.5782 5.88152 2.57969 5.88152V5.88002H2.5782Z" fill="#B3B4B3"/>
<path d="M2.57828 5.87998C2.57828 5.88147 2.57828 5.88147 2.57978 5.88147V5.87998H2.57828ZM2.57828 5.87998C2.57828 5.88147 2.57828 5.88147 2.57978 5.88147V5.87998H2.57828ZM2.57828 5.87998C2.57828 5.88147 2.57828 5.88147 2.57978 5.88147V5.87998H2.57828ZM2.57828 5.87998C2.57828 5.88147 2.57828 5.88147 2.57978 5.88147V5.87998H2.57828ZM2.57828 5.87998C2.57828 5.88147 2.57828 5.88147 2.57978 5.88147V5.87998H2.57828ZM2.57828 5.87998C2.57828 5.88147 2.57828 5.88147 2.57978 5.88147V5.87998H2.57828ZM2.57828 5.87998C2.57828 5.88147 2.57828 5.88147 2.57978 5.88147V5.87998H2.57828ZM2.57828 5.87998C2.57828 5.88147 2.57828 5.88147 2.57978 5.88147V5.87998H2.57828ZM2.57828 5.87998C2.57828 5.88147 2.57828 5.88147 2.57978 5.88147V5.87998H2.57828ZM2.57828 5.87998C2.57828 5.88147 2.57828 5.88147 2.57978 5.88147V5.87998H2.57828ZM2.57828 5.87998C2.57828 5.88147 2.57828 5.88147 2.57978 5.88147V5.87998H2.57828ZM2.57828 5.87998C2.57828 5.88147 2.57828 5.88147 2.57978 5.88147V5.87998H2.57828ZM2.57828 5.87998C2.57828 5.88147 2.57828 5.88147 2.57978 5.88147V5.87998H2.57828ZM2.57828 5.87998C2.57828 5.88147 2.57828 5.88147 2.57978 5.88147V5.87998H2.57828ZM2.57828 5.87998C2.57828 5.88147 2.57828 5.88147 2.57978 5.88147V5.87998H2.57828ZM2.57828 5.87998C2.57828 5.88147 2.57828 5.88147 2.57978 5.88147V5.87998H2.57828ZM2.57828 5.87998C2.57828 5.88147 2.57828 5.88147 2.57978 5.88147V5.87998H2.57828ZM2.57828 5.87998C2.57828 5.88147 2.57828 5.88147 2.57978 5.88147V5.87998H2.57828ZM2.57828 5.87998C2.57828 5.88147 2.57828 5.88147 2.57978 5.88147V5.87998H2.57828ZM2.57828 5.87998C2.57828 5.88147 2.57828 5.88147 2.57978 5.88147V5.87998H2.57828ZM2.57828 5.87998C2.57828 5.88147 2.57828 5.88147 2.57978 5.88147V5.87998H2.57828ZM2.57828 5.87998C2.57828 5.88147 2.57828 5.88147 2.57978 5.88147V5.87998H2.57828ZM2.57828 5.87998C2.57828 5.88147 2.57828 5.88147 2.57978 5.88147V5.87998H2.57828ZM2.57828 5.87998C2.57828 5.88147 2.57828 5.88147 2.57978 5.88147V5.87998H2.57828ZM2.57828 5.87998C2.57828 5.88147 2.57828 5.88147 2.57978 5.88147V5.87998H2.57828ZM2.57828 5.87998C2.57828 5.88147 2.57828 5.88147 2.57978 5.88147V5.87998H2.57828ZM2.57828 5.87998C2.57828 5.88147 2.57828 5.88147 2.57978 5.88147V5.87998H2.57828ZM2.57828 5.87998C2.57828 5.88147 2.57828 5.88147 2.57978 5.88147V5.87998H2.57828ZM2.57828 5.87998C2.57828 5.88147 2.57828 5.88147 2.57978 5.88147V5.87998H2.57828ZM2.57828 5.87998C2.57828 5.88147 2.57828 5.88147 2.57978 5.88147V5.87998H2.57828ZM2.57828 5.87998C2.57828 5.88147 2.57828 5.88147 2.57978 5.88147V5.87998H2.57828ZM2.57828 5.87998C2.57828 5.88147 2.57828 5.88147 2.57978 5.88147V5.87998H2.57828ZM2.57828 5.87998C2.57828 5.88147 2.57828 5.88147 2.57978 5.88147V5.87998H2.57828ZM2.57828 5.87998C2.57828 5.88147 2.57828 5.88147 2.57978 5.88147V5.87998H2.57828ZM2.57828 5.87998C2.57828 5.88147 2.57828 5.88147 2.57978 5.88147V5.87998H2.57828ZM2.57828 5.87998C2.57828 5.88147 2.57828 5.88147 2.57978 5.88147V5.87998H2.57828ZM2.57828 5.87998C2.57828 5.88147 2.57828 5.88147 2.57978 5.88147V5.87998H2.57828ZM6.16682 9.17721L6.16457 9.06038L6.16232 8.90387V8.88815L6.15858 8.66648V8.62904L6.13087 6.98454L6.10466 5.34679L6.09643 4.79862L6.09268 4.57846C6.09268 3.67833 5.4539 2.90476 4.5695 2.73626L2.40754 2.32065L2.46071 3.41623C2.44498 3.41398 2.43076 3.41248 2.41503 3.41173C2.35138 3.40724 2.28698 3.41024 2.22332 3.42147C2.21134 3.42372 2.20011 3.42521 2.18813 3.42896L2.13271 2.26823L1.19514 2.0885C0.888854 2.02934 0.557858 2.14167 0.321218 2.34536L0.319721 2.34686C0.118277 2.52134 -0.0127731 2.76397 0.00070638 3.02907C0.0433914 3.86255 0.192414 5.86275 0.277036 6.9778V6.9838C0.279282 7.00926 0.281529 7.03547 0.283027 7.05943C0.284524 7.06168 0.284524 7.06392 0.284524 7.06692V7.07441C0.286022 7.09013 0.286771 7.10586 0.288269 7.12009C0.294259 7.18898 0.298753 7.25413 0.302497 7.31254C0.304743 7.33276 0.306241 7.35223 0.30699 7.37021C0.310734 7.41738 0.314479 7.46082 0.316725 7.49901C0.324214 7.58588 0.328707 7.65328 0.332451 7.69671C0.333949 7.71843 0.334698 7.73415 0.336196 7.74389C0.337693 7.75437 0.337693 7.75961 0.337693 7.75961L2.4345 8.55266L2.43076 8.45755L2.41054 8.04193L2.4023 7.87793L2.36411 7.06093C2.37609 7.06916 2.38957 7.07516 2.40155 7.08264C2.4652 7.11634 2.53185 7.14255 2.597 7.16127C2.61273 7.16577 2.62696 7.16951 2.64268 7.17326L2.68088 7.9648L2.68836 8.11682L2.70858 8.53843L2.71233 8.62305L6.17206 9.40785L6.16682 9.17721ZM2.44573 4.07373V4.07223C2.45772 4.02655 2.47119 3.98162 2.48542 3.93968C2.48692 3.93743 2.48692 3.93519 2.48767 3.93219C2.49965 3.89625 2.51163 3.86105 2.52586 3.82735C2.57753 3.6993 2.64119 3.58247 2.71532 3.48138C3.19984 3.68282 3.63867 4.27217 3.80941 5.03227C3.81914 5.0742 3.82738 5.11539 3.83487 5.15658V5.16032C3.85059 5.24944 3.86258 5.33855 3.87081 5.42692C3.87306 5.45612 3.87531 5.48458 3.8768 5.51378C3.8783 5.52352 3.8783 5.534 3.8783 5.54374C3.88055 5.59766 3.88205 5.65232 3.88055 5.70549C3.88055 5.73919 3.87905 5.77289 3.8768 5.80659C3.87306 5.87398 3.86707 5.94063 3.85883 6.00429C3.85134 6.06794 3.83936 6.13084 3.82663 6.19225C3.82064 6.2222 3.81315 6.25216 3.80491 6.28136C3.76298 6.43937 3.70232 6.5839 3.62743 6.70821C3.6177 6.72544 3.60722 6.74191 3.59598 6.75914C3.53907 6.846 3.47317 6.92164 3.40053 6.98454H3.37132C3.07702 6.77636 2.81567 6.43713 2.63295 6.01702C2.61348 5.97358 2.59551 5.9294 2.57903 5.88297V5.88072H2.57753C2.57379 5.87099 2.57004 5.86125 2.56705 5.85152C2.55282 5.81408 2.53784 5.77439 2.52586 5.7347C2.5004 5.65906 2.47793 5.58043 2.45921 5.50105C2.45172 5.47934 2.44723 5.45762 2.44199 5.4359C2.33415 4.94465 2.34239 4.46912 2.44573 4.07373ZM2.57828 5.87998C2.57828 5.88147 2.57828 5.88147 2.57978 5.88147V5.87998H2.57828Z" fill="#676966"/>
<path d="M18.3501 4.07744C18.3105 4.12312 18.2648 4.16431 18.2176 4.20176C18.1173 4.27739 18.0042 4.33056 17.8799 4.35377C17.2613 4.47209 16.6016 3.83107 16.4046 2.91971C16.2084 2.01134 16.5514 1.17861 17.1707 1.06179C17.3212 1.03258 17.4732 1.04831 17.62 1.10372C17.2126 1.35159 16.9281 1.89901 16.9281 2.53404C16.9281 3.40272 17.4605 4.10665 18.1173 4.10665C18.1981 4.10665 18.2745 4.09691 18.3501 4.07744Z" fill="#B3B4B3"/>
<path d="M2.59559 7.16062C2.53044 7.14265 2.46454 7.11569 2.40014 7.08199L2.39564 6.98314L2.35371 6.10323L2.32525 5.54159L2.22266 3.41932C2.28631 3.40884 2.35071 3.40509 2.41436 3.40958L2.44582 4.07233V4.07382C2.34247 4.46922 2.33349 4.94475 2.44357 5.43525C2.44806 5.45697 2.45331 5.47868 2.46079 5.5004C2.47877 5.57978 2.50198 5.65841 2.52744 5.73405L2.54167 6.04407L2.58735 6.98389L2.59559 7.16062Z" fill="white"/>
<path d="M15.9207 9.19214V9.19813C15.8571 9.20562 15.7927 9.21236 15.7283 9.21985V9.21236C15.7927 9.20562 15.8563 9.19963 15.9207 9.19214Z" fill="white"/>
<path d="M19.7504 8.46802L19.7489 8.48599C19.6853 8.50546 19.6186 8.52418 19.5527 8.5429L19.5542 8.52568C19.6201 8.50771 19.6853 8.48899 19.7504 8.46802Z" fill="white"/>
<path d="M3.40133 6.98368C3.39759 6.98817 3.3931 6.99192 3.38785 6.99566C3.28152 7.08627 3.1602 7.14993 3.02615 7.17988C2.8981 7.20909 2.7693 7.20534 2.64049 7.17239C2.62477 7.16865 2.61054 7.16491 2.59481 7.16041C2.52966 7.14244 2.46376 7.11548 2.39936 7.08178C2.38738 7.07429 2.3739 7.0683 2.36192 7.06006C2.32073 7.03685 2.28029 7.01214 2.23985 6.98293C2.03392 6.83616 1.84595 6.61899 1.69393 6.35164C1.60707 6.20112 1.53368 6.03488 1.47452 5.85515C1.44456 5.76454 1.4176 5.67093 1.39589 5.57433C1.16224 4.5394 1.51271 3.57637 2.17919 3.4266C2.18144 3.4251 2.18369 3.4251 2.18668 3.4251C2.19866 3.42136 2.2099 3.42061 2.22188 3.41761C2.28553 3.40713 2.34993 3.40338 2.41359 3.40788C2.42931 3.40937 2.44354 3.41012 2.45927 3.41237C2.54464 3.4221 2.63076 3.44457 2.71463 3.47977C2.64124 3.58086 2.57759 3.69768 2.52517 3.82574C2.51169 3.86094 2.49896 3.89463 2.48698 3.93058C2.48548 3.93283 2.48548 3.93507 2.48473 3.93807C2.4705 3.98 2.45702 4.02494 2.44504 4.07062V4.07211C2.3417 4.46751 2.33271 4.94304 2.44279 5.43354C2.44729 5.45526 2.45253 5.47698 2.46002 5.49869C2.47799 5.57807 2.5012 5.6567 2.52667 5.73234C2.54014 5.77203 2.55288 5.81097 2.56785 5.84916C2.5716 5.85889 2.57534 5.86863 2.57834 5.87836C2.57834 5.87986 2.57834 5.87986 2.57983 5.87986V5.88136C2.59706 5.92704 2.61503 5.97197 2.63375 6.01541C2.81722 6.43626 3.07857 6.77475 3.37213 6.98293H3.40133V6.98368Z" fill="#B3B4B3"/>
<path d="M3.87164 5.42626C3.8634 5.33865 3.85142 5.24878 3.83569 5.15967C3.85217 5.24953 3.86415 5.33865 3.87164 5.42626Z" fill="black"/>
<path d="M3.40128 6.98291C3.39753 6.9874 3.39304 6.99115 3.3878 6.99489C3.3833 6.99115 3.37731 6.9874 3.37207 6.98291H3.40128Z" fill="black"/>
</g>
<defs>
<clipPath id="clip0_652_1470">
<rect width="22" height="21.2407" fill="white"/>
</clipPath>
</defs>
</svg>
