<svg width="25" height="24" viewBox="0 0 25 24" fill="none" xmlns="http://www.w3.org/2000/svg">
<rect width="24" height="24" transform="translate(0.5)" fill="white"/>
<path d="M22.4918 18.5522L18.7418 18.3006L19.5501 18.855V19.8173L13.8749 19.3367L15.5646 20.5319V21.6043L6.16333 20.4491L6.68814 19.6806C7.40142 19.9925 8.17343 20.1634 8.9796 20.1634C9.71584 20.1634 10.4248 20.0198 11.0853 19.7575L14.3639 18.8544L15.0238 18.6723L17.1311 18.0913H17.1321L17.6564 17.9471L19.4332 17.4579L19.7829 17.3618L21.0237 17.02L21.0263 17.0189C21.0728 17.0018 21.1181 16.9847 21.163 16.9666L22.4929 17.836V18.5522H22.4918Z" fill="#676966"/>
<path d="M7.40562 7.26607C7.38373 8.64607 7.34902 15.066 7.33301 18.3969L10.3826 18.6244V6.99316L7.40562 7.26607ZM7.80924 14.3936C7.80924 14.4165 7.79055 14.4347 7.76813 14.4347C7.74517 14.4347 7.72702 14.416 7.72702 14.3936V14.0294L7.58447 13.8868C7.577 13.8793 7.57219 13.8686 7.57219 13.8574V12.95C7.57219 12.9377 7.57753 12.926 7.58714 12.9185L7.69605 12.8277V12.5586C7.69605 12.5356 7.71474 12.5174 7.73716 12.5174C7.76012 12.5174 7.77827 12.5361 7.77827 12.5586V12.8475C7.77827 12.8598 7.77293 12.8715 7.76332 12.879L7.65441 12.9698V13.8408L7.79696 13.9834C7.80443 13.9909 7.80924 14.0016 7.80924 14.0128V14.3936Z" fill="#676966"/>
<path d="M23.9974 12.4009L15.4071 12.285L15.2421 12.2834L15.0755 12.2807L14.4424 12.2722C14.0953 10.6834 13.3885 10.3437 13.0815 10.2716C12.7809 8.59094 12.042 7.06034 10.9715 5.88702C10.8824 5.78929 10.79 5.69262 10.6955 5.60076C10.632 5.53614 10.5674 5.47419 10.5012 5.41438C10.4755 5.39035 10.4488 5.36631 10.4222 5.34388C9.95393 4.92465 9.4494 4.58072 8.92139 4.31689L21.2916 8.33887C21.2922 8.33887 23.7577 9.33809 23.9974 12.4009Z" fill="#B3B4B3"/>
<path d="M23.9999 12.4362H23.9924L23.9972 12.4026L23.9999 12.4362Z" fill="#B3B4B3"/>
<path d="M17.0829 12.6386H17.0824L15.4353 12.6162H15.4231H15.4215C15.5037 15.2753 14.4076 17.6582 12.6628 18.9747L14.8048 18.3845C16.9858 16.0683 17.0941 13.3361 17.0829 12.6386Z" fill="#676966"/>
<path d="M23.511 12.7247L21.8986 12.7034C21.8928 13.396 21.7144 15.1851 20.1902 16.901L21.5911 16.5149C23.2681 15.1558 23.4912 13.3987 23.511 12.7247Z" fill="#676966"/>
<path d="M23.9487 12.7305L23.6754 12.7273C23.6561 13.3933 23.4469 15.0505 21.9626 16.4123L21.9642 16.4118H21.9653L22.2093 16.344C23.6711 15.1856 23.9108 13.3789 23.9493 12.7268L23.9487 12.7305Z" fill="#676966"/>
<path d="M10.5028 19.9546L10.4675 19.9733C10.5818 19.945 10.8749 19.8809 10.5028 19.9546Z" fill="#676966"/>
<path d="M19.5485 12.6711L17.414 12.6428C17.4215 13.0145 17.398 13.8658 17.1086 14.9275C16.8572 15.8504 16.3622 17.06 15.3884 18.2237L17.6035 17.6133C19.6451 15.5326 19.6243 13.3868 19.5485 12.6711Z" fill="#676966"/>
<path d="M9.76059 5.20994C9.52942 5.17789 9.29664 5.16027 9.06227 5.16027C8.89836 5.16027 8.73125 5.16881 8.56842 5.1843C6.93257 5.34345 5.47292 6.26897 4.45746 7.79103C3.44947 9.30241 2.9994 11.2234 3.19107 13.1999C3.37312 15.0723 4.12057 16.8048 5.29673 18.078C5.77029 18.5902 6.29511 19.0094 6.85409 19.3293C6.6667 19.3138 6.48998 19.2513 6.31006 19.1531C5.22679 18.556 4.35228 17.6219 3.75325 16.5447C3.09443 15.3586 2.76609 14.0026 2.76609 12.6483C2.76609 12.5788 2.76716 12.535 2.76876 12.4651L2.61767 12.4667V12.4651H1.00425C1.12651 11.398 0.302182 10.8309 0 10.661C0.337419 7.06578 2.75274 4.28068 5.7767 4.02059C7.21927 3.89616 8.60152 4.34103 9.75793 5.20833C9.75846 5.20887 9.75953 5.20994 9.76059 5.20994Z" fill="#676966"/>
<path d="M19.8906 16.9831C21.5473 15.2458 21.7294 13.3894 21.7336 12.701L19.7999 12.6743C19.8378 13.0332 19.8581 13.6783 19.6701 14.4832C19.4811 15.2939 19.0466 16.3812 18.0615 17.4867L19.8896 16.9825H19.8906V16.9831Z" fill="#676966"/>
<path d="M7.24801 19.2952C7.21118 19.3048 7.14604 19.3998 7.10119 19.4613C7.01791 19.4191 6.93516 19.3753 6.854 19.3288C6.87269 19.3304 6.89191 19.3315 6.9106 19.332C7.01898 19.3352 7.13163 19.324 7.24801 19.2952Z" fill="white"/>
<path d="M10.7399 19.0088L6.97388 18.7279V18.6895C6.97388 18.6895 6.98776 15.7612 7.00484 12.8325C7.01338 11.3681 7.023 9.90426 7.03207 8.8057C7.03634 8.25669 7.04115 7.79901 7.04488 7.47857C7.05183 6.93437 7.05183 6.93437 7.09774 6.93437L10.7399 6.60059V19.0088ZM7.05716 18.651L10.6577 18.9197V6.69138L7.13618 7.01395C7.11429 7.55334 7.07532 14.7716 7.05716 18.651Z" fill="#B3B4B3"/>
<path d="M15.0919 12.6108L14.1726 12.5986L14.1459 12.4672C13.7801 10.6172 12.9483 10.5825 12.9398 10.5825L12.8026 10.5798L12.777 10.4442C12.4609 8.53547 11.5949 6.90446 10.4086 5.76158C10.3718 5.72526 10.3339 5.68948 10.2954 5.65477C9.89502 5.54796 9.48286 5.48975 9.06269 5.48975C8.90893 5.48975 8.75356 5.49722 8.60034 5.51218C7.06594 5.66118 5.69223 6.53543 4.73283 7.97311C3.76649 9.42147 3.33564 11.2661 3.52037 13.1668C3.87754 16.8432 6.51069 19.7229 9.51543 19.7229C9.66919 19.7229 9.82455 19.7154 9.97778 19.7004C10.3109 19.6679 10.6329 19.5995 10.9441 19.5018L10.9302 19.4516L11.4673 19.3036C13.6985 18.3076 15.1912 15.6475 15.0919 12.6108ZM10.5474 18.8022L7.16737 18.5501L7.16791 18.4732C7.18392 15.1022 7.2197 8.40516 7.24212 7.18965L7.24372 7.11595L10.548 6.81314V18.8022H10.5474Z" fill="#676966"/>
<path d="M18.8282 5.34033H18.21V7.54705H18.8282V5.34033Z" fill="#B3B4B3"/>
<path d="M18.093 5.07908H18.9862L18.5329 4.52954L18.093 5.07908Z" fill="#676966"/>
<path d="M8.46262 10.2097L7.92285 9.58428V8.69935L8.46262 8.07397H9.22661L9.76638 8.69935V9.58428L9.22661 10.2097H8.46262Z" fill="#B3B4B3"/>
<path d="M10.9283 19.4216L10.9507 21.3923L8.69019 22.3472V21.4665L9.42856 21.168L9.43603 19.9738L10.9283 19.4216Z" fill="#676966"/>
<path d="M4.83004 20.972L4.81616 21.795L7.03341 21.1456L6.94372 19.1306L5.7115 19.458L5.75101 20.697L4.83004 20.972Z" fill="#676966"/>
<path d="M9.45087 19.9701L11.0178 19.4216L6.98856 19.1082L5.68213 19.4734L9.45087 19.9701Z" fill="#B3B4B3"/>
<path d="M8.70142 21.5039L4.80615 20.9666L5.65717 20.7092L9.49585 21.1456L8.70142 21.5039Z" fill="#B3B4B3"/>
<path d="M10.7482 18.9949L6.98218 18.714V18.6756C6.98218 18.6756 6.99606 15.7473 7.01314 12.8186C7.02169 11.3542 7.0313 9.89034 7.04037 8.79179C7.04464 8.24278 7.04945 7.78509 7.05319 7.46466C7.06013 6.92045 7.06013 6.92045 7.10604 6.92045L10.7482 6.58667V18.9949ZM7.06493 18.6371L10.6655 18.9057V6.67746L7.14395 7.00003C7.12259 7.53943 7.08308 14.7577 7.06493 18.6371Z" fill="#B3B4B3"/>
</svg>
