<svg width="25" height="24" viewBox="0 0 25 24" fill="none" xmlns="http://www.w3.org/2000/svg"><rect width="24" height="24" transform="translate(0.5)" fill="white"/><g clip-path="url(#clip0_652_1514)"><path d="M18.9949 10.0071H20.7734L22.0128 11.9548H18.9949V10.0071Z" fill="#B3B4B3"/><path d="M22.0047 12.9172H23.7604L24.9998 14.865H21.9819L22.0047 12.9172Z" fill="#B3B4B3"/><path d="M22.0128 11.9548H18.9949V18.5451H22.0128V11.9548Z" fill="#676966"/><path d="M24.9998 14.8804H21.9819V18.5451H24.9998V14.8804Z" fill="#676966"/><path d="M13.2201 6.07422V8.40252C12.2416 8.47542 11.1975 8.51355 10.1233 8.51689V6.16385C11.2149 6.16184 12.2583 6.12907 13.2201 6.07422Z" fill="#676966"/><path d="M13.2213 14.2229V18.7424C12.2742 18.8454 11.2348 18.9063 10.1245 18.9103V14.3714C11.1632 14.368 12.2147 14.3179 13.2213 14.2229Z" fill="#676966"/><path d="M9.91194 13.8745C8.83775 13.8725 7.795 13.823 6.81512 13.73L6.81445 8.90283C7.90938 8.97908 8.98958 9.01186 9.91127 9.01386L9.91194 13.8745Z" fill="#676966"/><path d="M13.2214 13.7259C12.2429 13.8209 11.1988 13.8704 10.1246 13.8731L10.1233 9.01383C10.5634 9.01183 11.053 9.00313 11.5687 8.98507C12.0971 8.96567 12.6549 8.93691 13.2194 8.89478L13.2214 13.7259Z" fill="#676966"/><path d="M9.91176 14.3727V18.9103C8.80212 18.9069 7.76338 18.8481 6.81494 18.7457V14.2256C7.82157 14.3212 8.87436 14.3707 9.91176 14.3727Z" fill="#676966"/><path d="M16.5297 8.4834C15.5786 8.66733 14.4977 8.79442 13.4329 8.87869L13.4342 13.7059C14.5759 13.5875 15.6234 13.4109 16.5176 13.1808C16.5217 13.1795 16.5263 13.1788 16.5303 13.1775L16.5297 8.4834Z" fill="#676966"/><path d="M16.5297 5.74365V7.98099C16.4982 7.98634 16.4661 7.99303 16.4327 7.99905C15.5598 8.16827 14.5425 8.29936 13.4329 8.38565V6.06136C14.6134 5.98845 15.6668 5.87943 16.5297 5.74365Z" fill="#676966"/><path d="M16.5309 13.6877V18.1143C16.4654 18.135 16.3971 18.1544 16.3276 18.1738C15.8968 18.2935 15.4213 18.4019 14.9056 18.4968C14.4461 18.5818 13.9545 18.6574 13.4341 18.7176V14.2001C14.5591 14.0864 15.6192 13.9138 16.5309 13.6877Z" fill="#676966"/><path d="M9.91054 6.16386V8.5169C9.33666 8.5149 8.78819 8.5062 8.26581 8.48814C7.75547 8.47008 7.27122 8.44533 6.81372 8.4139V6.0769C7.77822 6.13175 8.8203 6.16185 9.91054 6.16386Z" fill="#676966"/><path d="M16.5309 18.6394V20.0066C15.6674 20.2366 14.6139 20.4199 13.4341 20.5436V19.22C14.0026 19.1564 14.5491 19.0748 15.0668 18.9778C15.5871 18.8789 16.0781 18.7672 16.5309 18.6394Z" fill="#676966"/><path d="M18.999 17.4937V18.4969H18.9957C18.9957 18.501 18.9944 18.5043 18.9944 18.509C18.9903 18.5511 18.9817 18.5939 18.9676 18.6347C18.8051 19.1364 17.9937 19.5919 16.7437 19.9477V18.5765C16.8319 18.5504 16.9182 18.5237 17.0018 18.4969C17.3169 18.3946 17.6038 18.2869 17.862 18.1739C18.2365 18.01 18.5496 17.8361 18.8017 17.6508C18.8606 17.608 18.9168 17.5639 18.9676 17.5197C18.977 17.5124 18.9857 17.5044 18.9944 17.497C18.9957 17.4963 18.9977 17.495 18.999 17.4937Z" fill="#676966"/><path d="M13.2213 19.2439V20.5642C12.5424 20.6298 11.822 20.6753 11.0749 20.698C11.0655 20.1127 10.586 19.6399 9.99871 19.6399C9.41078 19.6399 8.93188 20.1121 8.92252 20.698C8.18878 20.6766 7.4838 20.6324 6.81494 20.5676V19.2472C7.7975 19.3496 8.83958 19.4058 9.91176 19.4084H10.0536C10.077 19.4084 10.101 19.4084 10.1245 19.4071C11.1953 19.4044 12.2394 19.3469 13.2213 19.2439Z" fill="#676966"/><path d="M6.60233 14.2047C6.0338 14.1485 5.48065 14.0769 4.9556 13.9906C4.43255 13.9043 3.9376 13.8047 3.47876 13.6917V18.1195C3.54096 18.1376 3.60451 18.1563 3.67005 18.1743C4.09946 18.2927 4.57301 18.4018 5.08737 18.4974C5.55958 18.5844 6.06591 18.6619 6.60166 18.7235V14.2047H6.60233Z" fill="#676966"/><path d="M6.60233 19.2246C5.45189 19.0942 4.39175 18.8975 3.47876 18.6414V20.0092C3.91218 20.1242 4.39376 20.2279 4.9148 20.3182C5.43985 20.4085 6.00504 20.4861 6.60233 20.5463V19.2246Z" fill="#676966"/><path d="M18.999 4.83472V7.01453C18.904 7.15098 18.6866 7.31083 18.3101 7.47203C17.9462 7.62921 17.4339 7.78974 16.7429 7.93688V5.70958C18.1261 5.47615 18.9722 5.17048 18.997 4.83472C18.9976 4.83472 18.9976 4.83472 18.999 4.83472Z" fill="#676966"/><path d="M18.999 7.6626V11.9313C18.9976 11.9333 18.9956 11.9366 18.995 11.9386C18.8973 12.1152 18.6799 12.3165 18.3094 12.5212C17.9455 12.7225 17.4345 12.9272 16.7443 13.1185L16.7429 8.44115C17.6934 8.24651 18.496 7.99101 18.999 7.6626Z" fill="#676966"/><path d="M18.9991 12.6643V16.7056C18.9978 16.7089 18.9958 16.7122 18.9951 16.7149C18.9877 16.731 18.9777 16.7484 18.9683 16.7658C18.8673 16.9497 18.6767 17.135 18.4085 17.3149C18.0159 17.5777 17.4514 17.8286 16.7444 18.05V13.6328C17.7162 13.3753 18.5042 13.0529 18.9951 12.6677C18.9958 12.6663 18.9978 12.6656 18.9991 12.6643Z" fill="#676966"/><path d="M6.60245 13.7071C5.44465 13.5907 4.38451 13.4121 3.48021 13.18H3.47888L3.47754 8.5C3.9531 8.59163 4.4621 8.66788 4.98983 8.73143C5.51622 8.79497 6.05867 8.84781 6.60111 8.8866L6.60245 13.7071Z" fill="#676966"/><path d="M6.60111 6.06349V8.39581C5.36038 8.3035 4.31629 8.16237 3.47754 7.99449V5.74512C4.34839 5.8829 5.41054 5.99126 6.60111 6.06349Z" fill="#676966"/><path d="M3.26536 13.6363V18.0534C2.55302 17.832 1.98583 17.5799 1.59054 17.315C1.30828 17.1264 1.11364 16.9331 1.01465 16.7391V12.6758C1.26748 12.8724 1.59789 13.0523 1.99051 13.2162C2.36374 13.3714 2.79181 13.5125 3.26536 13.6363Z" fill="#676966"/><path d="M3.26536 13.122C1.89219 12.7421 1.22467 12.308 1.01465 11.9608V7.68481C1.27216 7.8527 1.60793 8.00118 2.00322 8.13094C2.37645 8.25602 2.80318 8.36371 3.26469 8.45802L3.26536 13.122Z" fill="#676966"/><path d="M3.26475 5.71152V7.94885C2.00329 7.67997 1.24413 7.34955 1.01538 7.04589V4.89551C1.13109 5.20653 1.95981 5.49213 3.26475 5.71152Z" fill="#676966"/><path d="M3.26543 19.9522C1.85547 19.5516 1 19.0252 1 18.4473C1 18.4018 1.01538 17.5076 1.01538 17.5076C1.07224 17.5557 1.13177 17.6032 1.19598 17.6507C1.4488 17.836 1.76183 18.0099 2.13639 18.1738C2.39591 18.2868 2.68419 18.3951 3.00056 18.4968C3.08684 18.5249 3.17513 18.553 3.26543 18.5784V19.9522Z" fill="#676966"/><path d="M9.99953 5.63937C5.44259 5.63937 2.70295 5.17184 1.78394 4.81935C2.70295 4.46753 5.44259 4 9.99953 4C14.5565 4 17.2961 4.46753 18.2151 4.82002C17.2961 5.17184 14.5558 5.63937 9.99953 5.63937Z" fill="#676966"/></g><defs><clipPath id="clip0_652_1514"><rect width="24" height="16.6981" fill="white" transform="translate(1 4)"/></clipPath></defs></svg>