<svg width="25" height="24" viewBox="0 0 25 24" fill="none" xmlns="http://www.w3.org/2000/svg"><rect width="24" height="24" transform="translate(0.5)" fill="white"/><g clip-path="url(#clip0_652_1321)"><path d="M14.6643 15.1672H10.3518V18.5438H14.6643V15.1672Z" fill="#676966"/><path d="M8.093 18.2668V23.9728H3.0835V18.294H8.07432L8.093 18.2668Z" fill="#676966"/><path d="M3.07578 18.0981H3L3.0737 18.0369L3.07578 18.0981Z" fill="#B3B4B3"/><path d="M9.86916 15.1604L7.94362 18.0368H3.07373L6.55267 15.1604H9.86916Z" fill="#B3B4B3"/><path d="M10.0528 15.3416V18.5163L8.09302 23.9729V18.0981L8.10547 18.0789V18.2489L10.0528 15.3416Z" fill="#676966"/><path d="M3.08347 18.0981V18.2942L3.07568 18.0981H3.08347Z" fill="white"/><path d="M8.10536 18.0789V18.2941H8.07422L8.0929 18.2669V18.098L8.10536 18.0789Z" fill="white"/><path d="M8.11226 18.2056H7.86157V24H8.11226V18.2056Z" fill="white"/><path d="M8.07428 18.2939L8.02912 18.3616L7.93311 18.2939H8.07428Z" fill="white"/><path d="M8.10547 18.0789V18.2488L8.09302 18.2669V18.098L8.10547 18.0789Z" fill="white"/><path d="M21.9206 18.294V23.9728H16.9116V18.2141L16.9656 18.294H21.9206Z" fill="#676966"/><path d="M21.931 18.0368H17.0959L15.1377 15.1604H18.4516L21.931 18.0368Z" fill="#B3B4B3"/><path d="M16.9115 18.2141V23.9728L14.9502 18.5161V15.3345L16.9115 18.2141Z" fill="#676966"/><path d="M16.9116 18.2141L16.9656 18.294H16.9116V18.2141Z" fill="white"/><path d="M17.1582 18.2056H16.9075V23.9723H17.1582V18.2056Z" fill="white"/><path d="M16.9656 18.2939H17.0901L17.0066 18.3541L16.9656 18.2939Z" fill="white"/><path d="M18.3177 14.4482H6.57916C6.54438 14.4482 6.51636 14.4195 6.51636 14.3838C6.51636 14.3481 6.54438 14.3193 6.57916 14.3193H18.3171C18.3519 14.3193 18.3799 14.3481 18.3799 14.3838C18.3799 14.4195 18.3519 14.4482 18.3177 14.4482Z" fill="#676966"/><path d="M18.3177 13.4968H6.57916C6.54438 13.4968 6.51636 13.4681 6.51636 13.4324C6.51636 13.3967 6.54438 13.3679 6.57916 13.3679H18.3171C18.3519 13.3679 18.3799 13.3967 18.3799 13.4324C18.3799 13.4681 18.3519 13.4968 18.3177 13.4968Z" fill="#676966"/><path d="M18.3177 12.5454H6.57916C6.54438 12.5454 6.51636 12.5166 6.51636 12.481C6.51636 12.4453 6.54438 12.4165 6.57916 12.4165H18.3171C18.3519 12.4165 18.3799 12.4453 18.3799 12.481C18.3799 12.5166 18.3519 12.5454 18.3177 12.5454Z" fill="#676966"/><path d="M18.3177 11.594H6.57916C6.54438 11.594 6.51636 11.5652 6.51636 11.5295C6.51636 11.4939 6.54438 11.4651 6.57916 11.4651H18.3171C18.3519 11.4651 18.3799 11.4939 18.3799 11.5295C18.3799 11.5647 18.3519 11.594 18.3177 11.594Z" fill="#676966"/><path d="M6.57965 10.5139H10.6451V10.6423H6.57965C6.54435 10.6423 6.51685 10.6141 6.51685 10.5778C6.51685 10.5432 6.54435 10.5139 6.57965 10.5139Z" fill="#676966"/><path d="M18.3794 10.5778C18.3794 10.6141 18.3519 10.6423 18.3166 10.6423H14.2107V10.5139H18.3166C18.3519 10.5139 18.3794 10.5432 18.3794 10.5778Z" fill="#676966"/><path d="M6.57965 9.5625H10.6451V9.69087H6.57965C6.54435 9.69087 6.51685 9.66264 6.51685 9.62642C6.51685 9.59126 6.54435 9.5625 6.57965 9.5625Z" fill="#676966"/><path d="M18.3794 9.62642C18.3794 9.66264 18.3519 9.69087 18.3166 9.69087H14.2107V9.5625H18.3166C18.3519 9.5625 18.3794 9.59126 18.3794 9.62642Z" fill="#676966"/><path d="M6.57965 8.6106H10.6451V8.73897H6.57965C6.54435 8.73897 6.51685 8.71074 6.51685 8.67452C6.51685 8.63989 6.54435 8.6106 6.57965 8.6106Z" fill="#676966"/><path d="M18.3794 8.67501C18.3794 8.71123 18.3519 8.73946 18.3166 8.73946H14.2107V8.61109H18.3166C18.3519 8.61056 18.3794 8.63986 18.3794 8.67501Z" fill="#676966"/><path d="M6.57965 7.65918H10.6451V7.78755H6.57965C6.54435 7.78755 6.51685 7.75932 6.51685 7.7231C6.51685 7.68848 6.54435 7.65918 6.57965 7.65918Z" fill="#676966"/><path d="M18.3794 7.7236C18.3794 7.75982 18.3519 7.78805 18.3166 7.78805H14.2107V7.65968H18.3166C18.3519 7.65914 18.3794 7.68844 18.3794 7.7236Z" fill="#676966"/><path d="M6.57965 6.70801H10.6451V6.83638H6.57965C6.54435 6.83638 6.51685 6.80815 6.51685 6.77193C6.51685 6.7373 6.54435 6.70801 6.57965 6.70801Z" fill="#676966"/><path d="M18.3794 6.77242C18.3794 6.80865 18.3519 6.83688 18.3166 6.83688H14.2107V6.7085H18.3166C18.3519 6.70797 18.3794 6.73727 18.3794 6.77242Z" fill="#676966"/><path d="M6.57965 5.75659H10.6451V5.88497H6.57965C6.54435 5.88497 6.51685 5.85673 6.51685 5.82051C6.51685 5.78589 6.54435 5.75659 6.57965 5.75659Z" fill="#676966"/><path d="M18.3794 5.82101C18.3794 5.85723 18.3519 5.88546 18.3166 5.88546H14.2107V5.75709H18.3166C18.3519 5.75655 18.3794 5.78585 18.3794 5.82101Z" fill="#676966"/><path d="M14.8828 19.0537H10.1058C10.071 19.0537 10.043 19.0249 10.043 18.9893C10.043 18.9536 10.071 18.9248 10.1058 18.9248H14.8828C14.9175 18.9248 14.9456 18.9536 14.9456 18.9893C14.9456 19.0249 14.9175 19.0537 14.8828 19.0537Z" fill="#676966"/><path d="M15.1754 19.8767H9.80987C9.7751 19.8767 9.74707 19.8479 9.74707 19.8123C9.74707 19.7766 9.7751 19.7478 9.80987 19.7478H15.1754C15.2102 19.7478 15.2382 19.7766 15.2382 19.8123C15.2382 19.8479 15.2102 19.8767 15.1754 19.8767Z" fill="#676966"/><path d="M15.4681 20.6997H9.51348C9.47871 20.6997 9.45068 20.6709 9.45068 20.6353C9.45068 20.5996 9.47871 20.5708 9.51348 20.5708H15.4681C15.5029 20.5708 15.5309 20.5996 15.5309 20.6353C15.5309 20.6709 15.5029 20.6997 15.4681 20.6997Z" fill="#676966"/><path d="M15.7608 21.5227H9.21759C9.18281 21.5227 9.15479 21.4939 9.15479 21.4583C9.15479 21.4226 9.18281 21.3938 9.21759 21.3938H15.7608C15.7955 21.3938 15.8236 21.4226 15.8236 21.4583C15.8236 21.4939 15.7955 21.5227 15.7608 21.5227Z" fill="#676966"/><path d="M16.0542 22.3457H8.92144C8.88667 22.3457 8.85864 22.3169 8.85864 22.2813C8.85864 22.2456 8.88667 22.2168 8.92144 22.2168H16.0537C16.0885 22.2168 16.1165 22.2456 16.1165 22.2813C16.1165 22.3169 16.0885 22.3457 16.0542 22.3457Z" fill="#676966"/><path d="M16.3469 23.1687H8.62554C8.59077 23.1687 8.56274 23.1399 8.56274 23.1042C8.56274 23.0686 8.59077 23.0398 8.62554 23.0398H16.3469C16.3817 23.0398 16.4097 23.0686 16.4097 23.1042C16.4092 23.1399 16.3811 23.1687 16.3469 23.1687Z" fill="#676966"/><path d="M16.6396 23.9922H8.32916C8.29438 23.9922 8.26636 23.9634 8.26636 23.9277C8.26636 23.892 8.29438 23.8633 8.32916 23.8633H16.6396C16.6744 23.8633 16.7024 23.892 16.7024 23.9277C16.7024 23.9629 16.6738 23.9922 16.6396 23.9922Z" fill="#676966"/><path d="M9.73722 6.34033H7.35547V7.20486H9.73722V6.34033Z" fill="#676966"/><path d="M9.73722 8.24316H7.35547V9.10769H9.73722V8.24316Z" fill="#676966"/><path d="M9.73722 12.0491H7.35547V12.9136H9.73722V12.0491Z" fill="#676966"/><path d="M9.73722 13.9517H7.35547V14.8162H9.73722V13.9517Z" fill="#676966"/><path d="M9.73722 10.1458H7.35547V11.0103H9.73722V10.1458Z" fill="#676966"/><path d="M17.7119 6.34033H14.9746V7.20486H17.7119V6.34033Z" fill="#676966"/><path d="M17.7119 8.24292H14.9746V9.10744H17.7119V8.24292Z" fill="#676966"/><path d="M17.7119 12.0491H14.9746V12.9136H17.7119V12.0491Z" fill="#676966"/><path d="M17.7119 13.9517H14.9746V14.8162H17.7119V13.9517Z" fill="#676966"/><path d="M17.7119 10.1458H14.9746V11.0103H17.7119V10.1458Z" fill="#676966"/><path d="M21.7187 0.150146H3.28082C3.24604 0.150146 3.21802 0.121382 3.21802 0.0856934C3.21802 0.0500044 3.24604 0.0212402 3.28082 0.0212402H21.7187C21.7535 0.0212402 21.7815 0.0500044 21.7815 0.0856934C21.7815 0.121382 21.753 0.150146 21.7187 0.150146Z" fill="#676966"/><path d="M21.1498 0.96875H3.82257C3.78779 0.96875 3.75977 0.939986 3.75977 0.904297C3.75977 0.868608 3.78779 0.839844 3.82257 0.839844H21.1498C21.1846 0.839844 21.2126 0.868608 21.2126 0.904297C21.2126 0.939986 21.1846 0.96875 21.1498 0.96875Z" fill="#676966"/><path d="M20.5811 1.78809H4.36407C4.3293 1.78809 4.30127 1.75932 4.30127 1.72363C4.30127 1.68794 4.3293 1.65918 4.36407 1.65918H20.5811C20.6159 1.65918 20.6439 1.68794 20.6439 1.72363C20.6439 1.75932 20.6159 1.78809 20.5811 1.78809Z" fill="#676966"/><path d="M20.0127 2.60693H4.90582C4.87104 2.60693 4.84302 2.57817 4.84302 2.54248C4.84302 2.50679 4.87104 2.47803 4.90582 2.47803H20.0127C20.0475 2.47803 20.0755 2.50679 20.0755 2.54248C20.075 2.57817 20.047 2.60693 20.0127 2.60693Z" fill="#676966"/><path d="M19.444 3.42603H5.44781C5.41304 3.42603 5.38501 3.39726 5.38501 3.36157C5.38501 3.32588 5.41304 3.29712 5.44781 3.29712H19.4445C19.4793 3.29712 19.5073 3.32588 19.5073 3.36157C19.5068 3.39726 19.4788 3.42603 19.444 3.42603Z" fill="#676966"/><path d="M18.8756 4.24536H5.98907C5.9543 4.24536 5.92627 4.2166 5.92627 4.18091C5.92627 4.14522 5.9543 4.11646 5.98907 4.11646H18.8751C18.9099 4.11646 18.9379 4.14522 18.9379 4.18091C18.9379 4.2166 18.9099 4.24536 18.8756 4.24536Z" fill="#676966"/><path d="M18.3067 5.06396H6.53082C6.49604 5.06396 6.46802 5.0352 6.46802 4.99951C6.46802 4.96382 6.49604 4.93506 6.53082 4.93506H18.3067C18.3415 4.93506 18.3695 4.96382 18.3695 4.99951C18.3695 5.0352 18.3415 5.06396 18.3067 5.06396Z" fill="#676966"/><path d="M3.09643 17.8928C3.06218 17.8928 3.03467 17.8641 3.03467 17.8284V0.428711C3.03467 0.393022 3.06218 0.364258 3.09643 0.364258C3.13069 0.364258 3.15819 0.393022 3.15819 0.428711V17.8284C3.15767 17.8641 3.13017 17.8928 3.09643 17.8928Z" fill="#676966"/><path d="M3.62329 17.4214C3.58903 17.4214 3.56152 17.3926 3.56152 17.3569V1.21436C3.56152 1.17867 3.58903 1.1499 3.62329 1.1499C3.65754 1.1499 3.68505 1.17867 3.68505 1.21436V17.3575C3.68505 17.3926 3.65754 17.4214 3.62329 17.4214Z" fill="#676966"/><path d="M4.15014 16.9499C4.11589 16.9499 4.08838 16.9212 4.08838 16.8855V2C4.08838 1.96431 4.11589 1.93555 4.15014 1.93555C4.1844 1.93555 4.2119 1.96431 4.2119 2V16.8855C4.2119 16.9212 4.1844 16.9499 4.15014 16.9499Z" fill="#676966"/><path d="M4.67724 16.4787C4.64299 16.4787 4.61548 16.45 4.61548 16.4143V2.78589C4.61548 2.7502 4.64299 2.72144 4.67724 2.72144C4.7115 2.72144 4.739 2.7502 4.739 2.78589V16.4143C4.73848 16.45 4.71098 16.4787 4.67724 16.4787Z" fill="#676966"/><path d="M5.2041 16.0073C5.16984 16.0073 5.14233 15.9785 5.14233 15.9428V3.57153C5.14233 3.53584 5.16984 3.50708 5.2041 3.50708C5.23835 3.50708 5.26586 3.53584 5.26586 3.57153V15.9428C5.26586 15.9785 5.23835 16.0073 5.2041 16.0073Z" fill="#676966"/><path d="M5.73095 15.5358C5.6967 15.5358 5.66919 15.507 5.66919 15.4713V4.35718C5.66919 4.32149 5.6967 4.29272 5.73095 4.29272C5.76521 4.29272 5.79271 4.32149 5.79271 4.35718V15.4713C5.79271 15.507 5.76521 15.5358 5.73095 15.5358Z" fill="#676966"/><path d="M6.2583 15.0643C6.22404 15.0643 6.19653 15.0356 6.19653 14.9999V5.14282C6.19653 5.10713 6.22404 5.07837 6.2583 5.07837C6.29255 5.07837 6.32006 5.10713 6.32006 5.14282V14.9999C6.31954 15.0356 6.29203 15.0643 6.2583 15.0643Z" fill="#676966"/><path d="M21.9212 17.8928C21.8869 17.8928 21.8589 17.8641 21.8589 17.8284V0.428711C21.8589 0.393022 21.8869 0.364258 21.9212 0.364258C21.9554 0.364258 21.9835 0.393022 21.9835 0.428711V17.8284C21.9835 17.8641 21.9554 17.8928 21.9212 17.8928Z" fill="#676966"/><path d="M21.3924 17.4214C21.3581 17.4214 21.3301 17.3926 21.3301 17.3569V1.21436C21.3301 1.17867 21.3581 1.1499 21.3924 1.1499C21.4266 1.1499 21.4546 1.17867 21.4546 1.21436V17.3575C21.4541 17.3926 21.4266 17.4214 21.3924 17.4214Z" fill="#676966"/><path d="M20.8628 16.9499C20.8286 16.9499 20.8005 16.9212 20.8005 16.8855V2C20.8005 1.96431 20.8286 1.93555 20.8628 1.93555C20.8971 1.93555 20.9251 1.96431 20.9251 2V16.8855C20.9251 16.9212 20.8971 16.9499 20.8628 16.9499Z" fill="#676966"/><path d="M20.334 16.4787C20.2998 16.4787 20.2717 16.45 20.2717 16.4143V2.78589C20.2717 2.7502 20.2998 2.72144 20.334 2.72144C20.3683 2.72144 20.3963 2.7502 20.3963 2.78589V16.4143C20.3958 16.45 20.3683 16.4787 20.334 16.4787Z" fill="#676966"/><path d="M19.8047 16.0073C19.7705 16.0073 19.7424 15.9785 19.7424 15.9428V3.57153C19.7424 3.53584 19.7705 3.50708 19.8047 3.50708C19.839 3.50708 19.867 3.53584 19.867 3.57153V15.9428C19.867 15.9785 19.839 16.0073 19.8047 16.0073Z" fill="#676966"/><path d="M19.2757 15.5358C19.2414 15.5358 19.2134 15.507 19.2134 15.4713V4.35718C19.2134 4.32149 19.2414 4.29272 19.2757 4.29272C19.3099 4.29272 19.3379 4.32149 19.3379 4.35718V15.4713C19.3374 15.507 19.3099 15.5358 19.2757 15.5358Z" fill="#676966"/><path d="M18.7464 15.0643C18.7121 15.0643 18.6841 15.0356 18.6841 14.9999V5.14282C18.6841 5.10713 18.7121 5.07837 18.7464 5.07837C18.7806 5.07837 18.8086 5.10713 18.8086 5.14282V14.9999C18.8086 15.0356 18.7806 15.0643 18.7464 15.0643Z" fill="#676966"/><path d="M4.21137 0H3V23.9574H4.21137V0Z" fill="#B3B4B3"/><path d="M22.0005 0H20.7886V23.9574H22.0005V0Z" fill="#B3B4B3"/><path d="M22 0H3V1.21502H22V0Z" fill="#B3B4B3"/><path d="M22 22.7578H3V23.9941H22V22.7578Z" fill="#B3B4B3"/><path d="M8.80469 0.900146H7.84399V23.1429H8.80469V0.900146Z" fill="#B3B4B3"/><path d="M17.1567 0.900146H16.196V23.1429H17.1567V0.900146Z" fill="#B3B4B3"/><path d="M11.4315 9.83259C11.3853 9.83259 11.3479 9.79423 11.3479 9.74683V6.3404C11.3479 6.29299 11.3853 6.25464 11.4315 6.25464C11.4777 6.25464 11.515 6.29299 11.515 6.3404V9.74683C11.515 9.79423 11.4777 9.83259 11.4315 9.83259Z" fill="#676966"/><path d="M11.1663 9.66748L11.4315 10.1389L11.6967 9.66748H11.1663Z" fill="#676966"/><path d="M12.4285 9.83259C12.3823 9.83259 12.345 9.79423 12.345 9.74683V6.3404C12.345 6.29299 12.3823 6.25464 12.4285 6.25464C12.4747 6.25464 12.5121 6.29299 12.5121 6.3404V9.74683C12.5121 9.79423 12.4747 9.83259 12.4285 9.83259Z" fill="#676966"/><path d="M12.1633 9.66748L12.4285 10.1389L12.6938 9.66748H12.1633Z" fill="#676966"/><path d="M13.4261 9.83259C13.3799 9.83259 13.3425 9.79423 13.3425 9.74683V6.3404C13.3425 6.29299 13.3799 6.25464 13.4261 6.25464C13.4723 6.25464 13.5097 6.29299 13.5097 6.3404V9.74683C13.5097 9.79423 13.4723 9.83259 13.4261 9.83259Z" fill="#676966"/><path d="M13.1609 9.66748L13.4261 10.1389L13.6913 9.66748H13.1609Z" fill="#676966"/><path d="M10.9015 11.0146H8.43774V12.0645H10.9015V11.0146Z" fill="#B3B4B3"/></g><defs><clipPath id="clip0_652_1321"><rect width="19" height="24" fill="white" transform="translate(3)"/></clipPath></defs></svg>