<svg width="24" height="24" viewBox="0 0 24 24" fill="none" xmlns="http://www.w3.org/2000/svg">
<rect width="24" height="24" fill="white"/>
<g clip-path="url(#clip0_652_1562)">
<path d="M17.9899 2.54907C17.9957 2.55849 17.9993 2.56862 17.9993 2.57804C17.9993 2.86698 15.3139 3.10233 12.0007 3.10233C8.71294 3.10233 6.04273 2.8706 6.00146 2.58528V4.11398H6.06301C6.06301 4.0604 6.04418 4.02274 6.02898 4.00319C6.44457 4.23419 8.66226 4.54848 12 4.54848C15.3928 4.54848 17.6351 4.22188 18 3.98943V2.54907H17.9899ZM6.00146 2.54907V2.57152C6.00146 2.56428 6.00508 2.55631 6.00943 2.54907H6.00146ZM16.4376 4.91708C16.1545 4.95111 15.8482 4.98008 15.5238 5.00543V6.82814H15.7874C15.9322 6.82814 16.048 6.94473 16.048 7.08884V7.81589C16.048 7.96072 15.9315 8.07659 15.7874 8.07659H15.5238V13.0617H15.7874C15.9322 13.0617 16.048 13.1783 16.048 13.3224V14.0495C16.048 14.1943 15.9315 14.3102 15.7874 14.3102H15.5238V16.3132C16.8995 16.1119 17.7676 15.82 17.9993 15.6093V4.62452C17.6843 4.73386 17.1775 4.82945 16.4376 4.91708ZM13.6356 7.37271L15.2914 7.15691V5.0228C14.3104 5.09377 13.1802 5.13143 12 5.13143C10.3261 5.13143 8.74914 5.05539 7.56246 4.91708C7.55667 4.91563 7.54943 4.91563 7.54364 4.91491V16.1495C8.58986 16.3711 10.1103 16.5514 12 16.5514C13.2757 16.5514 14.3835 16.4689 15.2914 16.3472V14.0379L13.6472 13.8235C13.5878 13.8163 13.5342 13.8619 13.5342 13.9213V14.0133L13.1136 13.7938C13.0832 13.7772 13.0643 13.7475 13.0643 13.7135C13.0643 13.6809 13.0832 13.649 13.1136 13.6345L13.5342 13.4151V13.5179C13.5342 13.5715 13.582 13.6135 13.6356 13.6063L15.2914 13.3905V7.80358L13.6472 7.58923C13.5878 7.58199 13.5342 7.62761 13.5342 7.68699V7.77896L13.1136 7.55954C13.0832 7.54288 13.0643 7.51319 13.0643 7.47916C13.0643 7.44657 13.0832 7.41471 13.1136 7.40022L13.5342 7.1808V7.28363C13.5342 7.33722 13.582 7.37922 13.6356 7.37271ZM9.14446 9.14618C9.14446 9.20121 9.1155 9.25335 9.06771 9.28159L8.5913 9.5756V11.5656L9.06771 11.8596C9.1155 11.8886 9.14446 11.94 9.14446 11.995V12.8879C9.14446 12.9763 9.07206 13.0472 8.98517 13.0472C8.89684 13.0472 8.82589 12.9763 8.82589 12.8879V12.0848L8.34876 11.7901C8.30097 11.7611 8.27273 11.7097 8.27273 11.6539V9.48653C8.27273 9.43077 8.30097 9.37935 8.34876 9.35039L8.82516 9.05638V8.25329C8.82516 8.16494 8.89612 8.09397 8.98445 8.09397C9.07206 8.09397 9.14374 8.16494 9.14374 8.25329V9.14618H9.14446ZM6.00146 4.61727V15.6108C6.15858 15.7527 6.6082 15.9337 7.31123 16.0967V4.88594C6.71101 4.80773 6.27949 4.71286 6.00146 4.61727Z" fill="#676966"/>
<path d="M16.5447 16.728C17.2311 16.5846 17.6908 16.4282 18 16.2783V19.5711C17.8718 19.7072 17.4642 19.9723 16.418 20.2214C16.1487 20.2858 15.8634 20.3438 15.5615 20.3952H15.56C14.508 20.5726 13.2765 20.6689 11.9993 20.6689C10.7235 20.6689 9.49053 20.5719 8.43852 20.3952H8.43707C8.13515 20.3438 7.84989 20.2858 7.582 20.2214C6.53795 19.9723 6.12888 19.7101 6 19.5725V16.2783C6.30988 16.4297 6.77036 16.5846 7.45529 16.728C8.70641 16.9902 10.3203 17.1336 11.9993 17.1336C13.6805 17.1336 15.2936 16.9902 16.5447 16.728Z" fill="#676966"/>
<path d="M16.8655 20.7123C17.3187 20.5877 17.7053 20.4422 18 20.2756V21.4843H17.992C17.9964 21.5089 17.9993 21.5335 17.9993 21.5574C17.9993 22.3547 15.3139 22.9999 12.0007 22.9999C8.68686 22.9999 6 22.354 6 21.5574C6 21.5328 6.00362 21.5082 6.00796 21.4843H6.00072V20.2771C6.2954 20.4429 6.68203 20.5885 7.13455 20.713C7.136 20.713 7.136 20.713 7.136 20.713C8.42331 21.0686 10.2421 21.2525 12 21.2525C13.7594 21.2518 15.5781 21.0664 16.8655 20.7123Z" fill="#676966"/>
<path d="M6.00145 2.57153V2.58529C6 2.58312 6 2.58095 6 2.57805C6 2.57588 6 2.57371 6.00145 2.57153Z" fill="white"/>
<path d="M6.00146 4.11377H6.063C6.063 4.06018 6.04417 4.02253 6.02897 4.00298C6.02463 4.0008 6.02101 3.99863 6.01739 3.99573C6.01159 3.99211 6.0058 3.98849 6.00073 3.9856V4.11377H6.00146Z" fill="white"/>
<path d="M6.06301 4.11384H6.00146L6.01812 3.9958L6.01957 3.99146C6.02174 3.9929 6.02319 3.99508 6.02536 3.9958C6.02681 3.99797 6.02898 4.00014 6.0297 4.00304C6.04418 4.02332 6.06301 4.06025 6.06301 4.11384Z" fill="white"/>
<path d="M14.9852 2.01465H14.949C14.6159 2.12907 12.9413 2.21379 10.927 2.21379C8.91278 2.21379 7.23811 2.12907 6.90506 2.01465H6.84424V2.56863V2.57877H6.84786C6.91809 2.74315 8.71078 2.87495 10.9125 2.87495C13.1143 2.87495 14.907 2.74315 14.9772 2.57877H14.9852V2.01465Z" fill="#676966"/>
<path d="M7.72978 1.89502L8.14175 1.18099C8.16492 1.14117 8.22211 1.14117 8.24528 1.18099L8.65725 1.89502C8.68042 1.93485 8.65146 1.98481 8.60585 1.98481H7.78191C7.73557 1.98409 7.70733 1.93412 7.72978 1.89502Z" fill="#676966"/>
<path d="M15.9452 2.49688L16.452 1.61848C16.4803 1.56923 16.5512 1.56923 16.5795 1.61848L17.0863 2.49688C17.1145 2.54612 17.079 2.60695 17.0226 2.60695H16.0089C15.9525 2.60695 15.917 2.54612 15.9452 2.49688Z" fill="#676966"/>
<path d="M11.3375 2.01011C11.2731 2.01011 11.2209 1.95797 11.2209 1.89352V1.57923C11.2209 1.42064 11.3715 1.29102 11.5576 1.29102H12.2534C12.4388 1.29102 12.5901 1.41992 12.5901 1.57923V1.78344C12.5901 1.8479 12.538 1.90003 12.4735 1.90003C12.4091 1.90003 12.3569 1.8479 12.3569 1.78344V1.57923C12.3569 1.55751 12.3157 1.5242 12.2534 1.5242H11.5576C11.4954 1.5242 11.4541 1.55751 11.4541 1.57923V1.89352C11.4541 1.95797 11.402 2.01011 11.3375 2.01011Z" fill="#676966"/>
<path d="M13.2308 2.0102C13.1664 2.0102 13.1143 1.95806 13.1143 1.89361V1.39105C13.1143 1.17597 13.3242 1 13.5827 1H14.6963C14.9547 1 15.1647 1.17525 15.1647 1.39105V1.71764C15.1647 1.78209 15.1126 1.83423 15.0481 1.83423C14.9837 1.83423 14.9316 1.78209 14.9316 1.71764V1.39105C14.9316 1.3056 14.8237 1.23318 14.6963 1.23318H13.5827C13.4553 1.23318 13.3474 1.3056 13.3474 1.39105V1.89361C13.3474 1.95806 13.2953 2.0102 13.2308 2.0102Z" fill="#676966"/>
<path d="M12.7668 2.01466H14.9418L14.9614 2.45133L15.4566 2.44191V1.73296C15.4566 1.65258 15.3914 1.5874 15.3111 1.5874H12.9124C12.832 1.5874 12.7668 1.65258 12.7668 1.73296V2.01466Z" fill="#676966"/>
</g>
<defs>
<clipPath id="clip0_652_1562">
<rect width="12" height="22" fill="white" transform="translate(6 1)"/>
</clipPath>
</defs>
</svg>
