<svg width="128" height="40" viewBox="0 0 128 40" fill="none" xmlns="http://www.w3.org/2000/svg">
<path fill-rule="evenodd" clip-rule="evenodd" d="M11.6039 0H4.82008V8.00712C3.39191 9.57296 2.24937 11.3879 1.42817 13.3452C0.499861 15.5872 0 18.0071 0 20.5694C0 23.0961 0.499861 25.5516 1.42817 27.7936C2.39219 30.1068 3.78466 32.2064 5.53417 33.9502C7.28368 35.694 9.35453 37.0819 11.711 38.0427C13.9604 38.968 16.3883 39.4662 18.959 39.4662C21.5297 39.4662 23.9576 38.968 26.207 38.0427C28.5278 37.0819 30.5986 35.694 32.3481 33.9502L28.0993 28.8968C27.9208 29.0747 27.7066 29.2171 27.528 29.395C26.3141 30.3915 24.993 31.21 23.6363 31.7794C22.2081 32.3844 20.6371 32.7046 18.9947 32.7046C17.3523 32.7046 15.7813 32.3844 14.3531 31.7794C12.8536 31.1744 11.5325 30.2847 10.39 29.1459C9.28312 28.0427 8.35481 26.6904 7.74784 25.2313C7.14086 23.8078 6.81953 22.242 6.81953 20.605C6.81953 18.968 7.14086 17.4021 7.74784 15.9787C8.35481 14.484 9.28312 13.1673 10.39 12.0285C11.354 11.0676 13.1749 9.89324 14.3174 9.39502C15.7456 8.82563 17.3166 8.46976 18.959 8.46976C20.6014 8.46976 22.1724 8.79004 23.6006 9.39502C27.2781 10.9253 29.349 13.4164 30.4201 17.1886H10.3185V23.9858H33.9191L37.5967 23.9502C38.6321 18.0071 36.6326 11.5303 32.3481 7.25979C30.5986 5.51602 28.5278 4.12812 26.207 3.16726C23.9576 2.24199 21.5297 1.74377 18.959 1.74377C16.3883 1.74377 13.9604 2.24199 11.711 3.16726L11.6039 3.20285V0Z" fill="url(#paint0_linear_658_160)"/>
<path d="M103.543 35.516H104.792V37.758H103.078C103.364 37.1174 103.507 36.4413 103.543 35.516ZM102.507 39.3594V38.3986H105.364V39.3594H106.113V37.758H105.578V34.8754H102.793C102.793 36.121 102.65 37.0107 102.222 37.758H101.757V39.3594H102.507ZM100.472 36.6192C100.472 37.2954 100.008 37.758 99.3652 37.758C98.6868 37.758 98.2584 37.2954 98.2584 36.6192C98.2584 35.943 98.7225 35.4804 99.3652 35.4804C100.008 35.4804 100.472 35.943 100.472 36.6192ZM97.4372 36.6192C97.4372 37.8292 98.3655 38.4697 99.3652 38.4697C100.365 38.4697 101.293 37.8292 101.293 36.6192C101.293 35.4092 100.365 34.7687 99.3652 34.7687C98.3655 34.7687 97.4372 35.4092 97.4372 36.6192ZM94.2952 35.4448H95.3663C95.6162 35.4448 95.8662 35.5516 95.8662 35.9075C95.8662 36.2277 95.652 36.3345 95.3663 36.3345H94.2952V35.4448ZM94.2952 36.9039H95.402C95.6877 36.9039 95.9376 37.0107 95.9376 37.3665C95.9376 37.7224 95.6877 37.8292 95.3663 37.8292H94.2595V36.9039H94.2952ZM95.5805 38.3986C96.4017 38.3986 96.7588 37.9715 96.7588 37.4377C96.7588 37.0107 96.4731 36.726 96.1518 36.6192C96.4374 36.4769 96.6517 36.1922 96.6517 35.8007C96.6517 35.2313 96.2589 34.8398 95.5448 34.8398H93.5097V38.363H95.5805V38.3986ZM90.7605 36.7616C91.0104 36.7616 91.3317 36.7971 91.546 36.8327V37.4377C91.2603 37.7224 90.9033 37.8648 90.5105 37.8648C90.1535 37.8648 89.8321 37.6868 89.8321 37.3309C89.8321 36.9039 90.2963 36.7616 90.7605 36.7616ZM92.3314 37.5801V36.2989C92.3314 35.2313 91.6888 34.7687 90.689 34.7687C90.1178 34.7687 89.6179 34.911 89.3323 35.0178V35.7295C89.6536 35.5872 90.0821 35.4448 90.6176 35.4448C91.2246 35.4448 91.546 35.7651 91.546 36.1922V36.3345C91.2603 36.2633 90.939 36.2277 90.6176 36.2277C89.8679 36.2277 89.0466 36.5124 89.0466 37.4021C89.0466 38.1139 89.6536 38.4697 90.2963 38.4697C90.8676 38.4697 91.296 38.2918 91.6174 38.0071C91.7602 38.2918 92.0101 38.4342 92.3314 38.4342C92.51 38.4342 92.6885 38.3986 92.8313 38.363V37.7936C92.7599 37.8292 92.6885 37.8292 92.5814 37.8292C92.4386 37.8292 92.3314 37.758 92.3314 37.5801ZM88.404 37.4377C88.404 37.0107 88.1183 36.6904 87.6899 36.5836C88.0469 36.4769 88.3326 36.2277 88.3326 35.8007C88.3326 35.2313 87.8684 34.7687 86.7973 34.7687C86.2974 34.7687 85.8333 34.8754 85.5119 35.0178V35.6939C85.7976 35.516 86.2974 35.4092 86.7259 35.4092C87.2257 35.4092 87.5828 35.5516 87.5828 35.8719C87.5828 36.1566 87.2971 36.2633 86.9044 36.2633H86.1903V36.8683H86.9044C87.2614 36.8683 87.6542 36.9395 87.6542 37.2954C87.6542 37.6868 87.2257 37.7936 86.6902 37.7936C86.2617 37.7936 85.7619 37.6512 85.4762 37.5089V38.185C85.7976 38.363 86.2617 38.4697 86.7973 38.4697C87.8327 38.5053 88.404 38.0427 88.404 37.4377ZM80.0849 38.3986L81.9772 36.0854V38.3986H82.7627V34.8754H82.12L80.2277 37.1886V34.8754H79.4422V38.3986H80.0849ZM82.1914 34.0569V33.4164C81.7987 33.6655 81.4773 33.7366 81.1203 33.7366C80.7632 33.7366 80.4062 33.6655 80.0492 33.4164V34.0569C80.3705 34.2704 80.7275 34.3416 81.1203 34.3416C81.513 34.3772 81.8701 34.2704 82.1914 34.0569ZM78.3354 38.3986V34.8754H77.5499V38.3986H78.3354ZM74.515 36.6548H75.3362C75.8003 36.6548 76.086 36.8327 76.086 37.2242C76.086 37.5801 75.8003 37.7936 75.3362 37.7936H74.515V36.6548ZM75.5147 38.3986C76.4073 38.3986 76.9072 37.9003 76.9072 37.2242C76.9072 36.548 76.4073 36.0498 75.5147 36.0498H74.5507V34.8754H73.7652V38.3986H75.5147ZM70.3733 35.4448H71.4444C71.6943 35.4448 71.9443 35.5516 71.9443 35.9075C71.9443 36.2277 71.7301 36.3345 71.4444 36.3345H70.3733V35.4448ZM70.3733 36.9039H71.4801C71.7658 36.9039 72.0157 37.0107 72.0157 37.3665C72.0157 37.7224 71.7658 37.8292 71.4444 37.8292H70.3376V36.9039H70.3733ZM71.6586 38.3986C72.4798 38.3986 72.8369 37.9715 72.8369 37.4377C72.8369 37.0107 72.5513 36.726 72.2299 36.6192C72.5155 36.4769 72.7298 36.1922 72.7298 35.8007C72.7298 35.2313 72.337 34.8398 71.6229 34.8398H69.5878V38.363H71.6586V38.3986ZM67.9097 36.6192C67.9097 37.2954 67.4455 37.758 66.8029 37.758C66.1245 37.758 65.696 37.2954 65.696 36.6192C65.696 35.943 66.1602 35.4804 66.8029 35.4804C67.4455 35.4804 67.9097 35.943 67.9097 36.6192ZM64.8748 36.6192C64.8748 37.8292 65.8031 38.4697 66.8029 38.4697C67.8026 38.4697 68.7309 37.8292 68.7309 36.6192C68.7309 35.4092 67.8026 34.7687 66.8029 34.7687C65.8031 34.7687 64.8748 35.4092 64.8748 36.6192ZM63.4109 36.6192C63.4109 37.2954 62.9468 37.7936 62.3041 37.7936C61.7685 37.7936 61.3401 37.4377 61.1616 37.0463V36.1922C61.3401 35.8007 61.7328 35.4448 62.3041 35.4448C62.9825 35.4448 63.4109 35.943 63.4109 36.6192ZM61.0902 35.4092V34.8398H60.3761V40H61.1616V37.9359C61.4115 38.2206 61.8043 38.5053 62.4469 38.5053C63.5181 38.5053 64.1964 37.6512 64.1964 36.6548C64.1964 35.6228 63.5181 34.8043 62.4469 34.8043C61.8043 34.7687 61.3758 35.0534 61.0902 35.4092ZM57.0199 35.516H58.2695V37.758H56.5557C56.8413 37.1174 56.9842 36.4413 57.0199 35.516ZM55.9844 39.3594V38.3986H58.8408V39.3594H59.5906V37.758H59.055V34.8754H56.2701C56.2701 36.121 56.1273 37.0107 55.6988 37.758H55.199V39.3594H55.9844ZM53.985 36.3345H52.0213C52.057 35.7295 52.5211 35.4092 53.0567 35.4092C53.8422 35.4092 54.0207 36.0142 53.985 36.3345ZM51.2358 36.6192C51.2358 37.8648 52.1641 38.4697 53.2352 38.4697C53.7351 38.4697 54.1635 38.3986 54.5206 38.2206V37.5445C54.2349 37.6868 53.8422 37.7936 53.4137 37.7936C52.7711 37.7936 52.1284 37.5445 52.057 36.9039H54.7348C54.949 35.8719 54.4849 34.7331 53.0567 34.7331C52.1998 34.7687 51.2358 35.3381 51.2358 36.6192ZM48.3794 38.3986V36.9395H48.9507L50.1289 38.3986H51.0215L49.5934 36.6192L50.8787 34.8754H49.9861L48.9507 36.2633H48.3794V34.8754H47.5939V38.3986H48.3794ZM100.936 31.3167L102.829 29.0035V31.3167H103.614V27.7936H102.936L101.043 30.1067V27.7936H100.258V31.3167H100.936ZM103.007 27.0107V26.3701C102.614 26.6192 102.293 26.6904 101.936 26.6904C101.579 26.6904 101.222 26.6192 100.865 26.3701V27.0107C101.186 27.2242 101.543 27.2954 101.936 27.2954C102.329 27.2954 102.686 27.2242 103.007 27.0107ZM96.4731 31.3167L98.3655 29.0035V31.3167H99.151V27.7936H98.4726L96.5803 30.1067V27.7936H95.7948V31.3167H96.4731ZM92.51 31.3167V29.8576H93.0812L94.2595 31.3167H95.1521L93.7239 29.5374L95.0093 27.7936H94.1167L93.0812 29.1815H92.51V27.7936H91.7245V31.3167H92.51ZM87.7613 29.6085C87.7613 30.8541 88.7253 31.4591 89.6893 31.4591C90.1535 31.4591 90.5105 31.3879 90.8676 31.2099V30.4626C90.5819 30.6406 90.2249 30.7473 89.8321 30.7473C89.1895 30.7473 88.5825 30.3914 88.5825 29.5729C88.5825 28.7544 89.2252 28.3986 89.8321 28.3986C90.1892 28.3986 90.5462 28.5053 90.8319 28.6833V27.9715C90.5105 27.7936 90.1535 27.6868 89.725 27.6868C88.761 27.6868 87.7613 28.2562 87.7613 29.6085ZM86.2974 29.5729C86.2974 30.2491 85.8333 30.7473 85.1906 30.7473C84.655 30.7473 84.2266 30.3914 84.048 30V29.1459C84.2266 28.7544 84.6193 28.3986 85.1906 28.3986C85.8333 28.3986 86.2974 28.8612 86.2974 29.5729ZM83.9766 28.363V27.7936H83.2625V32.7046H84.048V30.8897C84.298 31.1744 84.6907 31.4591 85.3334 31.4591C86.4045 31.4591 87.0829 30.605 87.0829 29.6085C87.0829 28.5765 86.4045 27.758 85.3334 27.758C84.6907 27.6868 84.2623 28.0071 83.9766 28.363ZM79.4779 31.3167L81.3702 29.0035V31.3167H82.1557V27.7936H81.4773L79.585 30.1067V27.7936H78.7995V31.3167H79.4779ZM75.0148 29.7153C75.0148 29.2171 75.3719 28.6833 76.0503 28.6833C76.7644 28.6833 77.1214 29.1815 77.1214 29.7153C77.1214 30.2491 76.7644 30.7473 76.0503 30.7473C75.3719 30.7473 75.0148 30.2491 75.0148 29.7153ZM77.9426 29.6797C77.9426 28.6121 77.1571 27.9715 76.2645 27.9715C75.7289 27.9715 75.2648 28.2206 75.0148 28.5765C75.122 28.185 75.3005 27.7224 75.7646 27.4733C76.5144 27.0462 77.0857 27.2242 77.5856 26.8327V26.0498C77.0857 26.548 76.3002 26.2633 75.3005 26.9039C74.6578 27.2954 74.1937 28.0783 74.1937 29.3238C74.1937 30.7473 75.0149 31.4235 76.0503 31.4235C77.1571 31.4235 77.9426 30.8185 77.9426 29.6797ZM70.5875 31.3167L72.4798 29.0035V31.3167H73.2653V27.7936H72.587L70.6946 30.1067V27.7936H69.9091V31.3167H70.5875ZM65.946 29.6085C65.946 30.8541 66.91 31.4591 67.874 31.4591C68.3381 31.4591 68.6952 31.3879 69.0522 31.2099V30.4626C68.7666 30.6406 68.4095 30.7473 68.0168 30.7473C67.3741 30.7473 66.7672 30.3914 66.7672 29.5729C66.7672 28.7544 67.4098 28.3986 68.0168 28.3986C68.3738 28.3986 68.7309 28.5053 69.0165 28.6833V27.9715C68.6952 27.7936 68.3381 27.6868 67.9097 27.6868C66.9457 27.6868 65.946 28.2562 65.946 29.6085ZM64.4821 29.5729C64.4821 30.2491 64.0179 30.7117 63.3752 30.7117C62.6969 30.7117 62.2684 30.2491 62.2684 29.5729C62.2684 28.8968 62.7326 28.4341 63.3752 28.4341C64.0179 28.4341 64.4821 28.8612 64.4821 29.5729ZM61.4472 29.5729C61.4472 30.7829 62.3755 31.4235 63.3752 31.4235C64.375 31.4235 65.3033 30.7829 65.3033 29.5729C65.3033 28.363 64.375 27.7224 63.3752 27.7224C62.3755 27.6868 61.4472 28.3274 61.4472 29.5729ZM58.3052 28.3986H59.3764C59.6263 28.3986 59.8762 28.5053 59.8762 28.8612C59.8762 29.1815 59.662 29.2882 59.3764 29.2882H58.3052V28.3986ZM58.3052 29.822H59.4121C59.6977 29.822 59.9476 29.9288 59.9476 30.2847C59.9476 30.6406 59.6977 30.7473 59.3764 30.7473H58.2695V29.822H58.3052ZM59.6263 31.3167C60.4475 31.3167 60.8045 30.8897 60.8045 30.3559C60.8045 29.9288 60.5189 29.6441 60.1976 29.5374C60.4832 29.395 60.6974 29.1103 60.6974 28.7188C60.6974 28.1494 60.3047 27.758 59.5906 27.758H57.5554V31.3167H59.6263ZM55.8416 29.5729C55.8416 30.2491 55.3775 30.7117 54.7348 30.7117C54.0564 30.7117 53.628 30.2491 53.628 29.5729C53.628 28.8968 54.0921 28.4341 54.7348 28.4341C55.3775 28.4341 55.8416 28.8612 55.8416 29.5729ZM52.8068 29.5729C52.8068 30.7829 53.7351 31.4235 54.7348 31.4235C55.7345 31.4235 56.6628 30.7829 56.6628 29.5729C56.6628 28.363 55.7345 27.7224 54.7348 27.7224C53.7351 27.6868 52.8068 28.3274 52.8068 29.5729ZM51.0572 26.1566V28.3274H48.3437V26.1566H47.4868V31.3167H48.3437V29.1103H51.0572V31.3167H51.9142V26.1566H51.0572Z" fill="white"/>
<path d="M98.7582 11.9217V10.5694H95.6519V20.4626H99.1867V14.8754C99.7937 13.9146 101.293 13.4875 102.65 13.8078V10.3914C100.722 10.1779 99.4723 10.9253 98.7582 11.9217ZM89.7964 14.4128V16.6904C89.4751 17.3309 88.761 17.9359 87.797 17.9359C86.2974 17.9359 85.6547 16.726 85.6547 15.5516C85.6547 14.4128 86.2974 13.1672 87.797 13.1672C88.761 13.1672 89.4751 13.7722 89.7964 14.4128ZM89.7964 6.0498V11.3879C89.1895 10.7829 88.2254 10.2847 86.833 10.2847C83.5125 10.2847 82.0129 12.9893 82.0129 15.5516C82.0129 18.1139 83.4768 20.8185 86.833 20.8185C88.6182 20.8185 89.725 20 90.2249 19.1815V20.5338H93.3312V6.0498H89.7964ZM77.2999 14.484H73.9794C73.9794 13.4519 74.8006 12.8114 75.7646 12.8114C77.1571 12.8114 77.407 14.0213 77.2999 14.484ZM70.4447 15.5516C70.4447 18.968 73.0868 20.8185 76.3359 20.8185C77.9069 20.8185 79.0851 20.605 80.0135 20.2491V17.6512C79.1923 17.9715 78.2639 18.1139 77.1571 18.1139C75.7289 18.1139 74.3722 17.6868 73.9794 16.5836H80.4776C81.1917 13.5587 79.9063 10.2847 75.6218 10.2847C73.4796 10.2847 70.4447 11.6726 70.4447 15.5516ZM70.1948 20.4982L66.7672 15.4448L69.9805 10.5694H66.0531L63.8751 14.0213H63.0896V6.0498H59.5549V20.4982H63.0896V16.726H63.8394L66.2673 20.4982H70.1948ZM54.342 14.484H51.0215C51.0215 13.4519 51.8427 12.8114 52.8068 12.8114C54.1992 12.8114 54.4492 14.0213 54.342 14.484ZM124.465 10.7829V17.1174C124.144 17.5089 123.573 17.9715 122.787 17.9715C121.93 17.9715 121.288 17.4733 121.288 16.4413V10.7829H117.789V16.9039C117.789 19.1103 119.038 20.9608 121.752 20.9608C123.073 20.9608 124.073 20.3914 124.894 19.5374V20.6406H128V10.7829H124.465ZM112.647 12.0996V10.7829H109.541V20.6406H113.04V15.0178C113.647 14.0569 115.111 13.6299 116.503 13.9502V10.5694C114.575 10.3559 113.326 11.1388 112.647 12.0996ZM107.791 18.8968C107.791 17.5089 106.827 16.8683 105.685 16.8683C104.578 16.8683 103.578 17.4733 103.578 18.8968C103.578 20.3203 104.578 20.9253 105.685 20.9253C106.827 20.9608 107.791 20.3203 107.791 18.8968ZM47.4868 15.5516C47.4868 18.968 50.1289 20.8185 53.378 20.8185C54.949 20.8185 56.1273 20.605 57.0556 20.2491V17.6512C56.2344 17.9715 55.3061 18.1139 54.1992 18.1139C52.7711 18.1139 51.4143 17.6868 51.0215 16.5836H57.5197C58.2338 13.5587 56.9485 10.2847 52.6639 10.2847C50.5217 10.2847 47.4868 11.6726 47.4868 15.5516Z" fill="white"/>
<defs>
<linearGradient id="paint0_linear_658_160" x1="6.41571" y1="-0.930783" x2="28.3286" y2="36.9726" gradientUnits="userSpaceOnUse">
<stop stop-color="#179B3D"/>
<stop offset="0.5479" stop-color="#158337"/>
<stop offset="1" stop-color="#136C31"/>
</linearGradient>
</defs>
</svg>
