<svg width="40" height="40" viewBox="0 0 40 40" fill="none" xmlns="http://www.w3.org/2000/svg">
<path fill-rule="evenodd" clip-rule="evenodd" d="M20 40C31.0457 40 40 31.0457 40 20C40 8.9543 31.0457 0 20 0C8.9543 0 0 8.9543 0 20C0 31.0457 8.9543 40 20 40ZM8.93469 18.9477L26.6647 12.1107C27.4737 11.7447 28.2557 12.3057 27.9467 13.5447L24.9277 27.7727C24.7167 28.7847 24.1077 29.0247 23.2597 28.5577L18.6607 25.1607L16.4497 27.3107C16.4414 27.3187 16.4332 27.3266 16.4251 27.3345C16.1784 27.573 15.974 27.7707 15.5287 27.7707L15.8427 23.0787L15.8407 23.0777H15.8427L24.3757 15.3767C24.7497 15.0447 24.2947 14.8817 23.7967 15.1847L13.2647 21.8297L8.71269 20.4097C7.73169 20.1087 7.72469 19.4337 8.93469 18.9477Z" fill="white"/>
</svg>
