<svg width="40" height="40" viewBox="0 0 40 40" fill="none" xmlns="http://www.w3.org/2000/svg"><path fill-rule="evenodd" clip-rule="evenodd" d="M20 40C31.0457 40 40 31.0457 40 20C40 8.9543 31.0457 0 20 0C8.9543 0 0 8.9543 0 20C0 31.0457 8.9543 40 20 40ZM11.4238 24.7834L10.0042 29.9998L15.2185 28.5771C16.8215 29.5118 18.6444 30.0028 20.5 29.9998C26.2992 29.9998 31 25.299 31 19.4998C31 13.7007 26.2992 8.99984 20.5 8.99984C14.7009 8.99984 10 13.7007 10 19.4998C9.99696 21.3562 10.4884 23.1799 11.4238 24.7834ZM16.321 14.6782C16.4425 14.6174 16.575 14.5817 16.7106 14.5732V14.5722C16.8514 14.5624 16.9927 14.561 17.1337 14.568C17.1904 14.5722 17.2471 14.5785 17.3038 14.5848C17.4708 14.6047 17.6545 14.7055 17.7165 14.8462C18.0294 15.556 18.3339 16.2711 18.6279 16.9893C18.693 17.1478 18.6541 17.3526 18.5302 17.5521C18.445 17.6873 18.3529 17.8181 18.2541 17.9437C18.1354 18.0949 17.8803 18.3742 17.8803 18.3742C17.8803 18.3742 17.7763 18.4981 17.8162 18.6525C17.8428 18.7284 17.8788 18.8007 17.9233 18.8677L17.9853 18.9675C18.2832 19.4557 18.6432 19.9033 19.0563 20.2989C19.0902 20.3317 19.1239 20.3648 19.1577 20.3979C19.2491 20.4878 19.3408 20.5778 19.4374 20.6622C19.929 21.0957 20.4852 21.4499 21.0859 21.7122L21.0912 21.7143C21.117 21.7255 21.1391 21.7353 21.1607 21.7448C21.2137 21.7681 21.2632 21.7899 21.3558 21.8287C21.4209 21.8566 21.4879 21.8797 21.5563 21.898C21.627 21.9162 21.7015 21.9129 21.7703 21.8886C21.8391 21.8643 21.8991 21.8201 21.9427 21.7615C22.7019 20.8417 22.7722 20.7819 22.7775 20.7819V20.784C22.8303 20.7347 22.893 20.6973 22.9615 20.6743C23.0299 20.6513 23.1025 20.6433 23.1744 20.6506C23.2384 20.6535 23.3014 20.6681 23.3602 20.6937C23.9178 20.9478 24.8313 21.3457 24.8313 21.3457L25.4424 21.6198C25.5442 21.6691 25.6377 21.7857 25.6419 21.898C25.642 21.902 25.6422 21.9061 25.6424 21.9103C25.6457 21.9814 25.6509 22.0934 25.6272 22.2897C25.5936 22.5616 25.5117 22.8882 25.4298 23.0593C25.372 23.1801 25.2964 23.2861 25.2093 23.3764C25.0917 23.4993 25.0045 23.5738 24.8628 23.6788C24.7767 23.7439 24.7315 23.7733 24.7315 23.7733C24.601 23.8564 24.4669 23.9335 24.3294 24.0043C24.0591 24.1483 23.7605 24.2311 23.4547 24.2469C23.4207 24.2485 23.3868 24.2503 23.3528 24.2521C23.1918 24.2607 23.0314 24.2692 22.8709 24.2605L22.2735 24.1692C20.7806 23.7765 19.4 23.0409 18.2415 22.0209C18.0435 21.8458 17.8574 21.6597 17.67 21.4724C17.6338 21.4361 17.5975 21.3998 17.5611 21.3636C16.6276 20.4343 15.921 19.4316 15.4915 18.4845C15.2815 18.0162 15.1471 17.5153 15.145 17.0008C15.1415 16.3639 15.3502 15.744 15.7383 15.2389C15.7499 15.2238 15.7614 15.2086 15.773 15.1933C15.8378 15.1076 15.9054 15.0183 16.0123 14.9176C16.1031 14.8234 16.2071 14.7427 16.321 14.6782Z" fill="white"/></svg>