<svg width="31" height="24" viewBox="0 0 31 24" fill="none" xmlns="http://www.w3.org/2000/svg">
<path d="M30.0053 3.747C30.7 6.42 30.7 12 30.7 12C30.7 12 30.7 17.58 30.0053 20.253C29.6193 21.7305 28.4899 22.893 27.0596 23.286C24.4619 24 15.5 24 15.5 24C15.5 24 6.54263 24 3.94039 23.286C2.50399 22.887 1.37615 21.726 0.994628 20.253C0.299988 17.58 0.299988 12 0.299988 12C0.299988 12 0.299988 6.42 0.994628 3.747C1.38071 2.2695 2.51007 1.107 3.94039 0.714C6.54263 -2.68221e-07 15.5 0 15.5 0C15.5 0 24.4619 -2.68221e-07 27.0596 0.714C28.496 1.113 29.6238 2.274 30.0053 3.747ZM12.46 17.25L21.58 12L12.46 6.75V17.25Z" fill="#E81919"/>
</svg>
